<svg xmlns="http://www.w3.org/2000/svg" viewBox="0 0 2000 1000"><defs>
<symbol id="transcription_factor" viewBox="0 0 60 50" overflow="visible">
        
        <path d="M 10 30 Q 10 6 30 6 Q 50 6 50 30 Z" fill="#B5D4A8" stroke="#4A7A3F" stroke-width="2" stroke-linejoin="round" />
        
        <line x1="17" y1="30" x2="17" y2="42" stroke="#4A7A3F" stroke-width="2.5" stroke-linecap="round" />
        <line x1="43" y1="30" x2="43" y2="42" stroke="#4A7A3F" stroke-width="2.5" stroke-linecap="round" />
        
        <path d="M 2 45 Q 12 41 22 45 T 42 45 Q 52 41 58 45" fill="none" stroke="#888888" stroke-width="1.5" />
        <path d="M 2 48 Q 12 52 22 48 T 42 48 Q 52 52 58 48" fill="none" stroke="#888888" stroke-width="1.5" />
    </symbol>
<symbol id="nucleus" viewBox="0 0 200 150" overflow="visible">
        <ellipse cx="100" cy="75" rx="92" ry="65" fill="#F0E0F0" stroke="#5A2A7C" stroke-width="2.5" />
        <ellipse cx="100" cy="75" rx="86" ry="60" fill="none" stroke="#5A2A7C" stroke-width="1" opacity="0.6" />
        <circle cx="20" cy="60" r="3" fill="#5A2A7C" />
        <circle cx="180" cy="65" r="3" fill="#5A2A7C" />
        <circle cx="100" cy="12" r="3" fill="#5A2A7C" />
        <circle cx="100" cy="138" r="3" fill="#5A2A7C" />
    </symbol>
<symbol id="ligand" viewBox="0 0 40 30" overflow="visible">
        
        <path d="M 20 5 Q 8 5 8 15 Q 8 25 20 25 Q 32 25 32 15 Q 32 5 20 5 Z" fill="#FFD8B0" stroke="#C86B1F" stroke-width="1.8" stroke-linejoin="round" />
        
        <circle cx="14" cy="13" r="3" fill="#FFC890" stroke="#C86B1F" stroke-width="1.2" />
        <circle cx="26" cy="17" r="3" fill="#FFC890" stroke="#C86B1F" stroke-width="1.2" />
    </symbol>
<symbol id="bioicons_endocytosis" viewBox="0 0 237.506 222.047" overflow="visible">
<defs><clipPath clipPathUnits="userSpaceOnUse" id="bioicons_endocytosis__a"><path d="M-.48 5.597h237.217v222.185H-.48z" /></clipPath></defs><path clip-path="url(#bioicons_endocytosis__a)" d="M133.719 7.435C71.796.76 39.336 39.096 32.98 46.412 18.829 62.042 9.194 81.59 6.636 103.177c-3.158 25.145 3.918 48.251 17.79 66.84.679.96 1.358 1.919 2.158 2.878 2.838 3.118 6.116 1.6 7.595.8 1.76-.96 3.798-1.48 5.997-1.48 7.035 0 12.752 5.677 12.752 12.633 0 1.879-.4 3.518-1.08 5.157-2.038 4.597 0 6.116 1.48 7.195 1.479.96 2.838 1.76 4.357 2.559 14.911 8.994 32.02 14.831 50.09 17.15 32.86 4.037 64.76-6.796 89.066-27.584 9.234-8.714 32.06-26.224 37.897-66.72 7.315-59.203-41.815-107.854-101.019-115.17z" fill="#c7cde6" fill-rule="evenodd" fill-opacity="1" stroke="none" /><path d="M28.063 167.299c-11.553-15.79-17.55-33.7-17.55-52.609 0-3.677.16-7.315.68-10.993C13.672 83.87 22.346 65.081 36.458 49.49c0-.16.28-.44.28-.44 24.425-27.983 58.484-41.175 96.381-37.097 31.221 3.957 59.604 19.588 77.793 42.974 13.032 16.71 19.788 35.858 19.788 55.846 0 3.798-.24 7.475-.68 11.273-5.156 35.459-23.865 52.448-33.899 61.403 0 0-2.199 2.039-2.478 2.318-24.026 20.508-55.087 30.142-85.389 26.504-17.07-2.198-33.78-7.875-48.29-16.47-1.36-.8-4.518-2.838-2.999-6.796.4-1.359-4.477.44-4.357-1.079 1.24-12.352-7.595-17.11-16.15-15.35-1.64.28.28-4.878-1.36-4.358-1.478.56-4.357 2.039-7.035-.92z" fill="#8f98c7" fill-rule="evenodd" fill-opacity="1" stroke="none" /><path clip-path="url(#bioicons_endocytosis__a)" d="M133.719 7.435C71.796.76 39.336 39.096 32.98 46.412 18.829 62.042 9.194 81.59 6.636 103.177c-3.158 25.145 3.918 48.251 17.79 66.84.679.96 1.358 1.919 2.158 2.878 2.838 3.118 6.116 1.6 7.595.8 1.76-.96 3.798-1.48 5.997-1.48 7.035 0 12.752 5.677 12.752 12.633 0 1.879-.4 3.518-1.08 5.157-2.038 4.597 0 6.116 1.48 7.195 1.479.96 2.838 1.76 4.357 2.559 14.911 8.994 32.02 14.831 50.09 17.15 32.86 4.037 64.76-6.796 89.066-27.584 9.234-8.714 32.06-26.224 37.897-66.72 7.315-59.203-41.815-107.854-101.019-115.17" fill="none" stroke="#433b41" stroke-width=".79951543px" stroke-linecap="round" stroke-linejoin="round" stroke-miterlimit="4" stroke-dasharray="none" stroke-opacity="1" /><path d="M35.099 168.218c-1.48.56-4.358 2.039-7.036-.92-11.553-15.79-17.55-33.699-17.55-52.608 0-3.677.16-7.315.68-10.993C13.672 83.87 22.346 65.081 36.458 49.49c0-.16.28-.44.28-.44 24.425-27.983 58.484-41.175 96.381-37.097 31.221 3.957 59.604 19.588 77.793 42.974 13.032 16.71 19.788 35.858 19.788 55.846 0 3.798-.24 7.475-.68 11.273-5.156 35.459-23.865 52.448-33.899 61.403 0 0-2.199 2.039-2.478 2.318-24.026 20.508-55.087 30.142-85.389 26.504-17.07-2.198-33.78-7.875-48.29-16.47-1.36-.8-4.518-2.838-2.999-6.796" fill="none" stroke="#433b41" stroke-width=".63961238px" stroke-linecap="round" stroke-linejoin="round" stroke-miterlimit="4" stroke-dasharray="none" stroke-opacity="1" /><path d="M51.809 190.005c-2.04 4.597 0 6.116 1.479 7.195 1.519.96 2.878 1.76 4.357 2.559l2.319-3.918c-.68-.4-1.76-1.079-2.599-2.318-2.718-4.877 2.878-4.078 2.878-4.078 13.592 0 24.706-11.153 24.706-24.745 0-13.712-11.114-24.745-24.706-24.745A24.687 24.687 0 0 0 35.498 164.7c.68 4.917-4.077 4.358-4.077 4.358-1.08-.12-2.319-.56-3.398-1.76l-3.678 2.719c.68.96 1.36 1.879 2.199 2.838 2.838 3.118 6.116 1.64 7.595.84 6.396-3.278 5.597-8.995 5.597-8.995 0-11.273 9.074-20.507 20.507-20.507 11.274 0 20.508 9.234 20.508 20.507 0 11.273-9.234 20.548-20.508 20.548 0 0-6.116-.28-8.434 4.757z" fill="#c7cde6" fill-rule="evenodd" fill-opacity="1" stroke="none" /><path d="M59.964 195.761c-.68-.4-1.76-1.079-2.559-2.278-2.718-4.917 2.838-4.078 2.838-4.078 13.592 0 24.706-11.153 24.706-24.705 0-13.712-11.114-24.745-24.706-24.745A24.687 24.687 0 0 0 35.498 164.7c.68 4.877-4.077 4.318-4.077 4.318-1.08-.12-2.279-.52-3.398-1.76" fill="none" stroke="#433b41" stroke-width=".63961238px" stroke-linecap="round" stroke-linejoin="round" stroke-miterlimit="4" stroke-dasharray="none" stroke-opacity="1" /><path d="M24.345 169.977c.68.96 1.36 1.919 2.199 2.878 2.838 3.118 6.076 1.6 7.595.8 6.356-3.278 5.557-8.995 5.557-8.995 0-11.273 9.074-20.547 20.468-20.547 11.273 0 20.467 9.274 20.467 20.547 0 11.313-9.194 20.548-20.467 20.548 0 0-6.117-.28-8.395 4.757-2.04 4.637 0 6.156 1.479 7.235 1.479.96 2.838 1.76 4.357 2.559" fill="none" stroke="#433b41" stroke-width=".79951543px" stroke-linecap="round" stroke-linejoin="round" stroke-miterlimit="4" stroke-dasharray="none" stroke-opacity="1" /><path d="M105.416 97.9c0-15.47 12.592-28.062 28.063-28.062 15.51 0 28.063 12.592 28.063 28.063 0 15.51-12.552 28.063-28.063 28.063-15.47 0-28.063-12.553-28.063-28.063z" fill="#c7cde6" fill-rule="evenodd" fill-opacity="1" stroke="none" /><path d="M109.094 97.82c0-13.391 10.953-24.305 24.425-24.305 13.512 0 24.425 10.914 24.425 24.306 0 13.432-10.913 24.305-24.425 24.305-13.472 0-24.425-10.873-24.425-24.305z" fill="#8f98c7" fill-rule="evenodd" fill-opacity="1" stroke="none" /><path d="M105.456 97.94c0-15.47 12.592-28.062 28.063-28.062 15.51 0 28.063 12.592 28.063 28.063 0 15.51-12.552 28.063-28.063 28.063-15.47 0-28.063-12.553-28.063-28.063" fill="none" stroke="#433b41" stroke-width="1.0393701px" stroke-linecap="round" stroke-linejoin="round" stroke-miterlimit="4" stroke-dasharray="none" stroke-opacity="1" /><path d="M109.094 97.82c0-13.391 10.953-24.305 24.425-24.305 13.512 0 24.425 10.914 24.425 24.306 0 13.432-10.913 24.305-24.425 24.305-13.472 0-24.425-10.873-24.425-24.305" fill="none" stroke="#433b41" stroke-width=".63961238px" stroke-linecap="round" stroke-linejoin="round" stroke-miterlimit="4" stroke-dasharray="none" stroke-opacity="1" /><path d="M134.279 82.83c0-2.639 2.198-4.837 4.837-4.837 2.678 0 4.837 2.198 4.837 4.837a4.828 4.828 0 0 1-4.837 4.837c-2.639 0-4.837-2.159-4.837-4.837z" fill="#ee7f1b" fill-rule="evenodd" fill-opacity="1" stroke="none" /><path d="M134.279 82.83c0-2.639 2.198-4.837 4.837-4.837 2.678 0 4.837 2.198 4.837 4.837a4.828 4.828 0 0 1-4.837 4.837c-2.639 0-4.837-2.159-4.837-4.837" fill="none" stroke="#433b41" stroke-width=".15990309px" stroke-linecap="round" stroke-linejoin="round" stroke-miterlimit="4" stroke-dasharray="none" stroke-opacity="1" /><path d="M104.297 125.644 85.748 146.23l-1.839-1.679 18.549-20.587 1.839 1.679z" fill="#e85a20" fill-rule="evenodd" fill-opacity="1" stroke="none" /><path d="m98.34 122.326 10.434-3.438-2.279 10.594-8.155-7.156z" fill="#e85a20" fill-rule="evenodd" fill-opacity="1" stroke="none" /><path d="M127.803 89.706c0-2.639 2.158-4.837 4.797-4.837 2.678 0 4.797 2.198 4.797 4.837 0 2.678-2.119 4.837-4.797 4.837-2.639 0-4.797-2.159-4.797-4.837z" fill="#ee7f1b" fill-rule="evenodd" fill-opacity="1" stroke="none" /><path d="M127.803 89.706c0-2.639 2.158-4.837 4.797-4.837 2.678 0 4.797 2.198 4.797 4.837 0 2.678-2.119 4.837-4.797 4.837-2.639 0-4.797-2.159-4.797-4.837" fill="none" stroke="#433b41" stroke-width=".15990309px" stroke-linecap="round" stroke-linejoin="round" stroke-miterlimit="4" stroke-dasharray="none" stroke-opacity="1" /><path d="M128.922 107.335c0-2.638 2.199-4.797 4.837-4.797 2.678 0 4.837 2.159 4.837 4.797 0 2.678-2.159 4.797-4.837 4.797-2.638 0-4.837-2.119-4.837-4.797z" fill="#ee7f1b" fill-rule="evenodd" fill-opacity="1" stroke="none" /><path d="M128.922 107.335c0-2.638 2.199-4.797 4.837-4.797 2.678 0 4.837 2.159 4.837 4.797 0 2.678-2.159 4.797-4.837 4.797-2.638 0-4.837-2.119-4.837-4.797" fill="none" stroke="#433b41" stroke-width=".15990309px" stroke-linecap="round" stroke-linejoin="round" stroke-miterlimit="4" stroke-dasharray="none" stroke-opacity="1" /><path d="M115.09 100.979c0-2.639 2.199-4.837 4.837-4.837 2.679 0 4.837 2.198 4.837 4.837a4.828 4.828 0 0 1-4.837 4.837c-2.638 0-4.837-2.159-4.837-4.837z" fill="#ee7f1b" fill-rule="evenodd" fill-opacity="1" stroke="none" /><path d="M115.09 100.979c0-2.639 2.199-4.837 4.837-4.837 2.679 0 4.837 2.198 4.837 4.837a4.828 4.828 0 0 1-4.837 4.837c-2.638 0-4.837-2.159-4.837-4.837" fill="none" stroke="#433b41" stroke-width=".15990309px" stroke-linecap="round" stroke-linejoin="round" stroke-miterlimit="4" stroke-dasharray="none" stroke-opacity="1" /><path d="M142.274 100.34c0-2.64 2.198-4.838 4.837-4.838 2.678 0 4.837 2.199 4.837 4.837a4.828 4.828 0 0 1-4.837 4.837c-2.639 0-4.837-2.158-4.837-4.837z" fill="#ee7f1b" fill-rule="evenodd" fill-opacity="1" stroke="none" /><path d="M142.274 100.34c0-2.64 2.198-4.838 4.837-4.838 2.678 0 4.837 2.199 4.837 4.837a4.828 4.828 0 0 1-4.837 4.837c-2.639 0-4.837-2.158-4.837-4.837" fill="none" stroke="#433b41" stroke-width=".15990309px" stroke-linecap="round" stroke-linejoin="round" stroke-miterlimit="4" stroke-dasharray="none" stroke-opacity="1" /><path d="M57.605 160.942c0-2.638 2.199-4.837 4.837-4.837 2.679 0 4.837 2.2 4.837 4.837a4.828 4.828 0 0 1-4.837 4.838c-2.638 0-4.837-2.16-4.837-4.838z" fill="#ee7f1b" fill-rule="evenodd" fill-opacity="1" stroke="none" /><path d="M57.605 160.942c0-2.638 2.199-4.837 4.837-4.837 2.679 0 4.837 2.2 4.837 4.837a4.828 4.828 0 0 1-4.837 4.838c-2.638 0-4.837-2.16-4.837-4.838" fill="none" stroke="#433b41" stroke-width=".15990309px" stroke-linecap="round" stroke-linejoin="round" stroke-miterlimit="4" stroke-dasharray="none" stroke-opacity="1" /><path d="M59.444 174.774c0-2.638 2.199-4.837 4.837-4.837 2.678 0 4.837 2.199 4.837 4.837a4.828 4.828 0 0 1-4.837 4.837c-2.638 0-4.837-2.159-4.837-4.837z" fill="#ee7f1b" fill-rule="evenodd" fill-opacity="1" stroke="none" /><path d="M59.444 174.774c0-2.638 2.199-4.837 4.837-4.837 2.678 0 4.837 2.199 4.837 4.837a4.828 4.828 0 0 1-4.837 4.837c-2.638 0-4.837-2.159-4.837-4.837" fill="none" stroke="#433b41" stroke-width=".15990309px" stroke-linecap="round" stroke-linejoin="round" stroke-miterlimit="4" stroke-dasharray="none" stroke-opacity="1" /><path d="M.2 191.124c0-2.638 2.199-4.797 4.837-4.797 2.678 0 4.837 2.159 4.837 4.797 0 2.679-2.159 4.797-4.837 4.797-2.638 0-4.837-2.118-4.837-4.797z" fill="#ee7f1b" fill-rule="evenodd" fill-opacity="1" stroke="none" /><path d="M.2 191.124c0-2.638 2.199-4.797 4.837-4.797 2.678 0 4.837 2.159 4.837 4.797 0 2.679-2.159 4.797-4.837 4.797-2.638 0-4.837-2.118-4.837-4.797" fill="none" stroke="#433b41" stroke-width=".15990309px" stroke-linecap="round" stroke-linejoin="round" stroke-miterlimit="4" stroke-dasharray="none" stroke-opacity="1" /><path d="M29.142 222.105c0-2.638 2.199-4.837 4.837-4.837 2.679 0 4.837 2.199 4.837 4.837a4.828 4.828 0 0 1-4.837 4.837c-2.638 0-4.837-2.158-4.837-4.837z" fill="#ee7f1b" fill-rule="evenodd" fill-opacity="1" stroke="none" /><path d="M29.142 222.105c0-2.638 2.199-4.837 4.837-4.837 2.679 0 4.837 2.199 4.837 4.837a4.828 4.828 0 0 1-4.837 4.837c-2.638 0-4.837-2.158-4.837-4.837" fill="none" stroke="#433b41" stroke-width=".15990309px" stroke-linecap="round" stroke-linejoin="round" stroke-miterlimit="4" stroke-dasharray="none" stroke-opacity="1" /><path d="M6.036 211.952c0-2.639 2.159-4.838 4.797-4.838 2.679 0 4.798 2.2 4.798 4.838 0 2.678-2.12 4.837-4.798 4.837-2.638 0-4.797-2.16-4.797-4.837z" fill="#ee7f1b" fill-rule="evenodd" fill-opacity="1" stroke="none" /><path d="M6.036 211.952c0-2.639 2.159-4.838 4.797-4.838 2.679 0 4.798 2.2 4.798 4.838 0 2.678-2.12 4.837-4.798 4.837-2.638 0-4.797-2.16-4.797-4.837" fill="none" stroke="#433b41" stroke-width=".15990309px" stroke-linecap="round" stroke-linejoin="round" stroke-miterlimit="4" stroke-dasharray="none" stroke-opacity="1" /><path d="M36.978 183.289c0-2.638 2.198-4.797 4.837-4.797 2.678 0 4.837 2.159 4.837 4.797 0 2.678-2.159 4.797-4.837 4.797-2.639 0-4.837-2.119-4.837-4.797z" fill="#ee7f1b" fill-rule="evenodd" fill-opacity="1" stroke="none" /><path d="M36.978 183.289c0-2.638 2.198-4.797 4.837-4.797 2.678 0 4.837 2.159 4.837 4.797 0 2.678-2.159 4.797-4.837 4.797-2.639 0-4.837-2.119-4.837-4.797" fill="none" stroke="#433b41" stroke-width=".15990309px" stroke-linecap="round" stroke-linejoin="round" stroke-miterlimit="4" stroke-dasharray="none" stroke-opacity="1" /><path d="M45.452 176.773c0-2.639 2.2-4.837 4.838-4.837 2.678 0 4.837 2.198 4.837 4.837a4.828 4.828 0 0 1-4.837 4.837c-2.639 0-4.838-2.159-4.838-4.837z" fill="#ee7f1b" fill-rule="evenodd" fill-opacity="1" stroke="none" /><path d="M45.452 176.773c0-2.639 2.2-4.837 4.838-4.837 2.678 0 4.837 2.198 4.837 4.837a4.828 4.828 0 0 1-4.837 4.837c-2.639 0-4.838-2.159-4.838-4.837" fill="none" stroke="#433b41" stroke-width=".15990309px" stroke-linecap="round" stroke-linejoin="round" stroke-miterlimit="4" stroke-dasharray="none" stroke-opacity="1" /><path d="M48.49 157.305c0-2.639 2.2-4.797 4.838-4.797 2.678 0 4.837 2.158 4.837 4.797 0 2.678-2.159 4.797-4.837 4.797-2.639 0-4.837-2.119-4.837-4.797z" fill="#ee7f1b" fill-rule="evenodd" fill-opacity="1" stroke="none" /><path d="M48.49 157.305c0-2.639 2.2-4.797 4.838-4.797 2.678 0 4.837 2.158 4.837 4.797 0 2.678-2.159 4.797-4.837 4.797-2.639 0-4.837-2.119-4.837-4.797" fill="none" stroke="#433b41" stroke-width=".15990309px" stroke-linecap="round" stroke-linejoin="round" stroke-miterlimit="4" stroke-dasharray="none" stroke-opacity="1" /><path d="M21.627 201.278c0-2.638 2.199-4.797 4.837-4.797 2.678 0 4.837 2.159 4.837 4.797 0 2.678-2.159 4.797-4.837 4.797-2.638 0-4.837-2.119-4.837-4.797z" fill="#ee7f1b" fill-rule="evenodd" fill-opacity="1" stroke="none" /><path d="M21.627 201.278c0-2.638 2.199-4.797 4.837-4.797 2.678 0 4.837 2.159 4.837 4.797 0 2.678-2.159 4.797-4.837 4.797-2.638 0-4.837-2.119-4.837-4.797" fill="none" stroke="#433b41" stroke-width=".15990309px" stroke-linecap="round" stroke-linejoin="round" stroke-miterlimit="4" stroke-dasharray="none" stroke-opacity="1" /><path d="M24.665 185.647c0-2.638 2.199-4.837 4.837-4.837 2.678 0 4.837 2.2 4.837 4.837a4.828 4.828 0 0 1-4.837 4.838c-2.638 0-4.837-2.16-4.837-4.838z" fill="#ee7f1b" fill-rule="evenodd" fill-opacity="1" stroke="none" /><path d="M24.665 185.647c0-2.638 2.199-4.837 4.837-4.837 2.678 0 4.837 2.2 4.837 4.837a4.828 4.828 0 0 1-4.837 4.838c-2.638 0-4.837-2.16-4.837-4.838" fill="none" stroke="#433b41" stroke-width=".15990309px" stroke-linecap="round" stroke-linejoin="round" stroke-miterlimit="4" stroke-dasharray="none" stroke-opacity="1" /><path d="M66.96 159.663c0-2.638 2.198-4.837 4.836-4.837 2.679 0 4.838 2.199 4.838 4.837a4.828 4.828 0 0 1-4.838 4.837c-2.638 0-4.837-2.158-4.837-4.837z" fill="#ee7f1b" fill-rule="evenodd" fill-opacity="1" stroke="none" /><path d="M66.96 159.663c0-2.638 2.198-4.837 4.836-4.837 2.679 0 4.838 2.199 4.838 4.837a4.828 4.828 0 0 1-4.838 4.837c-2.638 0-4.837-2.158-4.837-4.837" fill="none" stroke="#433b41" stroke-width=".15990309px" stroke-linecap="round" stroke-linejoin="round" stroke-miterlimit="4" stroke-dasharray="none" stroke-opacity="1" /><path d="M30.502 191.644c0-2.639 2.198-4.837 4.837-4.837 2.678 0 4.837 2.198 4.837 4.837a4.828 4.828 0 0 1-4.837 4.837c-2.639 0-4.837-2.159-4.837-4.837z" fill="#ee7f1b" fill-rule="evenodd" fill-opacity="1" stroke="none" /><path d="M30.502 191.644c0-2.639 2.198-4.837 4.837-4.837 2.678 0 4.837 2.198 4.837 4.837a4.828 4.828 0 0 1-4.837 4.837c-2.639 0-4.837-2.159-4.837-4.837" fill="none" stroke="#433b41" stroke-width=".15990309px" stroke-linecap="round" stroke-linejoin="round" stroke-miterlimit="4" stroke-dasharray="none" stroke-opacity="1" />
</symbol>
<symbol id="rtk" viewBox="0 0 60 100" overflow="visible">
        <rect x="10" y="5" width="40" height="32" rx="4" fill="#A8C5E2" stroke="#3A5F7F" stroke-width="2" />
        <rect x="22" y="37" width="16" height="22" fill="#A8C5E2" stroke="#3A5F7F" stroke-width="2" />
        <ellipse cx="30" cy="78" rx="22" ry="16" fill="#B5D4A8" stroke="#4A7A3F" stroke-width="2" />
        <text x="30" y="83" text-anchor="middle" font-family="Helvetica, Arial, sans-serif" font-size="11" fill="#4A7A3F" font-weight="bold">K</text>
    </symbol>
<symbol id="bioicons_ribosome" viewBox="0 0 642.482 426.482" overflow="visible">
<defs><clipPath clipPathUnits="userSpaceOnUse" id="bioicons_ribosome__a"><path d="M2.239-.72h641.77v426.782H2.24z" /></clipPath><clipPath clipPathUnits="userSpaceOnUse" id="bioicons_ribosome__b"><path d="M223.864 159.903H378.97v167.898H223.864z" /></clipPath><clipPath clipPathUnits="userSpaceOnUse" id="bioicons_ribosome__c"><path d="M283.028 39.976h38.617v39.976h-38.617z" /></clipPath><clipPath clipPathUnits="userSpaceOnUse" id="bioicons_ribosome__d"><path d="M283.028 119.927h38.617v39.976h-38.617z" /></clipPath><clipPath clipPathUnits="userSpaceOnUse" id="bioicons_ribosome__e"><path d="M283.028 0h38.617v39.976h-38.617z" /></clipPath><clipPath clipPathUnits="userSpaceOnUse" id="bioicons_ribosome__f"><path d="M283.028 79.952h38.617v39.975h-38.617z" /></clipPath></defs><path d="M392.362 330c28.743-2.239 52.049 10.674 32.06 33.74-22.905 24.465-69.957 43.973-124.084 43.973-74.155 0-109.134-45.293-118.288-63.042-4.198-8.914-.84-13.792 3.717-15.11 4.997-1.32 9.994.439 21.667 6.675 22.507 12.433 52.089 16.87 80.392 17.31 18.748.44 38.336-2.239 56.645-7.995 3.758-1.32 32.9-14.232 47.891-15.551z" fill="#f96d87" fill-rule="evenodd" fill-opacity="1" stroke="none" /><path d="M424.503 338.715c1.239 4.917-.84 11.153-7.076 18.269-22.067 24.025-68.319 41.814-120.407 41.814-63.282 0-96.621-34.259-109.973-53.847 9.594 17.35 43.333 60.044 113.73 60.044 52.09 0 98.341-17.79 120.408-41.335 9.554-11.154 9.154-19.589 3.318-24.945z" fill="#ef2e5d" fill-rule="evenodd" fill-opacity="1" stroke="none" /><path d="M221.186 347.27c17.91 6.196 73.715 20.907 124.085 3.997 49.97-16.95 46.212-20.068 72.436-15.15-6.636-.44-37.857 8.474-55.766 16.47-15.431 6.675-74.115 23.145-140.755-5.317z" fill="#fbb8c0" fill-rule="evenodd" fill-opacity="1" stroke="none" /><path d="M392.362 330c28.743-2.239 52.049 10.674 32.06 33.74-22.905 24.465-69.957 43.973-124.084 43.973-74.155 0-109.134-45.293-118.288-63.042-4.198-8.914-.84-13.792 3.717-15.11 4.997-1.32 9.994.439 21.667 6.675 22.507 12.433 52.089 16.87 80.392 17.31 18.748.44 38.336-2.239 56.645-7.995 3.758-1.32 32.9-14.232 47.891-15.551" fill="none" stroke="#333" stroke-width=".79951543px" stroke-linecap="round" stroke-linejoin="miter" stroke-miterlimit="8" stroke-dasharray="none" stroke-opacity="1" /><path d="M123.085 334.397v25.345h23.666v-25.345h-23.666z" fill="#fa002e" fill-rule="evenodd" fill-opacity="1" stroke="none" /><path d="M3.158 334.397v25.345h119.927v-25.345H3.158z" fill="#e6e6e6" fill-rule="evenodd" fill-opacity="1" stroke="none" /><path d="M146.751 334.397v25.345h23.826v-25.345H146.75z" fill="#17067a" fill-rule="evenodd" fill-opacity="1" stroke="none" /><path d="M170.577 334.397v25.345h23.665v-25.345h-23.665z" fill="#ff0" fill-rule="evenodd" fill-opacity="1" stroke="none" /><path d="M194.242 334.397v25.345h23.266v-25.345h-23.266z" fill="#fa002e" fill-rule="evenodd" fill-opacity="1" stroke="none" /><path d="M217.508 334.397v25.345h23.826v-25.345h-23.826zM241.334 334.397v25.345h23.665v-25.345h-23.665zM265 334.397v25.345h23.345v-25.345H265z" fill="#4bbac5" fill-rule="evenodd" fill-opacity="1" stroke="none" /><path d="M288.345 334.397v25.345h23.826v-25.345h-23.826z" fill="#fa002e" fill-rule="evenodd" fill-opacity="1" stroke="none" /><path d="M312.17 334.397v25.345h23.587v-25.345H312.17z" fill="#4bbac5" fill-rule="evenodd" fill-opacity="1" stroke="none" /><path d="M335.757 334.397v25.345h23.345v-25.345h-23.345z" fill="#ff0" fill-rule="evenodd" fill-opacity="1" stroke="none" /><path d="M359.102 334.397v25.345h23.826v-25.345h-23.826z" fill="#17067a" fill-rule="evenodd" fill-opacity="1" stroke="none" /><path d="M382.928 334.397v25.345h23.666v-25.345h-23.666z" fill="#ff0" fill-rule="evenodd" fill-opacity="1" stroke="none" /><path d="M406.594 334.397v25.345h23.345v-25.345h-23.345zM429.94 334.397v25.345h23.745v-25.345h-23.746z" fill="#ff0" fill-rule="evenodd" fill-opacity="1" stroke="none" /><path d="M453.685 334.397v25.345h23.666v-25.345h-23.666z" fill="#17067a" fill-rule="evenodd" fill-opacity="1" stroke="none" /><path d="M477.35 334.397v25.345h23.347v-25.345H477.35z" fill="#ff0" fill-rule="evenodd" fill-opacity="1" stroke="none" /><path d="M500.697 334.397v25.345h23.825v-25.345h-23.825z" fill="#fa002e" fill-rule="evenodd" fill-opacity="1" stroke="none" /><path d="M524.522 334.397v25.345H642.77v-25.345H524.522z" fill="#e6e6e6" fill-rule="evenodd" fill-opacity="1" stroke="none" /><path d="M124.285 344.551v-9.354h9.994l-8.315 1.839-1.68 7.515z" fill="#fff" fill-rule="evenodd" fill-opacity="1" stroke="none" /><path d="M121.726 349.028v9.355h-9.994l8.335-1.82 1.66-7.535zM640.612 349.028v9.355h-9.994l8.355-1.8 1.639-7.555z" fill="#b5b5b5" fill-rule="evenodd" fill-opacity="1" stroke="none" /><path d="M5.637 344.551v-9.354h9.994l-8.315 1.839-1.68 7.515zM148.11 344.551v-9.354h9.994l-8.315 1.839-1.679 7.515zM172.256 344.551v-9.354h9.994l-8.815 1.839-1.18 7.515zM195.522 344.551v-9.354h9.993l-8.315 1.839-1.678 7.515zM218.867 344.551v-9.354h9.994l-8.315 1.839-1.679 7.515zM242.213 344.551v-9.354h9.994l-8.315 1.839-1.679 7.515zM266.359 344.551v-9.354h9.994l-8.315 1.839-1.68 7.515zM289.624 344.551v-9.354h9.994l-8.315 1.839-1.679 7.515zM313.77 344.551v-9.354h9.994l-8.315 1.839-1.68 7.515zM337.116 344.551v-9.354h9.994l-8.315 1.839-1.68 7.515zM361.261 344.551v-9.354h9.994l-8.315 1.839-1.679 7.515zM384.607 344.551v-9.354h9.994l-8.315 1.839-1.68 7.515zM408.752 344.551v-9.354h9.994l-8.315 1.839-1.679 7.515zM432.098 344.551v-9.354h9.994l-8.315 1.839-1.679 7.515zM456.243 344.551v-9.354h9.994l-8.315 1.839-1.679 7.515zM479.51 344.551v-9.354h9.993l-8.315 1.839-1.679 7.515zM502.376 344.551v-9.354h9.993l-8.314 1.839-1.68 7.515z" fill="#fff" fill-rule="evenodd" fill-opacity="1" stroke="none" /><path d="M523.163 349.028v9.355h-9.994l8.355-1.8 1.639-7.555z" fill="#de0000" fill-rule="evenodd" fill-opacity="1" stroke="none" /><path d="M499.897 349.028v9.355h-9.994l8.355-1.8 1.639-7.555z" fill="#ffd600" fill-rule="evenodd" fill-opacity="1" stroke="none" /><path d="M475.672 349.028v9.355h-9.994l8.355-1.8 1.639-7.555z" fill="#060022" fill-rule="evenodd" fill-opacity="1" stroke="none" /><path d="M452.406 349.028v9.355h-9.994l8.355-1.8 1.639-7.555zM429.06 349.028v9.355h-9.994l8.355-1.8 1.639-7.555zM405.394 349.028v9.355H395.4l8.675-1.8 1.32-7.555z" fill="#ffd600" fill-rule="evenodd" fill-opacity="1" stroke="none" /><path d="M381.569 349.028v9.355h-9.994l8.355-1.8 1.639-7.555z" fill="#060022" fill-rule="evenodd" fill-opacity="1" stroke="none" /><path d="M357.983 349.028v9.355h-9.994l8.675-1.8 1.319-7.555z" fill="#ffd600" fill-rule="evenodd" fill-opacity="1" stroke="none" /><path d="M334.157 349.028v9.355h-9.993l8.334-1.82 1.66-7.535z" fill="#018699" fill-rule="evenodd" fill-opacity="1" stroke="none" /><path d="M310.492 349.028v9.355h-9.994l8.675-1.82 1.319-7.535z" fill="#de0000" fill-rule="evenodd" fill-opacity="1" stroke="none" /><path d="M286.666 349.028v9.355h-9.994l8.335-1.82 1.66-7.535zM263 349.028v9.355h-9.993l8.674-1.82 1.32-7.535zM239.175 349.028v9.355h-9.994l8.335-1.82 1.66-7.535z" fill="#018699" fill-rule="evenodd" fill-opacity="1" stroke="none" /><path d="M215.51 349.028v9.355h-9.995l8.675-1.82 1.32-7.535z" fill="#de0000" fill-rule="evenodd" fill-opacity="1" stroke="none" /><path d="M191.684 349.028v9.355h-9.994l8.335-1.82 1.659-7.535z" fill="#ffd600" fill-rule="evenodd" fill-opacity="1" stroke="none" /><path d="M168.098 349.028v9.355h-9.994l8.675-1.82 1.32-7.535z" fill="#060022" fill-rule="evenodd" fill-opacity="1" stroke="none" /><path d="M145.072 349.028v9.355h-9.994l8.835-1.82 1.16-7.535z" fill="#de0000" fill-rule="evenodd" fill-opacity="1" stroke="none" /><path d="M526.52 344.551v-9.354h9.995l-8.315 1.839-1.68 7.515z" fill="#fff" fill-rule="evenodd" fill-opacity="1" stroke="none" /><path d="M123.085 334.397h23.666v25.345h-23.666z" fill="none" stroke="#333" stroke-width=".79951543px" stroke-linecap="round" stroke-linejoin="miter" stroke-miterlimit="8" stroke-dasharray="none" stroke-opacity="1" /><path clip-path="url(#bioicons_ribosome__a)" d="M3.158 334.397h119.927v25.345H3.158z" fill="none" stroke="#333" stroke-width=".79951543px" stroke-linecap="round" stroke-linejoin="miter" stroke-miterlimit="8" stroke-dasharray="none" stroke-opacity="1" /><path d="M146.751 334.397h23.826v25.345H146.75zM170.577 334.397h23.665v25.345h-23.665zM194.242 334.397h23.266v25.345h-23.266zM217.508 334.397h23.826v25.345h-23.826zM241.334 334.397h23.665v25.345h-23.665zM265 334.397h23.345v25.345H265zM288.345 334.397h23.826v25.345h-23.826z" fill="none" stroke="#333" stroke-width=".79951543px" stroke-linecap="round" stroke-linejoin="miter" stroke-miterlimit="8" stroke-dasharray="none" stroke-opacity="1" /><path d="M312.17 334.397h23.587v25.345H312.17z" fill="none" stroke="#333" stroke-width=".79951543px" stroke-linecap="round" stroke-linejoin="miter" stroke-miterlimit="8" stroke-dasharray="none" stroke-opacity="1" /><path d="M335.757 334.397h23.345v25.345h-23.345zM359.102 334.397h23.826v25.345h-23.826zM382.928 334.397h23.666v25.345h-23.666z" fill="none" stroke="#333" stroke-width=".79951543px" stroke-linecap="round" stroke-linejoin="miter" stroke-miterlimit="8" stroke-dasharray="none" stroke-opacity="1" /><path d="M406.594 334.397h23.345v25.345h-23.345zM429.94 334.397h23.745v25.345h-23.746zM453.685 334.397h23.666v25.345h-23.666z" fill="none" stroke="#333" stroke-width=".79951543px" stroke-linecap="round" stroke-linejoin="miter" stroke-miterlimit="8" stroke-dasharray="none" stroke-opacity="1" /><path d="M477.35 334.397h23.347v25.345H477.35zM500.697 334.397h23.825v25.345h-23.825z" fill="none" stroke="#333" stroke-width=".79951543px" stroke-linecap="round" stroke-linejoin="miter" stroke-miterlimit="8" stroke-dasharray="none" stroke-opacity="1" /><path clip-path="url(#bioicons_ribosome__a)" d="M524.522 334.397H642.77v25.345H524.522z" fill="none" stroke="#333" stroke-width=".79951543px" stroke-linecap="round" stroke-linejoin="miter" stroke-miterlimit="8" stroke-dasharray="none" stroke-opacity="1" /><path d="M175.374 254.965c2.518 62.203 62.482 79.073 119.128 79.952 56.645 1.32 121.206-27.543 135.757-75.074 14.152-47.532-12.472-111.933-59.564-123.925-64.96-16.03-195.321 23.066-195.321 119.047z" fill="#f96d87" fill-rule="evenodd" fill-opacity="1" stroke="none" /><path d="M372.814 139.475c40.416 16.91 62.482 74.635 49.17 117.69-13.751 46.171-76.633 74.594-131.6 73.275-20.827-.44-41.655-2.679-60.004-8.875 19.589 7.516 42.934 10.634 65.4 11.073 54.967.88 117.85-27.063 132.04-73.235 13.712-45.293-10.833-106.136-55.006-119.928z" fill="#ef2e5d" fill-rule="evenodd" fill-opacity="1" stroke="none" /><path d="M272.035 233.618c0-45.132 12.313-81.75 27.463-81.75 15.171 0 27.464 36.618 27.464 81.75 0 45.153-12.293 81.75-27.464 81.75-15.15 0-27.463-36.597-27.463-81.75z" fill="#f7285c" fill-rule="evenodd" fill-opacity="1" stroke="none" /><path d="M285.767 250.928c0-45.293 12.072-81.73 27.463-81.73 1.26 0 2.499 0 3.738.44-4.977-11.094-10.814-17.77-17.47-17.77-14.97 0-27.463 36.878-27.463 81.75 0 41.755 10.414 75.954 24.145 81.271-6.655-15.09-10.413-38.197-10.413-63.961z" fill="#e30144" fill-rule="evenodd" fill-opacity="1" stroke="none" /><path d="M342.432 228.342c.84-39.536 12.513-71.517 25.825-71.037 13.312 0 23.306 32.42 22.506 71.956-.84 39.976-12.512 71.477-25.824 71.477-13.352-.44-23.346-32.86-22.507-72.396z" fill="#f7285c" fill-rule="evenodd" fill-opacity="1" stroke="none" /><path d="M350.747 242.493c.84-39.496 12.513-71.437 25.865-70.997 2.478 0 4.557 1.32 6.636 3.118-3.718-10.673-9.155-17.31-14.991-17.31-13.312-.48-24.985 31.502-25.825 70.998-.44 32.38 5.837 59.883 15.83 68.758-4.996-12.832-7.914-32.82-7.515-54.567z" fill="#e30144" fill-rule="evenodd" fill-opacity="1" stroke="none" /><path d="M220.027 295.381c1.659 6.216 5.816 9.774 7.895 10.654 5.836 3.118 12.093 5.776 18.749 7.995 10.413 2.218 14.15-5.317 14.99-10.654 1.66-12.872 1.66-29.302-.84-46.632-5.396-39.096-20.407-69.298-33.719-67.059-13.332 1.759-19.588 35.519-14.171 74.615 1.679 11.533 4.177 21.747 7.096 31.081z" fill="#f7285c" fill-rule="evenodd" fill-opacity="1" stroke="none" /><path d="M232.959 305.955c-3.338-9.315-5.417-19.968-7.096-31.501-5.417-39.057.84-72.337 13.752-74.555h2.918c-4.997-7.096-10.414-11.093-15.41-10.194-13.353 1.779-19.609 35.499-14.172 74.535 1.659 11.553 4.157 21.747 7.076 31.061 1.679 6.216 5.836 9.774 7.915 10.654 1.679.879 3.758 2.218 5.836 3.098-.4-.88-.82-2.219-.82-3.098z" fill="#e30144" fill-rule="evenodd" fill-opacity="1" stroke="none" /><path d="M323.304 184.328c5.837 12.892 13.352 67.56-4.177 117.769 7.935-11.553 25.024-73.316 4.177-117.769z" fill="#ef2e5d" fill-rule="evenodd" fill-opacity="1" stroke="none" /><path d="M280.35 295.78c-6.676-12.412-17.51-66.559-2.918-117.608-7.096 11.993-17.95 72.356 2.918 117.609zM345.37 278.431c-5.396-12.872-11.632-68.858 7.896-113.291-9.135 13.332-24.945 63.102-7.895 113.291z" fill="#fac7cc" fill-rule="evenodd" fill-opacity="1" stroke="none" /><path d="M386.925 179.451c5.837 11.553 13.312 60.444-4.157 105.296 7.915-10.193 24.945-65.72 4.158-105.296z" fill="#ef2e5d" fill-rule="evenodd" fill-opacity="1" stroke="none" /><path d="M217.508 193.123c-4.577 9.794-13.312 34.699-4.157 79.152-5.397-14.671-14.152-56.906 4.157-79.152z" fill="#fac7cc" fill-rule="evenodd" fill-opacity="1" stroke="none" /><path d="M369.416 138.556c0 .48 0 0 0 0zm-191.564 116.01c1.68 36.418 23.746 56.885 52.888 67.519-25.784-11.553-44.973-31.101-46.212-64.84 0-88.907 107.855-130.242 172.815-120.888-65.8-9.354-179.49 29.782-179.49 118.209z" fill="#fbb8c0" fill-rule="evenodd" fill-opacity="1" stroke="none" /><path d="M259.643 309.113c.4-1.34.4-3.118.4-4.897-5.397 5.336-10.394 3.118-17.07 1.339-7.076-2.219-14.152-7.556-14.991-15.131l-7.915 4.457v.44c1.679 6.236 5.836 9.794 7.915 10.674 5.836 3.118 12.073 5.776 18.748 7.995 7.076 1.779 10.814-1.32 12.913-4.877zM290.404 294.901l-7.096 4.458c4.598 10.233 10.434 16.01 16.27 16.01 5.417 0 10.434-4.437 14.592-12.013-12.093 10.234-22.087-.88-23.766-8.455zM374.493 293.982c-13.352 7.076-21.307-11.553-22.147-19.548l-4.597 2.678c4.198 14.191 10.434 23.066 17.15 23.506 4.157 0 7.915-2.639 11.233-7.516-.4.44-.8.44-1.639.88z" fill="#e30144" fill-rule="evenodd" fill-opacity="1" stroke="none" /><path d="M395.72 205.116c1.68 6.676 2.119 38.256-4.637 57.805 2.119-5.317 9.674-34.66 4.637-57.805zM328.321 275.793c6.236-22.606 5.397-47.891 4.577-55.007.82 9.335 2.059 35.938-4.577 55.007zM260.042 234.138c2.08 3.998 10.394 30.582 5.817 54.927 1.659-6.196 4.977-30.102-5.817-54.927z" fill="#fff" fill-rule="evenodd" fill-opacity="1" stroke="none" /><path d="M253.646 219.427c4.597 6.676 15.031 42.614 10.434 82.99 2.918-7.975 8.755-47.472-10.434-82.99z" fill="#ef2e5d" fill-rule="evenodd" fill-opacity="1" stroke="none" /><path d="M175.374 254.965c2.518 62.203 62.482 79.073 119.128 79.952 56.645 1.32 121.206-27.543 135.757-75.074 14.152-47.532-12.472-111.933-59.564-123.925-64.96-16.03-195.321 23.066-195.321 119.047" fill="none" stroke="#333" stroke-width=".79951543px" stroke-linecap="round" stroke-linejoin="miter" stroke-miterlimit="8" stroke-dasharray="none" stroke-opacity="1" /><path d="M272.035 233.618c0-45.132 12.313-81.75 27.463-81.75 15.171 0 27.464 36.618 27.464 81.75 0 45.153-12.293 81.75-27.464 81.75-15.15 0-27.463-36.597-27.463-81.75M342.432 228.342c.84-39.536 12.513-71.517 25.825-71.037 13.312 0 23.306 32.42 22.506 71.956-.84 39.976-12.512 71.477-25.824 71.477-13.352-.44-23.346-32.86-22.507-72.396M220.027 295.381c1.659 6.216 5.816 9.774 7.895 10.654 5.836 3.118 12.093 5.776 18.749 7.995 10.413 2.218 14.15-5.317 14.99-10.654 1.66-12.872 1.66-29.302-.84-46.632-5.396-39.096-20.407-69.298-33.719-67.059-13.332 1.759-19.588 35.519-14.171 74.615 1.679 11.533 4.177 21.747 7.096 31.081" fill="none" stroke="#333" stroke-width=".79951543px" stroke-linecap="round" stroke-linejoin="miter" stroke-miterlimit="8" stroke-dasharray="none" stroke-opacity="1" /><path d="M362.98 255.845v31.98h279.83v-31.98H362.98z" fill="#ff9" fill-rule="evenodd" fill-opacity="1" stroke="none" /><path clip-path="url(#bioicons_ribosome__a)" d="M362.98 255.845h279.83v31.98H362.98z" fill="none" stroke="#7b879d" stroke-width="1.0393701px" stroke-linecap="butt" stroke-linejoin="miter" stroke-miterlimit="8" stroke-dasharray="none" stroke-opacity="1" /><path style="marker:none" transform="translate(389.194 279.71)" d="M0-15.301h228.132V4.498H0z" color-interpolation="sRGB" color-interpolation-filters="linearRGB" fill="#fff" stroke="none" stroke-dasharray="none" visibility="visible" display="inline" overflow="visible" enable-background="accumulate" clip-rule="nonzero" /><text xml:space="preserve" style="line-height:125%;text-align:start" transform="translate(389.194 279.71)" font-size="21.375px" font-style="normal" font-variant="normal" font-weight="400" font-stretch="Normal" letter-spacing="0" word-spacing="0" fill="#000" fill-opacity="1" stroke="none" font-family="Arial" text-anchor="start"><tspan x="0" y="0"><tspan dx="0" dy="0" fill="#7b879d" font-size="21.375px" font-style="normal" font-variant="normal" font-weight="400" font-stretch="Normal" font-family="Arial">Large ribosomal subunit</tspan></tspan></text><path d="M267.038 383.767v31.981h279.83v-31.98h-279.83z" fill="#ff9" fill-rule="evenodd" fill-opacity="1" stroke="none" /><path d="M267.038 383.767h279.83v31.981h-279.83z" fill="none" stroke="#7b879d" stroke-width="1.0393701px" stroke-linecap="butt" stroke-linejoin="miter" stroke-miterlimit="8" stroke-dasharray="none" stroke-opacity="1" /><path style="marker:none" transform="translate(293.892 407.633)" d="M0-15.562h226.911V.261H0z" color-interpolation="sRGB" color-interpolation-filters="linearRGB" fill="#fff" stroke="none" stroke-dasharray="none" visibility="visible" display="inline" overflow="visible" enable-background="accumulate" clip-rule="nonzero" /><text xml:space="preserve" style="line-height:125%;text-align:start" transform="translate(293.892 407.633)" font-size="21.375px" font-style="normal" font-variant="normal" font-weight="400" font-stretch="Normal" letter-spacing="0" word-spacing="0" fill="#000" fill-opacity="1" stroke="none" font-family="Arial" text-anchor="start"><tspan x="0" y="0"><tspan dx="0" dy="0" fill="#7b879d" font-size="21.375px" font-style="normal" font-variant="normal" font-weight="400" font-stretch="Normal" font-family="Arial">Small ribosomal subunit</tspan></tspan></text>
</symbol>
</defs>
  <defs>
    <marker id="arrowhead" viewBox="0 0 10 10" refX="5" refY="5" markerWidth="6" markerHeight="6" orient="auto-start-reverse">
      <path d="M 0 0 L 10 5 L 0 10 z" fill="#333" />
    </marker>
  </defs>

  <g id="figure_title">
    <text x="1000" y="38" font-family="Helvetica, Arial, sans-serif" font-size="26" font-weight="bold" fill="#1a1a1a" text-anchor="middle">Receptor endocytosis → transcription → translation</text>
  </g>

  <g id="compartment_labels">
    <text x="1000" y="150" font-family="Helvetica, Arial, sans-serif" font-size="20" fill="#666666" text-anchor="middle">Extracellular</text>
    <text x="1000" y="470" font-family="Helvetica, Arial, sans-serif" font-size="20" fill="#666666" text-anchor="middle">Cytoplasm</text>
  </g>

  <g id="cell_membrane">
    <line x1="0" y1="380" x2="2000" y2="380" stroke="#888" stroke-width="2" />
    <line x1="0" y1="400" x2="2000" y2="400" stroke="#888" stroke-width="2" />
  </g>

  <g id="ligand_binding_rtk">
    <use href="#ligand" x="200" y="300" width="40" height="30" />
    <text x="220" y="280" font-family="Helvetica, Arial, sans-serif" font-size="16" fill="#1a1a1a" text-anchor="middle">EGF</text>
    <use href="#rtk" x="190" y="330" width="60" height="100" />
    <text x="220" y="320" font-family="Helvetica, Arial, sans-serif" font-size="16" fill="#1a1a1a" text-anchor="middle">EGFR</text>
    
    <path d="M 220 330 V 355" stroke="#333" stroke-width="2.5" marker-end="url(#arrowhead)" fill="none" />
  </g>

  <g id="internalization_step">
    <use href="#bioicons_endocytosis" x="450" y="300" width="238" height="222" />
    <text x="569" y="550" font-family="Helvetica, Arial, sans-serif" font-size="16" fill="#1a1a1a" text-anchor="middle">Endocytosis</text>

    
    <path d="M 220 420 C 280 440, 400 450, 480 450" stroke="#333" stroke-width="2.5" marker-end="url(#arrowhead)" fill="none" />
    <text x="350" y="460" font-family="Helvetica, Arial, sans-serif" font-size="14" fill="#666666" text-anchor="middle">Activation &amp; Internalization</text>
  </g>

  <g id="signal_to_nucleus">
    <use href="#nucleus" x="150" y="550" width="200" height="150" />
    <text x="250" y="625" font-family="Helvetica, Arial, sans-serif" font-size="16" fill="#1a1a1a" text-anchor="middle">Nucleus</text>

    
    <path d="M 480 450 C 400 500, 300 550, 250 580" stroke="#333" stroke-width="2.5" marker-end="url(#arrowhead)" fill="none" />
    <text x="370" y="520" font-family="Helvetica, Arial, sans-serif" font-size="14" fill="#666666" text-anchor="middle">Signal Transduction</text>
  </g>

  <g id="gene_expression">
    <use href="#transcription_factor" x="220" y="620" width="60" height="50" />
    <text x="250" y="610" font-family="Helvetica, Arial, sans-serif" font-size="16" fill="#1a1a1a" text-anchor="middle">Egr-1</text>
    <rect x="200" y="680" width="100" height="20" rx="5" fill="#e0e0e0" stroke="#666" />
    <text x="250" y="695" font-family="Helvetica, Arial, sans-serif" font-size="14" fill="#1a1a1a" text-anchor="middle">Target Gene</text>

    
    <path d="M 250 670 V 680" stroke="#333" stroke-width="2.5" marker-end="url(#arrowhead)" fill="none" />

    
    <path d="M 350 670 C 380 670, 380 730, 350 730" stroke="#333" stroke-width="2.5" marker-end="url(#arrowhead)" fill="none" />
    <text x="380" y="700" font-family="Helvetica, Arial, sans-serif" font-size="14" fill="#666666" text-anchor="start">mRNA</text>
  </g>

  <g id="protein_translation">
    
    <use href="#bioicons_ribosome" x="850" y="580" width="385" height="255" />
    <text x="1042" y="870" font-family="Helvetica, Arial, sans-serif" font-size="16" fill="#1a1a1a" text-anchor="middle">EGR1 target protein</text>

    
    <path d="M 350 730 C 500 730, 700 730, 850 700" stroke="#333" stroke-width="2.5" marker-end="url(#arrowhead)" fill="none" />
    <text x="600" y="700" font-family="Helvetica, Arial, sans-serif" font-size="14" fill="#666666" text-anchor="middle">Translation</text>
  </g>
</svg>