<svg xmlns="http://www.w3.org/2000/svg" viewBox="0 0 1800 900"><defs>
<symbol id="bioicons_endocytosis" viewBox="0 0 237.506 222.047" overflow="visible">
<defs><clipPath clipPathUnits="userSpaceOnUse" id="bioicons_endocytosis__a"><path d="M-.48 5.597h237.217v222.185H-.48z" /></clipPath></defs><path clip-path="url(#bioicons_endocytosis__a)" d="M133.719 7.435C71.796.76 39.336 39.096 32.98 46.412 18.829 62.042 9.194 81.59 6.636 103.177c-3.158 25.145 3.918 48.251 17.79 66.84.679.96 1.358 1.919 2.158 2.878 2.838 3.118 6.116 1.6 7.595.8 1.76-.96 3.798-1.48 5.997-1.48 7.035 0 12.752 5.677 12.752 12.633 0 1.879-.4 3.518-1.08 5.157-2.038 4.597 0 6.116 1.48 7.195 1.479.96 2.838 1.76 4.357 2.559 14.911 8.994 32.02 14.831 50.09 17.15 32.86 4.037 64.76-6.796 89.066-27.584 9.234-8.714 32.06-26.224 37.897-66.72 7.315-59.203-41.815-107.854-101.019-115.17z" fill="#c7cde6" fill-rule="evenodd" fill-opacity="1" stroke="none" /><path d="M28.063 167.299c-11.553-15.79-17.55-33.7-17.55-52.609 0-3.677.16-7.315.68-10.993C13.672 83.87 22.346 65.081 36.458 49.49c0-.16.28-.44.28-.44 24.425-27.983 58.484-41.175 96.381-37.097 31.221 3.957 59.604 19.588 77.793 42.974 13.032 16.71 19.788 35.858 19.788 55.846 0 3.798-.24 7.475-.68 11.273-5.156 35.459-23.865 52.448-33.899 61.403 0 0-2.199 2.039-2.478 2.318-24.026 20.508-55.087 30.142-85.389 26.504-17.07-2.198-33.78-7.875-48.29-16.47-1.36-.8-4.518-2.838-2.999-6.796.4-1.359-4.477.44-4.357-1.079 1.24-12.352-7.595-17.11-16.15-15.35-1.64.28.28-4.878-1.36-4.358-1.478.56-4.357 2.039-7.035-.92z" fill="#8f98c7" fill-rule="evenodd" fill-opacity="1" stroke="none" /><path clip-path="url(#bioicons_endocytosis__a)" d="M133.719 7.435C71.796.76 39.336 39.096 32.98 46.412 18.829 62.042 9.194 81.59 6.636 103.177c-3.158 25.145 3.918 48.251 17.79 66.84.679.96 1.358 1.919 2.158 2.878 2.838 3.118 6.116 1.6 7.595.8 1.76-.96 3.798-1.48 5.997-1.48 7.035 0 12.752 5.677 12.752 12.633 0 1.879-.4 3.518-1.08 5.157-2.038 4.597 0 6.116 1.48 7.195 1.479.96 2.838 1.76 4.357 2.559 14.911 8.994 32.02 14.831 50.09 17.15 32.86 4.037 64.76-6.796 89.066-27.584 9.234-8.714 32.06-26.224 37.897-66.72 7.315-59.203-41.815-107.854-101.019-115.17" fill="none" stroke="#433b41" stroke-width=".79951543px" stroke-linecap="round" stroke-linejoin="round" stroke-miterlimit="4" stroke-dasharray="none" stroke-opacity="1" /><path d="M35.099 168.218c-1.48.56-4.358 2.039-7.036-.92-11.553-15.79-17.55-33.699-17.55-52.608 0-3.677.16-7.315.68-10.993C13.672 83.87 22.346 65.081 36.458 49.49c0-.16.28-.44.28-.44 24.425-27.983 58.484-41.175 96.381-37.097 31.221 3.957 59.604 19.588 77.793 42.974 13.032 16.71 19.788 35.858 19.788 55.846 0 3.798-.24 7.475-.68 11.273-5.156 35.459-23.865 52.448-33.899 61.403 0 0-2.199 2.039-2.478 2.318-24.026 20.508-55.087 30.142-85.389 26.504-17.07-2.198-33.78-7.875-48.29-16.47-1.36-.8-4.518-2.838-2.999-6.796" fill="none" stroke="#433b41" stroke-width=".63961238px" stroke-linecap="round" stroke-linejoin="round" stroke-miterlimit="4" stroke-dasharray="none" stroke-opacity="1" /><path d="M51.809 190.005c-2.04 4.597 0 6.116 1.479 7.195 1.519.96 2.878 1.76 4.357 2.559l2.319-3.918c-.68-.4-1.76-1.079-2.599-2.318-2.718-4.877 2.878-4.078 2.878-4.078 13.592 0 24.706-11.153 24.706-24.745 0-13.712-11.114-24.745-24.706-24.745A24.687 24.687 0 0 0 35.498 164.7c.68 4.917-4.077 4.358-4.077 4.358-1.08-.12-2.319-.56-3.398-1.76l-3.678 2.719c.68.96 1.36 1.879 2.199 2.838 2.838 3.118 6.116 1.64 7.595.84 6.396-3.278 5.597-8.995 5.597-8.995 0-11.273 9.074-20.507 20.507-20.507 11.274 0 20.508 9.234 20.508 20.507 0 11.273-9.234 20.548-20.508 20.548 0 0-6.116-.28-8.434 4.757z" fill="#c7cde6" fill-rule="evenodd" fill-opacity="1" stroke="none" /><path d="M59.964 195.761c-.68-.4-1.76-1.079-2.559-2.278-2.718-4.917 2.838-4.078 2.838-4.078 13.592 0 24.706-11.153 24.706-24.705 0-13.712-11.114-24.745-24.706-24.745A24.687 24.687 0 0 0 35.498 164.7c.68 4.877-4.077 4.318-4.077 4.318-1.08-.12-2.279-.52-3.398-1.76" fill="none" stroke="#433b41" stroke-width=".63961238px" stroke-linecap="round" stroke-linejoin="round" stroke-miterlimit="4" stroke-dasharray="none" stroke-opacity="1" /><path d="M24.345 169.977c.68.96 1.36 1.919 2.199 2.878 2.838 3.118 6.076 1.6 7.595.8 6.356-3.278 5.557-8.995 5.557-8.995 0-11.273 9.074-20.547 20.468-20.547 11.273 0 20.467 9.274 20.467 20.547 0 11.313-9.194 20.548-20.467 20.548 0 0-6.117-.28-8.395 4.757-2.04 4.637 0 6.156 1.479 7.235 1.479.96 2.838 1.76 4.357 2.559" fill="none" stroke="#433b41" stroke-width=".79951543px" stroke-linecap="round" stroke-linejoin="round" stroke-miterlimit="4" stroke-dasharray="none" stroke-opacity="1" /><path d="M105.416 97.9c0-15.47 12.592-28.062 28.063-28.062 15.51 0 28.063 12.592 28.063 28.063 0 15.51-12.552 28.063-28.063 28.063-15.47 0-28.063-12.553-28.063-28.063z" fill="#c7cde6" fill-rule="evenodd" fill-opacity="1" stroke="none" /><path d="M109.094 97.82c0-13.391 10.953-24.305 24.425-24.305 13.512 0 24.425 10.914 24.425 24.306 0 13.432-10.913 24.305-24.425 24.305-13.472 0-24.425-10.873-24.425-24.305z" fill="#8f98c7" fill-rule="evenodd" fill-opacity="1" stroke="none" /><path d="M105.456 97.94c0-15.47 12.592-28.062 28.063-28.062 15.51 0 28.063 12.592 28.063 28.063 0 15.51-12.552 28.063-28.063 28.063-15.47 0-28.063-12.553-28.063-28.063" fill="none" stroke="#433b41" stroke-width="1.0393701px" stroke-linecap="round" stroke-linejoin="round" stroke-miterlimit="4" stroke-dasharray="none" stroke-opacity="1" /><path d="M109.094 97.82c0-13.391 10.953-24.305 24.425-24.305 13.512 0 24.425 10.914 24.425 24.306 0 13.432-10.913 24.305-24.425 24.305-13.472 0-24.425-10.873-24.425-24.305" fill="none" stroke="#433b41" stroke-width=".63961238px" stroke-linecap="round" stroke-linejoin="round" stroke-miterlimit="4" stroke-dasharray="none" stroke-opacity="1" /><path d="M134.279 82.83c0-2.639 2.198-4.837 4.837-4.837 2.678 0 4.837 2.198 4.837 4.837a4.828 4.828 0 0 1-4.837 4.837c-2.639 0-4.837-2.159-4.837-4.837z" fill="#ee7f1b" fill-rule="evenodd" fill-opacity="1" stroke="none" /><path d="M134.279 82.83c0-2.639 2.198-4.837 4.837-4.837 2.678 0 4.837 2.198 4.837 4.837a4.828 4.828 0 0 1-4.837 4.837c-2.639 0-4.837-2.159-4.837-4.837" fill="none" stroke="#433b41" stroke-width=".15990309px" stroke-linecap="round" stroke-linejoin="round" stroke-miterlimit="4" stroke-dasharray="none" stroke-opacity="1" /><path d="M104.297 125.644 85.748 146.23l-1.839-1.679 18.549-20.587 1.839 1.679z" fill="#e85a20" fill-rule="evenodd" fill-opacity="1" stroke="none" /><path d="m98.34 122.326 10.434-3.438-2.279 10.594-8.155-7.156z" fill="#e85a20" fill-rule="evenodd" fill-opacity="1" stroke="none" /><path d="M127.803 89.706c0-2.639 2.158-4.837 4.797-4.837 2.678 0 4.797 2.198 4.797 4.837 0 2.678-2.119 4.837-4.797 4.837-2.639 0-4.797-2.159-4.797-4.837z" fill="#ee7f1b" fill-rule="evenodd" fill-opacity="1" stroke="none" /><path d="M127.803 89.706c0-2.639 2.158-4.837 4.797-4.837 2.678 0 4.797 2.198 4.797 4.837 0 2.678-2.119 4.837-4.797 4.837-2.639 0-4.797-2.159-4.797-4.837" fill="none" stroke="#433b41" stroke-width=".15990309px" stroke-linecap="round" stroke-linejoin="round" stroke-miterlimit="4" stroke-dasharray="none" stroke-opacity="1" /><path d="M128.922 107.335c0-2.638 2.199-4.797 4.837-4.797 2.678 0 4.837 2.159 4.837 4.797 0 2.678-2.159 4.797-4.837 4.797-2.638 0-4.837-2.119-4.837-4.797z" fill="#ee7f1b" fill-rule="evenodd" fill-opacity="1" stroke="none" /><path d="M128.922 107.335c0-2.638 2.199-4.797 4.837-4.797 2.678 0 4.837 2.159 4.837 4.797 0 2.678-2.159 4.797-4.837 4.797-2.638 0-4.837-2.119-4.837-4.797" fill="none" stroke="#433b41" stroke-width=".15990309px" stroke-linecap="round" stroke-linejoin="round" stroke-miterlimit="4" stroke-dasharray="none" stroke-opacity="1" /><path d="M115.09 100.979c0-2.639 2.199-4.837 4.837-4.837 2.679 0 4.837 2.198 4.837 4.837a4.828 4.828 0 0 1-4.837 4.837c-2.638 0-4.837-2.159-4.837-4.837z" fill="#ee7f1b" fill-rule="evenodd" fill-opacity="1" stroke="none" /><path d="M115.09 100.979c0-2.639 2.199-4.837 4.837-4.837 2.679 0 4.837 2.198 4.837 4.837a4.828 4.828 0 0 1-4.837 4.837c-2.638 0-4.837-2.159-4.837-4.837" fill="none" stroke="#433b41" stroke-width=".15990309px" stroke-linecap="round" stroke-linejoin="round" stroke-miterlimit="4" stroke-dasharray="none" stroke-opacity="1" /><path d="M142.274 100.34c0-2.64 2.198-4.838 4.837-4.838 2.678 0 4.837 2.199 4.837 4.837a4.828 4.828 0 0 1-4.837 4.837c-2.639 0-4.837-2.158-4.837-4.837z" fill="#ee7f1b" fill-rule="evenodd" fill-opacity="1" stroke="none" /><path d="M142.274 100.34c0-2.64 2.198-4.838 4.837-4.838 2.678 0 4.837 2.199 4.837 4.837a4.828 4.828 0 0 1-4.837 4.837c-2.639 0-4.837-2.158-4.837-4.837" fill="none" stroke="#433b41" stroke-width=".15990309px" stroke-linecap="round" stroke-linejoin="round" stroke-miterlimit="4" stroke-dasharray="none" stroke-opacity="1" /><path d="M57.605 160.942c0-2.638 2.199-4.837 4.837-4.837 2.679 0 4.837 2.2 4.837 4.837a4.828 4.828 0 0 1-4.837 4.838c-2.638 0-4.837-2.16-4.837-4.838z" fill="#ee7f1b" fill-rule="evenodd" fill-opacity="1" stroke="none" /><path d="M57.605 160.942c0-2.638 2.199-4.837 4.837-4.837 2.679 0 4.837 2.2 4.837 4.837a4.828 4.828 0 0 1-4.837 4.838c-2.638 0-4.837-2.16-4.837-4.838" fill="none" stroke="#433b41" stroke-width=".15990309px" stroke-linecap="round" stroke-linejoin="round" stroke-miterlimit="4" stroke-dasharray="none" stroke-opacity="1" /><path d="M59.444 174.774c0-2.638 2.199-4.837 4.837-4.837 2.678 0 4.837 2.199 4.837 4.837a4.828 4.828 0 0 1-4.837 4.837c-2.638 0-4.837-2.159-4.837-4.837z" fill="#ee7f1b" fill-rule="evenodd" fill-opacity="1" stroke="none" /><path d="M59.444 174.774c0-2.638 2.199-4.837 4.837-4.837 2.678 0 4.837 2.199 4.837 4.837a4.828 4.828 0 0 1-4.837 4.837c-2.638 0-4.837-2.159-4.837-4.837" fill="none" stroke="#433b41" stroke-width=".15990309px" stroke-linecap="round" stroke-linejoin="round" stroke-miterlimit="4" stroke-dasharray="none" stroke-opacity="1" /><path d="M.2 191.124c0-2.638 2.199-4.797 4.837-4.797 2.678 0 4.837 2.159 4.837 4.797 0 2.679-2.159 4.797-4.837 4.797-2.638 0-4.837-2.118-4.837-4.797z" fill="#ee7f1b" fill-rule="evenodd" fill-opacity="1" stroke="none" /><path d="M.2 191.124c0-2.638 2.199-4.797 4.837-4.797 2.678 0 4.837 2.159 4.837 4.797 0 2.679-2.159 4.797-4.837 4.797-2.638 0-4.837-2.118-4.837-4.797" fill="none" stroke="#433b41" stroke-width=".15990309px" stroke-linecap="round" stroke-linejoin="round" stroke-miterlimit="4" stroke-dasharray="none" stroke-opacity="1" /><path d="M29.142 222.105c0-2.638 2.199-4.837 4.837-4.837 2.679 0 4.837 2.199 4.837 4.837a4.828 4.828 0 0 1-4.837 4.837c-2.638 0-4.837-2.158-4.837-4.837z" fill="#ee7f1b" fill-rule="evenodd" fill-opacity="1" stroke="none" /><path d="M29.142 222.105c0-2.638 2.199-4.837 4.837-4.837 2.679 0 4.837 2.199 4.837 4.837a4.828 4.828 0 0 1-4.837 4.837c-2.638 0-4.837-2.158-4.837-4.837" fill="none" stroke="#433b41" stroke-width=".15990309px" stroke-linecap="round" stroke-linejoin="round" stroke-miterlimit="4" stroke-dasharray="none" stroke-opacity="1" /><path d="M6.036 211.952c0-2.639 2.159-4.838 4.797-4.838 2.679 0 4.798 2.2 4.798 4.838 0 2.678-2.12 4.837-4.798 4.837-2.638 0-4.797-2.16-4.797-4.837z" fill="#ee7f1b" fill-rule="evenodd" fill-opacity="1" stroke="none" /><path d="M6.036 211.952c0-2.639 2.159-4.838 4.797-4.838 2.679 0 4.798 2.2 4.798 4.838 0 2.678-2.12 4.837-4.798 4.837-2.638 0-4.797-2.16-4.797-4.837" fill="none" stroke="#433b41" stroke-width=".15990309px" stroke-linecap="round" stroke-linejoin="round" stroke-miterlimit="4" stroke-dasharray="none" stroke-opacity="1" /><path d="M36.978 183.289c0-2.638 2.198-4.797 4.837-4.797 2.678 0 4.837 2.159 4.837 4.797 0 2.678-2.159 4.797-4.837 4.797-2.639 0-4.837-2.119-4.837-4.797z" fill="#ee7f1b" fill-rule="evenodd" fill-opacity="1" stroke="none" /><path d="M36.978 183.289c0-2.638 2.198-4.797 4.837-4.797 2.678 0 4.837 2.159 4.837 4.797 0 2.678-2.159 4.797-4.837 4.797-2.639 0-4.837-2.119-4.837-4.797" fill="none" stroke="#433b41" stroke-width=".15990309px" stroke-linecap="round" stroke-linejoin="round" stroke-miterlimit="4" stroke-dasharray="none" stroke-opacity="1" /><path d="M45.452 176.773c0-2.639 2.2-4.837 4.838-4.837 2.678 0 4.837 2.198 4.837 4.837a4.828 4.828 0 0 1-4.837 4.837c-2.639 0-4.838-2.159-4.838-4.837z" fill="#ee7f1b" fill-rule="evenodd" fill-opacity="1" stroke="none" /><path d="M45.452 176.773c0-2.639 2.2-4.837 4.838-4.837 2.678 0 4.837 2.198 4.837 4.837a4.828 4.828 0 0 1-4.837 4.837c-2.639 0-4.838-2.159-4.838-4.837" fill="none" stroke="#433b41" stroke-width=".15990309px" stroke-linecap="round" stroke-linejoin="round" stroke-miterlimit="4" stroke-dasharray="none" stroke-opacity="1" /><path d="M48.49 157.305c0-2.639 2.2-4.797 4.838-4.797 2.678 0 4.837 2.158 4.837 4.797 0 2.678-2.159 4.797-4.837 4.797-2.639 0-4.837-2.119-4.837-4.797z" fill="#ee7f1b" fill-rule="evenodd" fill-opacity="1" stroke="none" /><path d="M48.49 157.305c0-2.639 2.2-4.797 4.838-4.797 2.678 0 4.837 2.158 4.837 4.797 0 2.678-2.159 4.797-4.837 4.797-2.639 0-4.837-2.119-4.837-4.797" fill="none" stroke="#433b41" stroke-width=".15990309px" stroke-linecap="round" stroke-linejoin="round" stroke-miterlimit="4" stroke-dasharray="none" stroke-opacity="1" /><path d="M21.627 201.278c0-2.638 2.199-4.797 4.837-4.797 2.678 0 4.837 2.159 4.837 4.797 0 2.678-2.159 4.797-4.837 4.797-2.638 0-4.837-2.119-4.837-4.797z" fill="#ee7f1b" fill-rule="evenodd" fill-opacity="1" stroke="none" /><path d="M21.627 201.278c0-2.638 2.199-4.797 4.837-4.797 2.678 0 4.837 2.159 4.837 4.797 0 2.678-2.159 4.797-4.837 4.797-2.638 0-4.837-2.119-4.837-4.797" fill="none" stroke="#433b41" stroke-width=".15990309px" stroke-linecap="round" stroke-linejoin="round" stroke-miterlimit="4" stroke-dasharray="none" stroke-opacity="1" /><path d="M24.665 185.647c0-2.638 2.199-4.837 4.837-4.837 2.678 0 4.837 2.2 4.837 4.837a4.828 4.828 0 0 1-4.837 4.838c-2.638 0-4.837-2.16-4.837-4.838z" fill="#ee7f1b" fill-rule="evenodd" fill-opacity="1" stroke="none" /><path d="M24.665 185.647c0-2.638 2.199-4.837 4.837-4.837 2.678 0 4.837 2.2 4.837 4.837a4.828 4.828 0 0 1-4.837 4.838c-2.638 0-4.837-2.16-4.837-4.838" fill="none" stroke="#433b41" stroke-width=".15990309px" stroke-linecap="round" stroke-linejoin="round" stroke-miterlimit="4" stroke-dasharray="none" stroke-opacity="1" /><path d="M66.96 159.663c0-2.638 2.198-4.837 4.836-4.837 2.679 0 4.838 2.199 4.838 4.837a4.828 4.828 0 0 1-4.838 4.837c-2.638 0-4.837-2.158-4.837-4.837z" fill="#ee7f1b" fill-rule="evenodd" fill-opacity="1" stroke="none" /><path d="M66.96 159.663c0-2.638 2.198-4.837 4.836-4.837 2.679 0 4.838 2.199 4.838 4.837a4.828 4.828 0 0 1-4.838 4.837c-2.638 0-4.837-2.158-4.837-4.837" fill="none" stroke="#433b41" stroke-width=".15990309px" stroke-linecap="round" stroke-linejoin="round" stroke-miterlimit="4" stroke-dasharray="none" stroke-opacity="1" /><path d="M30.502 191.644c0-2.639 2.198-4.837 4.837-4.837 2.678 0 4.837 2.198 4.837 4.837a4.828 4.828 0 0 1-4.837 4.837c-2.639 0-4.837-2.159-4.837-4.837z" fill="#ee7f1b" fill-rule="evenodd" fill-opacity="1" stroke="none" /><path d="M30.502 191.644c0-2.639 2.198-4.837 4.837-4.837 2.678 0 4.837 2.198 4.837 4.837a4.828 4.828 0 0 1-4.837 4.837c-2.639 0-4.837-2.159-4.837-4.837" fill="none" stroke="#433b41" stroke-width=".15990309px" stroke-linecap="round" stroke-linejoin="round" stroke-miterlimit="4" stroke-dasharray="none" stroke-opacity="1" />
</symbol>
</defs>
  <defs>
    <marker id="arrowhead" markerWidth="10" markerHeight="7" refX="10" refY="3.5" orient="auto">
      <polygon points="0 0, 10 3.5, 0 7" fill="#333333" />
    </marker>
    <filter id="stage_shadow" x="-5%" y="-5%" width="115%" height="125%">
      <feDropShadow dx="0" dy="3" stdDeviation="4" flood-color="#000000" flood-opacity="0.12" />
    </filter>
    <path id="macrophage_cell_outline" d="M0,80 C20,20 100,0 180,20 C260,40 300,100 280,180 C260,240 180,260 100,240 C20,220 -20,140 0,80Z" fill="#F0F8F8" stroke="#609090" stroke-width="2" />
    <circle id="bacterium_body" r="20" fill="#DAA520" stroke="#8B4513" stroke-width="1.5" />
    <circle id="lysosome_enzyme" r="3" fill="#FF69B4" opacity="0.8" />
  </defs>

  <g id="figure_title">
    <text x="900" y="50" font-size="26" font-weight="bold" fill="#1a1a1a" text-anchor="middle" font-family="Helvetica, Arial, sans-serif">Macrophage Phagocytosis of a Bacterium</text>
  </g>

  
  <g id="stage_1_recognition" data-role="stage">
    <rect x="50" y="120" width="280" height="450" rx="10" fill="#E8EEF7" stroke="#3A5F7F" stroke-width="2" filter="url(#stage_shadow)" />
    <use href="#macrophage_cell_outline" x="60" y="170" width="260" height="220" />
    <text x="190" y="160" font-size="13" fill="#666666" text-anchor="middle" font-family="Helvetica, Arial, sans-serif">Macrophage</text>
    <use href="#bacterium_body" x="280" y="190" />
    <text x="280" y="170" font-size="13" fill="#666666" text-anchor="middle" font-family="Helvetica, Arial, sans-serif">Bacterium</text>
    <path d="M 260 190 Q 240 200, 200 220" stroke="#3A5F7F" stroke-width="2" marker-end="url(#arrowhead)" />
    <text x="230" y="210" font-size="12" fill="#3A5F7F" text-anchor="middle" font-family="Helvetica, Arial, sans-serif">Binding</text>
    <text x="190" y="520" font-size="16" font-weight="bold" fill="#3A5F7F" text-anchor="middle" font-family="Helvetica, Arial, sans-serif">1. Recognition</text>
  </g>

  <g id="arrow_1_2">
    <line x1="330" y1="345" x2="370" y2="345" stroke="#333333" stroke-width="2.5" marker-end="url(#arrowhead)" />
  </g>

  
  <g id="stage_2_engulfment" data-role="stage">
    <rect x="370" y="120" width="280" height="450" rx="10" fill="#E8F2E0" stroke="#4A7A3F" stroke-width="2" filter="url(#stage_shadow)" />
    <use href="#bioicons_endocytosis" x="380" y="180" width="260" height="242" />
    <text x="570" y="260" font-size="13" fill="#666666" text-anchor="middle" font-family="Helvetica, Arial, sans-serif">Bacterium</text>
    <text x="510" y="520" font-size="16" font-weight="bold" fill="#4A7A3F" text-anchor="middle" font-family="Helvetica, Arial, sans-serif">2. Engulfment</text>
  </g>

  <g id="arrow_2_3">
    <line x1="650" y1="345" x2="690" y2="345" stroke="#333333" stroke-width="2.5" marker-end="url(#arrowhead)" />
  </g>

  
  <g id="stage_3_phagosome_formation" data-role="stage">
    <rect x="690" y="120" width="280" height="450" rx="10" fill="#FFF5DC" stroke="#9C7530" stroke-width="2" filter="url(#stage_shadow)" />
    <use href="#macrophage_cell_outline" x="700" y="170" width="260" height="220" />
    <circle cx="820" cy="280" r="45" fill="#ADD8E6" stroke="#4682B4" stroke-width="1.5" />
    <use href="#bacterium_body" x="820" y="280" r="25" />
    <text x="820" y="220" font-size="13" fill="#4682B4" text-anchor="middle" font-family="Helvetica, Arial, sans-serif">Phagosome</text>
    <text x="820" y="260" font-size="12" fill="#8B4513" text-anchor="middle" font-family="Helvetica, Arial, sans-serif">Bacterium</text>
    <text x="830" y="520" font-size="16" font-weight="bold" fill="#9C7530" text-anchor="middle" font-family="Helvetica, Arial, sans-serif">3. Phagosome Formation</text>
  </g>

  <g id="arrow_3_4">
    <line x1="970" y1="345" x2="1010" y2="345" stroke="#333333" stroke-width="2.5" marker-end="url(#arrowhead)" />
  </g>

  
  <g id="stage_4_phagolysosome_maturation" data-role="stage">
    <rect x="1010" y="120" width="280" height="450" rx="10" fill="#FFE8D8" stroke="#9C5F2A" stroke-width="2" filter="url(#stage_shadow)" />
    <use href="#macrophage_cell_outline" x="1020" y="170" width="260" height="220" />
    
    <circle cx="1090" cy="230" r="35" fill="#ADD8E6" stroke="#4682B4" stroke-width="1.5" />
    <use href="#bacterium_body" x="1090" y="230" r="20" />
    <text x="1090" y="180" font-size="13" fill="#4682B4" text-anchor="middle" font-family="Helvetica, Arial, sans-serif">Phagosome</text>
    
    <circle cx="1210" cy="230" r="30" fill="#FFC0CB" stroke="#FF69B4" stroke-width="1.5" />
    <use href="#lysosome_enzyme" x="1200" y="220" />
    <use href="#lysosome_enzyme" x="1220" y="235" />
    <use href="#lysosome_enzyme" x="1195" y="240" />
    <text x="1210" y="180" font-size="13" fill="#FF69B4" text-anchor="middle" font-family="Helvetica, Arial, sans-serif">Lysosome</text>
    
    <path d="M 1180 230 L 1125 230" stroke="#9C5F2A" stroke-width="2" marker-end="url(#arrowhead)" />
    <text x="1150" y="260" font-size="12" fill="#9C5F2A" text-anchor="middle" font-family="Helvetica, Arial, sans-serif">Fusion</text>
    
    <circle cx="1150" cy="360" r="45" fill="#C8A2C8" stroke="#800080" stroke-width="1.5" />
    <use href="#bacterium_body" x="1150" y="360" r="25" />
    <use href="#lysosome_enzyme" x="1140" y="350" />
    <use href="#lysosome_enzyme" x="1160" y="365" />
    <use href="#lysosome_enzyme" x="1135" y="370" />
    <text x="1150" y="310" font-size="13" fill="#800080" text-anchor="middle" font-family="Helvetica, Arial, sans-serif">Phagolysosome</text>
    <text x="1150" y="520" font-size="16" font-weight="bold" fill="#9C5F2A" text-anchor="middle" font-family="Helvetica, Arial, sans-serif">4. Phagolysosome Maturation</text>
  </g>

  <g id="arrow_4_5">
    <line x1="1290" y1="345" x2="1330" y2="345" stroke="#333333" stroke-width="2.5" marker-end="url(#arrowhead)" />
  </g>

  
  <g id="stage_5_degradation" data-role="stage">
    <rect x="1330" y="120" width="280" height="450" rx="10" fill="#FFDDD5" stroke="#9C4A47" stroke-width="2" filter="url(#stage_shadow)" />
    <use href="#macrophage_cell_outline" x="1340" y="170" width="260" height="220" />
    <circle cx="1460" cy="280" r="45" fill="#C8A2C8" stroke="#800080" stroke-width="1.5" />
    
    <circle cx="1445" cy="270" r="5" fill="#DAA520" opacity="0.7" />
    <circle cx="1475" cy="290" r="5" fill="#DAA520" opacity="0.7" />
    <circle cx="1460" cy="260" r="5" fill="#DAA520" opacity="0.7" />
    <circle cx="1450" cy="295" r="4" fill="#DAA520" opacity="0.7" />
    <circle cx="1480" cy="275" r="4" fill="#DAA520" opacity="0.7" />
    <circle cx="1465" cy="305" r="4" fill="#DAA520" opacity="0.7" />
    
    <use href="#lysosome_enzyme" x="1430" y="280" />
    <use href="#lysosome_enzyme" x="1490" y="280" />
    <use href="#lysosome_enzyme" x="1460" y="250" />
    <use href="#lysosome_enzyme" x="1460" y="310" />
    <text x="1460" y="220" font-size="13" fill="#800080" text-anchor="middle" font-family="Helvetica, Arial, sans-serif">Phagolysosome</text>
    <text x="1460" y="520" font-size="16" font-weight="bold" fill="#9C4A47" text-anchor="middle" font-family="Helvetica, Arial, sans-serif">5. Degradation</text>
  </g>
</svg>