<svg xmlns="http://www.w3.org/2000/svg" viewBox="0 0 2000 900"><defs>
<symbol id="bioicons_t_lymphocyte" viewBox="0 0 123.931 126.992" overflow="visible">
<defs><clipPath clipPathUnits="userSpaceOnUse" id="bioicons_t_lymphocyte__a"><path d="M2.718 1.999h123.765v127.043H2.718z" /></clipPath></defs><path clip-path="url(#bioicons_t_lymphocyte__a)" d="M33.14 10.753c-16.39 10.114-18.71 18.11-25.585 35.26C1.48 61.682 3.518 81.63 10.993 96.341c14.072 28.223 55.767 40.495 81.63 24.865 30.782-18.43 46.293-69.358 17.27-98.5C99.82 12.591 87.187 7.674 74.235 4.916 54.127.6 44.613 4.317 33.14 10.753z" fill="#abd4eb" fill-rule="evenodd" /><path d="M39.416 20.268c-14.391 7.995-18.149 23.945-20.148 35.338-3.478 20.868-.6 40.216 18.15 51.569 9.474 5.517 29.342 11.033 40.295 7.995 13.832-3.997 21.587-15.35 29.062-26.424 8.355-12.272 11.513-24.265 6.636-41.455-3.757-12.872-12.072-25.184-24.185-29.462-21.027-7.395-32.26-6.436-49.81 2.439z" fill="#cca6bd" fill-rule="evenodd" /><path d="M24.185 85.388c2.879 17.19 18.43 21.507 30.822 25.505 13.511 3.957 25.584 2.758 36.538-7.076 17.549-16.59 30.181-53.727 9.194-71.557 1.999 10.154 6.036 21.507 1.719 31.661-1.999 4.597-6.036 8.875-9.474 12.553-4.038 4.317-6.037 8.914-9.515 13.232-5.476 7.355-17.829 10.713-26.743 10.114-8.075-.32-12.953-3.678-18.989-7.356-3.478-2.479-9.514-1.24-11.233-5.837z" fill="#ba94aa" fill-rule="evenodd" /><path d="M54.447 18.149c-8.075 3.998-14.391 6.156-20.428 13.232-7.475 8.915-12.392 22.426-10.953 34.699 2.319-12.273 6.356-26.424 16.43-33.46 2.279-1.559 5.437-2.158 7.476-3.718 2.278-2.158 2.278-4.277 4.597-6.116 3.438-3.398 15.55-3.078 19.548-4.637-2.559-1.24-14.072-.6-16.67.64z" fill="#e3d5de" fill-rule="evenodd" /><path clip-path="url(#bioicons_t_lymphocyte__a)" d="M40.655 120.727c.32 0 .6.28 1.16.28 12.072 5.556 38.256 11.353 58.964-7.956 21.587-19.987 29.342-58.044 17.27-74.634 5.476 15.99 5.476 54.047-24.746 74.634-12.632 6.117-24.145 15.631-52.648 7.676z" fill="#8abde2" fill-rule="evenodd" /><path clip-path="url(#bioicons_t_lymphocyte__a)" d="M24.185 19.468c-8.355 7.356-11.233 18.11-13.831 25.465C5.477 57.205-.04 85.388 22.466 108.055c-5.476-6.437-16.99-33.38-10.953-53.008 6.356-19.628 4.917-27.584 12.672-35.579z" fill="#eaf1f9" fill-rule="evenodd" /><path d="M120.287 79.592c-2.279 7.995-13.752 42.934-47.97 46.612 7.754-1.2 36.497-13.792 47.97-46.612z" fill="#65addb" fill-rule="evenodd" /><path d="M52.968 109.294c12.073 4.277 22.146 4.277 32.78-1.84 10.314-6.435 16.07-15.03 20.388-23.905 3.997-8.874 7.435-19.308 5.716-27.303 0 4.917-8.035 26.984-14.071 34.979-6.037 7.955-21.547 18.069-26.984 18.668-5.157.32-14.95.92-17.83-.6z" fill="#ac7d98" fill-rule="evenodd" /><path d="M39.416 20.268c-14.391 7.995-18.149 23.945-20.148 35.338-3.478 20.868-.6 40.216 18.15 51.569 9.474 5.517 29.342 11.033 40.295 7.995 13.832-3.997 21.587-15.35 29.062-26.424 8.355-12.272 11.513-24.265 6.636-41.455-3.757-12.872-12.072-25.184-24.185-29.462-21.027-7.395-32.26-6.436-49.81 2.439" fill="none" stroke="#585759" stroke-width=".64" stroke-linecap="round" stroke-linejoin="round" /><path clip-path="url(#bioicons_t_lymphocyte__a)" d="M33.1 10.753c-16.39 9.835-18.709 18.11-25.585 35.02-6.356 15.67-4.037 35.937 3.438 50.689 14.112 27.943 55.807 40.215 81.67 24.864 30.782-18.428 46.293-69.397 17.27-98.9C99.82 12.273 87.187 7.676 74.235 4.917 54.087.6 44.333 3.997 33.1 10.753" fill="none" stroke="#585759" stroke-width=".64" stroke-linecap="round" stroke-linejoin="round" /><path d="M33.94 21.667c0-2.798 2.238-5.077 4.916-5.077 2.719 0 4.917 2.279 4.917 5.077 0 2.838-2.198 5.077-4.917 5.077-2.678 0-4.917-2.239-4.917-5.077zm9.514-3.877c0-1 .84-1.84 1.839-1.84 1.039 0 1.838.84 1.838 1.84 0 1.039-.8 1.838-1.838 1.838-1 0-1.84-.8-1.84-1.839zm-12.313 7.635c0-.96.76-1.8 1.68-1.8.959 0 1.678.84 1.678 1.8 0 .999-.72 1.799-1.679 1.799-.92 0-1.679-.8-1.679-1.8z" fill="#fff" fill-rule="evenodd" />
</symbol>
<symbol id="bioicons_fibroblast" viewBox="0 0 363.25 122.343" overflow="visible">
<path d="M105.736 72.236c5.397 13.352-3.758 15.99-8.755 26.224 5.837-4.437 15.39-13.352 19.149-5.356 4.157 7.555-4.158 19.548-5.837 22.666 12.073-18.19 37.497-27.543 58.725-25.305 6.676.44 18.348 1.76 24.145 4.437 6.276 3.119 6.276 9.315 9.994 14.672-1.24-3.558-.8-10.674 4.197-8.915 4.997 1.799 2.479 10.234 5.797 14.231-.4-6.236.44-13.791 7.515-13.791 1.68 6.676-.84 14.231 3.318 19.988-.8-23.506 11.273-33.3 29.982-38.617 6.676-2.239 11.273-3.998 18.349-2.678 5.836 1.319 16.23 6.236 23.306 7.115-6.636-2.238-24.146-10.673-20.828-20.427 2.12-5.797 14.991-6.237 20.428-7.116 10.394-2.678 21.227-8.435 32.06-7.995 9.595.44 26.664-2.239 34.14 3.997-5.397-7.995-33.3-10.673-50.81-8.434-10.393 1.319-24.984 6.196-34.978 1.319-16.23-7.556 12.512-19.548 17.51-22.627-22.907 5.757-50.41 3.998-73.316.44-13.312-1.799-24.585-5.796-38.297-4.917-16.67.48-28.343 6.236-36.658 12.473-8.755 6.636-23.346 11.513-28.343 6.196-9.994-11.993-.8-24.865-7.075-38.657 3.358 35.539-35.819 39.097-57.046 31.98-24.585-7.515-42.054-6.635-51.249-3.517 12.513-.48 36.258 2.199 49.17 9.314 12.473 7.116 48.291 16.87 55.407 33.3z" fill="#e9618e" fill-rule="evenodd" fill-opacity="1" stroke="none" /><path d="M164.34 67.879c2.519 11.553 10.434 15.07 24.186 13.312 13.711-1.76 19.548-5.317 29.982-6.236 10.393-.88 15.79-19.069 6.236-23.986z" fill="#d60065" fill-rule="evenodd" fill-opacity="1" stroke="none" /><path d="M171.056 73.196c6.277 5.756 12.113 3.997 20.828.88 8.754-3.119 12.112.439 22.946-2.68 10.833-3.117 13.711-10.233 12.072-13.79z" fill="#b90058" fill-rule="evenodd" fill-opacity="1" stroke="none" /><path d="M162.621 54.887c-.44 18.269 11.274 22.706 25.425 16.95 8.755-3.558 13.792-2.24 22.546-2.679 7.076-.44 17.07-4.477 15.83-14.271-3.317-24.465-64.24-24.945-63.8 0z" fill="#80197f" fill-rule="evenodd" fill-opacity="1" stroke="none" /><path d="M108.894 70.877c2.079 6.676 2.079 12.912-.84 16.03 6.676-.88 8.755.88 10.434 4.917 1.68 3.998-.84 9.794 3.318 7.116 4.198-2.678 20.028-11.593 37.098-12.033 17.11-.44 31.7 1.8 37.537 6.676 5.796 4.917-.44 1.8 7.475 3.558 7.916 1.799 5.837 5.797 9.155 4.038 3.358-1.8 7.116-3.558 10.034-2.679 2.918.88 4.997-10.273 17.07-15.59 12.072-5.357 25.024-8.915 30.86-7.156 5.797 1.799-2.918-8.035 2.08-13.832-3.758 2.679 1.638 5.797-10.034 8.955-11.633 3.118-20.388 2.638-33.34 8.435-12.912 5.796-13.752 5.357-27.903 4.037-14.152-1.359-29.183-8.035-42.934-7.595-13.752.44-25.825 13.832-34.98 8.915-9.194-4.877-14.19-8.915-15.03-13.792z" fill="#d60065" fill-rule="evenodd" fill-opacity="1" stroke="none" /><path d="M69.438 40.336c9.194.44 23.746-.88 30.821-7.996 7.116-7.115 6.276-1.359 9.994 4.877 3.758 6.237 3.358 11.993 19.189 7.556 15.83-4.437 21.626-13.312 34.539-16.87 12.912-3.558 23.345-4.917 46.651-.44 23.346 4.438 39.177 5.757 47.891 4.438-7.875 3.558-39.975.44-50.809 0-10.793-.44-31.221-5.797-45.372 2.638-14.152 8.435-22.067 20.907-37.498 22.666-15.39 1.76-15.39-11.992-20.387-15.11-4.997-3.119-30.422.879-35.02-1.76z" fill="#f6bfcd" fill-rule="evenodd" fill-opacity="1" stroke="none" /><path d="M192.723 90.905c4.198 3.078 4.198 3.518 7.915 4.877 2.08.88 5.397 1.759 7.476 3.078 2.079 1.32 2.918 2.638 4.597 3.078 1.64.44 1.64-2.198 3.318-2.638 1.24 0 2.918-.44 5.397-.44 4.997 0 8.315-12.392 22.866-17.27-8.315 1.8-18.269 10.194-26.584 12.833-8.315 2.678-20.388-3.518-24.985-3.518zM114.37 86.947c4.598 1.32 5.837 1.76 5.437 6.636-.44 4.837.84 6.157 7.076 2.199 6.236-3.998 12.473-7.955 26.184-8.835-8.714-.44-22.466 1.76-27.023 3.078-4.598 1.32-8.755-4.437-11.673-3.078z" fill="#b90058" fill-rule="evenodd" fill-opacity="1" stroke="none" /><path d="M100.3 37.577c1.238-1.799 3.317-3.558 4.996-4.917 2.878 6.236 5.397 13.792 12.033 15.99 9.554 3.558 24.505-6.196 32.38-10.633-6.196 4.437-10.353 9.754-17.829 12.432-3.758 1.76-9.994 3.958-14.551 2.2-2.479-1.32-7.476-6.637-9.554-9.315-3.718-5.757-2.919-4.877-9.155-4.877z" fill="#fff" fill-rule="evenodd" fill-opacity="1" stroke="none" /><path d="M168.578 66.08c5.037 6.196 9.194 4.877 19.628 2.199 10.394-2.679 14.591-3.118 20.827-3.118 6.237 0 13.352 0 14.152-9.755-1.64 5.757-7.476-1.798-21.227 1.32-13.752 3.118-28.343 16.87-33.38 9.354z" fill="#6b136a" fill-rule="evenodd" fill-opacity="1" stroke="none" /><path d="M165.22 61.123c0-8.875 6.676-20.907 22.106-21.787 15.471-.92 28.783 4.437 31.701 7.556-5.836-3.998-45.012-3.558-53.807 14.231z" fill="#b789b9" fill-rule="evenodd" fill-opacity="1" stroke="none" /><path d="M167.219 51.289c1.679-3.958 6.716-8.395 12.592-10.634 6.676-2.238 14.231-2.238 20.907-.44-6.276-.879-30.141 6.197-33.5 11.074z" fill="#e7daea" fill-rule="evenodd" fill-opacity="1" stroke="none" /><path d="M129.002 54.847c-.84.48-1.28 1.399-1.28 2.318 2.919 1.8 4.158-.48 2.919-3.238zM133.999 52.728c-.44.88-.44 1.799 0 2.239.8 0 2.438-.88 3.238-1.36 0-.44-.4-.879-.4-1.359z" fill="#fff" fill-rule="evenodd" fill-opacity="1" stroke="none" /><path d="M162.661 54.927c-.44 18.269 11.274 22.706 25.425 16.95 8.755-3.558 13.792-2.24 22.546-2.679 7.076-.44 17.07-4.477 15.83-14.271-3.317-24.465-64.24-24.945-63.8 0" fill="none" stroke="#000" stroke-width="1.1992731px" stroke-linecap="round" stroke-linejoin="round" stroke-miterlimit="4" stroke-dasharray="none" stroke-opacity="1" /><path d="M105.776 72.276c5.397 13.352-3.758 15.99-8.755 26.224 5.837-4.437 15.39-13.352 19.149-5.356 4.157 7.555-4.158 19.548-5.837 22.666 12.073-18.19 37.497-27.543 58.725-25.305 6.675.44 18.348 1.76 24.145 4.437 6.276 3.119 6.276 9.315 9.994 14.672-1.24-3.558-.8-10.674 4.197-8.915 4.997 1.799 2.479 10.234 5.797 14.231-.4-6.236.44-13.791 7.515-13.791 1.68 6.676-.84 14.231 3.318 19.988-.8-23.506 11.273-33.3 29.982-38.617 6.676-2.239 11.273-3.998 18.349-2.678 5.836 1.319 16.23 6.236 23.306 7.115-6.636-2.238-24.146-10.673-20.828-20.427 2.12-5.797 14.991-6.237 20.428-7.116 10.394-2.678 21.227-8.435 32.06-7.995 9.595.44 26.664-2.239 34.14 3.997-5.397-7.995-33.3-10.673-50.81-8.434-10.393 1.319-24.984 6.196-34.978 1.319-16.23-7.556 12.512-19.548 17.51-22.627-22.907 5.757-50.41 3.998-73.316.44-13.312-1.799-24.585-5.796-38.297-4.917-16.67.48-28.343 6.236-36.658 12.473-8.755 6.636-23.346 11.513-28.343 6.196-9.994-11.993-.8-24.865-7.075-38.657 3.358 35.539-35.819 39.097-57.046 31.98-24.585-7.515-42.054-6.635-51.249-3.517 12.513-.48 36.258 2.199 49.17 9.314 12.473 7.116 48.291 16.87 55.407 33.3" fill="none" stroke="#000" stroke-width="1.1992731px" stroke-linecap="round" stroke-linejoin="round" stroke-miterlimit="4" stroke-dasharray="none" stroke-opacity="1" /><path d="M163.54 43.094c0-1.799 1.4-3.318 3.079-3.318 1.719 0 3.078 1.519 3.078 3.318 0 1.839-1.359 3.318-3.078 3.318-1.679 0-3.078-1.48-3.078-3.318zM171.056 40.695c0-.92.84-1.719 1.84-1.719 1.039 0 1.838.8 1.838 1.72 0 .959-.8 1.718-1.839 1.718-1 0-1.839-.76-1.839-1.719zM161.862 48.97c0-1.079.84-1.998 1.839-1.998 1.04 0 1.839.919 1.839 1.998 0 1.12-.8 2-1.84 2-.999 0-1.838-.88-1.838-2z" fill="#fff" fill-rule="evenodd" fill-opacity="1" stroke="none" />
</symbol>
<symbol id="bioicons_tumor" viewBox="0 0 96.567 94.715" overflow="visible">
<defs><clipPath clipPathUnits="userSpaceOnUse" id="bioicons_tumor__a"><path d="M-.16.24h96.422v94.742H-.16z" /></clipPath></defs><path clip-path="url(#bioicons_tumor__a)" d="M13.672 15.87c-2.259 1.62-4.538 7.276-7.556 9.695C1.06 29.602 2.06 31.76 1.32 38.237c-.52 3.778-1.279 6.196.24 7.275 1.26.8 2.019 1.88 1.779 3.498-.26.54.5 1.36 1 1.88.759 1.898.759 3.777 1.778 5.676 1 2.138 2.259 2.418 3.018 4.837 1.26 4.317-1.519 9.174 0 13.212 2.02 4.857 8.835 4.577 12.873 7.275 7.575 4.578 12.632 11.314 21.966 12.133 4.538.52 8.335-1.36 12.613-2.439 4.557-1.079 9.094 2.16 13.392 1.08 10.093-2.699 18.668-17.79 22.446-26.684 3.298-7.815 4.038-22.087 2.279-30.162-.5-1.899-3.778.8-4.538-.28-1.259-2.418.5-11.852-.76-14.81-2.018-5.137-5.816-9.715-9.853-13.213C70.717-.04 62.402 1.58 50.27 1.04c-5.037-.26-10.094 0-14.891 1.36-3.278.8-7.056 1.619-10.094 2.958.76 1.359-.76 1.619-2.779 1.08-3.518 1.878-6.296 4.576-8.315 9.154z" fill="#dd8a98" fill-rule="evenodd" fill-opacity="1" stroke="none" /><path d="M55.826 4.557c-3.518.8-7.555 0-10.833.26-4.777.54-7.556 2.159-12.093 3.778-3.018 1.359-7.316 1.08-10.094 3.238-3.258 2.159-5.796 6.456-8.315 9.434C8.695 27.463 3.398 33.12 4.157 42.554c1.02 9.155 8.315 15.61 10.854 23.966 1.759 5.117.74 6.196 5.037 9.714 3.278 2.678 6.296 5.117 9.574 7.795 7.815 6.196 14.371 2.978 22.926 4.317 8.575 1.62 17.65.82 23.706-6.196 3.018-3.238 5.037-6.736 8.055-9.974 3.778-4.297 6.816-9.694 7.575-15.61.74-6.217-2.778-14.551-4.037-21.028-1.26-6.995-2.279-14.011-5.037-20.207C78.013 4.277 64.66 7.256 55.326 4.817z" fill="#d17086" fill-rule="evenodd" fill-opacity="1" stroke="none" /><path d="M29.802 11.453c.24 0 .74.28 1.26.54 3.017.82 5.816-1.62 9.094-1.62 2.778 0 5.057-2.158 8.075-2.158 5.317-.26 8.854-1.619 18.449 1.08 7.075 1.898 13.891 11.053 17.689 19.148 4.037 8.894 5.297 14.271 5.057 23.985-.26 4.318-2.279 11.054-4.038 14.551-1.779 3.238-4.817 5.657-7.335 8.355-4.558 5.397-8.835 8.895-15.411 8.895-5.816 0-13.392 2.958-18.709 1.36-6.056-2.16-8.834-1.36-14.131-5.138-9.354-7.275-19.208-24.785-22.746-36.118-2.539-7.535-.5-8.615 2.778-14.81 1.52-2.7 3.798-6.197 6.056-8.636 2.02-1.879 3.798-3.238 5.317-5.656z" fill="#c52749" fill-rule="evenodd" fill-opacity="1" stroke="none" /><path d="M20.448 19.868C13.632 25.245 7.296 33.34 7.036 40.076c0 7.015 4.557 14.55 9.374 20.487C21.207 66.5 30.821 82.93 39.176 84.29c8.595 1.34 18.969 2.139 28.603-3.238 9.614-5.397 17.949-13.472 20.228-25.065 2.018-11.593-1-23.985-8.595-33.96C71.816 11.774 63.982 9.355 50.31 8.816c-13.412-.82-18.21 1.879-29.862 11.053z" fill="#f6ea91" fill-rule="evenodd" fill-opacity="1" stroke="none" /><path d="M20.448 19.868C13.632 25.245 7.296 33.34 7.036 40.076c0 7.015 4.557 14.55 9.374 20.487C21.207 66.5 30.821 82.93 39.176 84.29c8.595 1.34 18.969 2.139 28.603-3.238 9.614-5.397 17.949-13.472 20.228-25.065 2.018-11.593-1-23.985-8.595-33.96C71.816 11.774 63.982 9.355 50.31 8.816c-13.412-.82-18.21 1.879-29.862 11.053" fill="none" stroke="#fcfbfb" stroke-width="1.0393701px" stroke-linecap="butt" stroke-linejoin="miter" stroke-miterlimit="8" stroke-dasharray="none" stroke-opacity="1" /><path d="M38.377 14.171c-.26.26-.26.26-.26.54 3.298.54 5.317 4.577 7.096 7.276 2.278 3.498 2.778 6.736 2.018 10.513 2.539.26 3.298 8.075 3.298 10.514.52 6.736-3.797 10.514-9.114 12.392 2.778.82 5.057-1.619 7.355-2.958 3.278-1.899 4.798 1.62 4.558 4.577.5-3.238 2.518-2.418 3.538.26 1.279 2.699 0 6.217 0 9.435 1.019-1.88 1.019-4.578 1.279-6.736.5-2.419-.26-4.298-1.78-6.197-.759-1.339-4.556-5.116-1.278-5.916 1.519-.28 5.077 2.958 6.096 4.038-2.279-3.518-8.615-6.197-4.058-10.794 1.78-2.159 5.317-1.879 7.856-2.418 3.537-.54 7.335 1.079 10.373.8-2.018 0-4.037-.8-6.076-.8-2.279-.26-4.297 0-6.336 0-1.26 0-4.557.26-5.577-.8-1-1.619 2.039-2.698 3.298-3.238-1.259 0-2.518.54-3.538.8-1.779-1.88 3.538-5.657 4.558-6.736 3.038-2.16 6.835-2.16 10.393-1.34-4.317-1.359-11.912.54-11.653-6.736.24 2.14 1 4.298.5 6.736-.76 2.16-2.778 3.758-4.557 1.88.24.539.24 1.338.5 1.878-1.52 3.518-5.317-.26-5.817-2.678-.52-1.9-.26-4.597.24-6.216.52-2.419 1.779-3.219 3.038-4.838-1.26.54-2.778 1.08-3.798 2.419-.76 1.08-1.259 4.317-3.298 3.238-.76-.28-2.278-4.038-2.518-5.117-.76-1.619-.26-3.778 0-5.676-2.039 4.057-3.558 1.898-6.856 1.898zM18.489 28.263C16.49 32.3 12.952 33.1 13.712 38.737c.5 4.297 3.278 9.134 7.295 10.473-2.518-1.879-7.295-7.515-5.037-10.473 3.038-4.018 11.593.819 14.851 2.418-4.277-1.879-7.535-3.478-11.813-4.297-6.815-1.34.5-5.097-.52-8.595z" fill="#580f22" fill-rule="evenodd" fill-opacity="1" stroke="none" /><path d="M39.696 56.486c-1.26 3.198-6.056 2.938-8.575 1.879-3.298-1.08-5.576-2.959-7.096-6.436M58.165 67.52c2.278 5.696 8.575 9.194 13.352 5.696" fill="none" stroke="#fff" stroke-width=".47970927px" stroke-linecap="butt" stroke-linejoin="miter" stroke-miterlimit="8" stroke-dasharray="none" stroke-opacity="1" /><path d="M31.92 58.724c-2.018 2.14-2.538 5.877-2.018 8.795.5 1.879 1.519 3.738 2.778 5.337.76 1.06 2.519 2.139 3.018 2.658M60.363 71.916c1 1.9-2.278 5.677-3.537 6.756-2.02 1.62-4.538 1.88-6.816 1.88M29.022 65.92c1-.8-2.538-2.918-3.298-3.198-1.519-.8-3.038-.52-4.577-.52M31.8 39.696c7.336-1.6 4.058-18.469-1.778-16.31M61.123 18.749c2.798-5.677 7.116-5.397 11.673-2.699M76.314 39.816c0-.28 3.278.26 4.037.54 1.76.8 3.278 1.858 4.538 3.198 1.499 1.619 3.258 4.297 3.018 6.696M62.162 52.408c.52 2.739 4.797 4.637 7.056 4.378 2.519 0 5.777-1.64 6.776-4.378M81.67 40.895c-2.658-3.777-3.198-8.635-.26-12.152" fill="none" stroke="#fff" stroke-width=".47970927px" stroke-linecap="butt" stroke-linejoin="miter" stroke-miterlimit="8" stroke-dasharray="none" stroke-opacity="1" /><path d="M63.661 15.01c.26 0 .5 0 .26.28-3.538 0-6.056.26-8.075-3.577M35.858 32.58c1.52-5.516 8.295-5.516 10.794-1.379M20.028 49.75c-1-1.34-3.298-.26-4.058.54-1.259 1.079-1.779 2.418-1.779 4.277M52.968 57.205c-.74 2.719-2.259 5.957-5.257 7.036-1.759.8-4.777-.28-5.537-2.159M61.683 34.739c2.518-.26 4.777 0 7.035-1.64 1.24-1.118 1.5-3.037 2.239-3.877M32.62 23.546c-1.799-4.318-1.279-8.635 3.558-9.994" fill="none" stroke="#fff" stroke-width=".47970927px" stroke-linecap="butt" stroke-linejoin="miter" stroke-miterlimit="8" stroke-dasharray="none" stroke-opacity="1" /><path d="M46.252 64.56c-.24 0 1.24 1.36 1.739 1.9.74 1.359.98 2.698.74 4.057-.5 2.699-2.479 5.397-5.197 5.137M40.495 53.767c-4.817.8-7.115-9.914-4.557-12.872M78.313 54.887c1.778.28 4.077 4.037 4.077 6.196.24 2.159-.76 4.038-1.02 5.637M24.345 29.062c-1 1.36-3.757.28-4.777-.54-1.26-1.099-2.019-2.458-2.019-4.097" fill="none" stroke="#fff" stroke-width=".47970927px" stroke-linecap="butt" stroke-linejoin="miter" stroke-miterlimit="8" stroke-dasharray="none" stroke-opacity="1" />
</symbol>
<symbol id="bioicons_macrophage" viewBox="0 0 149.972 161.802" overflow="visible">
<defs><clipPath clipPathUnits="userSpaceOnUse" id="bioicons_macrophage__a"><path d="M.16.48h149.75v161.902H.16z" /></clipPath></defs><path clip-path="url(#bioicons_macrophage__a)" d="M146.471 110.693c-2.318-2.838-3.957-5.677-7.315-8.515-2-1.439-.64-4.637 1.359-6.756 5.636-8.515.32-16.71.32-23.066 0-3.917-5.317-14.231-9.674-22.027-1-2.118 0-2.838.68-3.198 1.318-.72 2.318-1.439 2.677-2.478 2.32-4.637-2.678-4.637-5.996-3.918-.68 0-2.998.36-3.358-1.399-.64-4.637 1.36-11.393 1.999-15.63.68-4.997.36-9.595-1.999-11.353-1.32-.72-1.639 1.039-1 4.957.68 3.557-2.318 9.594-4.317 7.435-.68-.32-1.319-1.04-2.318-1.4-.36-.719-.36-1.078 0-1.798.32-2.838 3.638-4.957 3.997-7.795 1-4.957-1.998-3.918-3.677-1.08-1.68 2.839-1.68 7.116-4.997 8.555-3.318 1.4-5.997-2.518-8.675-3.917-5.637-2.479-3.998-4.957-3.318-8.156 1-3.557 4.677-6.755 1.679-7.475-2.679-1.08-4.677 8.875-5.997 10.993-1.319 2.159-4.996.36-12.672-1.759-7.635-1.759-15.31.72-19.628 2.12-4.677 1.078-3.998 0-5.676-.68-2-1.08-3.318-4.997-4.318-5.357-1.36-.36-2.678 1.799-1.679 3.558 1.32 1.799 3.998 3.917.68 5.676-3.358 2.159-6.676 3.558-9.994 3.558-3.318 0-6.676-4.597-8.315-5.317-1.999-.72-2.359-2.838-3.358-2.118-1.32.32-1 3.877 1.679 5.316 2.998 1.04 6.676 2.479 2.678 7.796-1.359 1.798-3.358 7.115-9.354 7.475-5.996.36-16.63-9.234-12.992.36 1 2.838 5.357 2.838 3.678 7.076-1.32 3.198-4.997 2.478-7.316 1.798-.68 4.238 4.637 3.199 2.319 7.436-2.319 3.918-9.675-1.08-10.674 3.918-1 3.917 4.357 1.758 6.356 3.557 2.319 1.76 4.637 3.518 3.318 7.436-3.678 14.551-1.319 23.066 1.68 35.498 3.317 13.872 7.315 21.307 7.994 24.506 1 3.198-1 4.957-1.998 8.155-1.36 3.198-1.68 6.036.64 7.475 2.358 1.4 1.678-5.677 1.678-8.515 0-3.198 2.319-2.158 3.998 1.04 1.679 3.198 2.678 4.997 4.317 6.036 1.36 1.08 0 4.997 0 7.835 0 2.479-3.638 7.076-2.319 8.875 1 2.119 2.32-.36 3.678-3.918 1.64-3.917 3.638-8.155 5.637-4.597 1.679 3.518 3.678 3.518 10.673 4.597 7.316.72 9.635 6.396 13.992 8.515 4.317 2.479 10.633.72 16.63-2.119 9.994-5.316 27.983-34.099 31.66-25.904 1.64 2.838 5.317 12.752 7.636 13.472 8.355 2.838.68-9.594-1.999-13.832-2.638-4.277-2.998-5.317-1.639-7.115 3.318-4.238 8.635 3.198 9.994 6.396 1.64 3.198 5.996 3.198 9.994 4.277 4.317.68 8.315 4.237 8.635 2.119.36-2.119-2.639-4.278-8.315-6.037-5.317-2.118-2.678-1.798-3.678-4.957-1-3.198-2.998-1.798-5.636-2.518-2.679-.68-8.675-7.076-6.357-9.914.68-.72 3.998-.72 7.996 3.558 2.998 2.119 4.997 6.716 9.354 5.317.64-3.558-10.354-11.354-7.356-14.911 3.358-3.558 4.358-.72 8.675.68 3.998 1.438 4.997 3.197 7.995 6.395 2.639 3.198 2.998 6.037 3.638 3.558 1-2.838.36-4.957-1.999-7.795z" fill="#cce1c3" fill-rule="evenodd" /><path d="M44.253 46.092c-17.67 2.519-22.706 22.426-20.667 38.777 1 7.795 2.998 17.03 6.636 24.145 3.997 7.475 11.673 11.033 18.349 15.27 8.315 6.077 16.67 12.793 27.023 7.116 11.313-6.036 15.31-20.587 21.667-30.9 3.998-6.397 10.634-11.754 3.638-18.51-4.997-4.957-14.991-3.198-21.307-5.676-2.998-1.08-7.676-2.119-9.035-6.037-2.638-5.676.68-7.115-5.317-12.432-5.996-6.036-12.672-10.674-20.987-11.753z" fill="#e0d0d9" fill-rule="evenodd" /><path d="M48.89 26.104C29.942 32.86 6.276 62.042 17.95 102.538c-2.68-9.594-2-54.007 30.94-76.434z" fill="#fff" fill-rule="evenodd" /><path d="M38.896 144.153c5.997 4.277 13.992 6.396 20.348 10.313 6.636 3.878 11.313.68 17.31-3.557 5.996-4.278 10.993-9.595 16.63-13.872 5.356-3.878 7.995-9.234 12.672-13.152 1.32-1.04 4.317-1.4 5.676-2.479 1.64-2.118.64-4.957 2.639-7.075 3.997-4.637 8.355.68 11.673-5.357 1.679-2.838 1-3.918 3.318-6.396 1.999-1.76 4.677-2.838 6.316-5.677 3.997-6.036 2.678-16.71 1.679-23.785-1-7.836-3.998-16.71-10.634-21.347 5.317 13.152 10.314 30.221-1 42.294-4.676 4.957-12.352 7.116-17.349 11.713-5.636 4.997-9.634 11.393-13.631 17.79-3.998 6.715-8.675 10.633-14.991 14.91-3.678 2.838-7.995 8.155-11.993 9.954-4.317 1.759-10.314-.72-14.311-1.44-4.358-.719-10.354-1.398-13.672-4.276z" fill="#b0d4ad" fill-rule="evenodd" /><path d="M27.543 87.907c3.038 14.231 2.359 17.43 10.354 24.905 7.995 7.115 17.35 11.753 24.345 15.67 6.996 3.878 14.352-.72 18.989-6.756 4.677-6.076 8.355-17.07 14.67-24.185-5.316 5.676-12.991 20.987-23.985 24.185-11.353 3.558-14.99-1.08-23.026-6.436-10.673-7.435-18.309-14.191-21.347-27.383z" fill="#c69ab2" fill-rule="evenodd" /><path d="M62.562 59.604c1.36 2.159 2.678 4.997 3.358 7.116 1.679 4.997 2.319 9.634 9.674 12.112 9.315 3.198 18.31 2.839 18.31 2.839-7.996 1.079-17.67 1.758-22.987-1.44-4.997-3.557-7.356-15.99-8.355-20.627z" fill="#fff" fill-rule="evenodd" /><path clip-path="url(#bioicons_macrophage__a)" d="M146.511 110.693c-2.358-2.838-3.997-5.677-7.315-8.195-2.359-1.76-.68-4.957 1.319-7.076 5.636-8.515.32-16.71.32-23.066 0-3.917-5.317-14.231-9.994-22.027-.64-2.118.36-2.838 1-3.198.998-.72 1.998-1.439 2.677-2.478 2.32-4.637-2.678-4.637-5.996-3.918-.68 0-2.998.36-3.318-1.399-.68-4.637 1.32-11.393 1.999-15.63.64-4.997.32-9.595-1.999-11.353-1.36-.72-1.679 1.039-1 4.957.64 3.557-2.358 9.594-4.357 7.435-.64-.32-1.319-1.04-2.638-1.4v-1.798c.64-2.838 3.638-4.957 4.317-7.795.68-4.598-1.998-3.918-3.997-.72-1.68 2.479-1.32 6.756-4.677 8.195-3.318 1.4-5.997-2.518-8.635-3.917-5.677-2.479-3.998-4.957-3.358-8.156.68-3.557 4.357-6.396 1.679-7.475-2.679-1.08-4.677 8.875-5.997 10.993-1.678 2.159-4.996.36-12.672-1.759-7.635-1.759-15.31.72-19.948 2.12-4.357 1.078-3.678.359-5.356-.68-2-1.08-3.318-4.997-4.638-5.357-1-.36-2.358 1.799-1.359 3.558 1.36 1.799 3.678 3.917.68 6.036-3.318 1.799-6.996 3.198-9.994 3.198-3.318 0-6.676-4.597-8.675-5.317-1.639-.72-1.999-2.838-2.998-2.118-1.32.32-1 4.237 1.679 5.316 2.998 1.4 6.676 2.479 2.678 7.796-1.359 1.798-3.678 7.115-9.674 7.475-5.676.36-16.31-8.875-12.672.36 1 2.838 5.357 2.838 3.678 7.076-1.32 3.198-4.997 2.478-7.676 1.798-.32 4.238 4.997 3.199 2.679 7.436-2.319 3.918-9.675-1.08-10.994 3.918-.68 3.917 4.318 1.758 6.676 3.557 1.999 1.76 4.637 3.518 3.318 7.436-3.678 14.551-1.319 23.066 1.68 35.498 3.317 13.872 7.315 21.307 7.994 24.506.64 3.198-1 4.957-2.358 8.155-1 3.198-1.64 6.036.68 7.475 2.318 1.4 1.998-5.677 1.998-8.515 0-2.838 2.319-2.158 3.998 1.04 1.679 3.198 2.678 4.997 3.997 6.036 1.68 1.44 0 4.997 0 7.835 0 2.479-3.318 7.076-2.318 9.235 1.319 1.759 2.318-.72 3.997-4.278 1.64-3.917 3.638-8.155 5.317-4.597 1.999 3.518 3.678 3.518 10.993 4.597 7.316.72 9.315 6.396 13.992 8.875 4.317 2.119 10.633.36 16.31-2.479 10.314-5.316 28.303-34.099 31.98-25.904 1.68 2.838 5.317 12.752 7.676 13.472 8.315 2.838.64-9.235-2.359-13.832-2.638-4.277-2.638-5.317-1.319-7.115 3.318-3.918 8.315 3.198 9.994 6.396 1.32 3.198 5.996 3.198 9.994 4.277 4.317.68 8.315 4.237 8.675 2.119.32-2.119-2.679-4.278-8.355-6.037-5.317-2.118-2.639-1.798-3.638-4.957-1-2.878-2.998-1.798-5.676-2.518-2.679-.68-8.675-7.076-6.317-9.914.64-.72 3.638-.72 7.636 3.558 3.358 2.119 5.356 6.716 9.354 5.317 1-3.558-9.994-11.354-6.996-14.911 2.998-3.558 4.318-.72 8.315.68 4.318 1.438 5.317 3.197 8.315 6.395 2.679 3.198 2.998 6.037 3.678 3.558.64-2.838.32-4.957-1.999-7.795" fill="none" stroke="#58585a" stroke-width=".64" stroke-linecap="round" stroke-linejoin="round" /><path d="M44.213 45.772C26.543 47.931 21.547 68.16 23.546 84.51c1 7.835 2.998 17.07 6.676 23.785 3.677 7.836 11.313 11.393 17.989 15.63 8.675 5.717 16.67 12.433 27.303 7.117 10.994-6.037 15.35-20.588 21.667-30.902 3.678-6.396 10.314-11.713 3.318-18.468-4.997-4.957-14.631-3.558-21.307-5.677-2.998-1.08-7.316-2.479-8.995-6.036-2.318-5.677.68-7.116-4.997-12.433-6.316-6.036-12.672-10.673-20.987-11.753" fill="none" stroke="#58585a" stroke-width=".32" stroke-linecap="round" stroke-linejoin="round" /><path d="M30.262 57.765c-2.679-2.479-3.038-7.116-.68-10.314 2.678-2.838 6.996-3.198 9.674-.68 2.679 2.839 2.998 7.436.68 10.274-2.679 3.198-6.996 3.198-9.674.72zm13.991-8.595c-1.679-1.399-1.679-3.877-.32-5.277 1.32-1.799 3.638-1.799 4.997-.36 1.64 1.4 1.96 3.878.32 5.277-1.319 1.76-3.678 1.76-4.997.36zM23.945 64.201c-1.359-1.08-1.359-2.878-.36-4.317 1-1.08 2.999-1.48 3.998-.36 1.32 1.44 1.32 3.238.36 4.317-1 1.44-2.998 1.44-3.998.36z" fill="#fff" fill-rule="evenodd" />
</symbol>
<symbol id="bioicons_collagen" viewBox="0 0 527.773 67.313" overflow="visible">
<defs><clipPath clipPathUnits="userSpaceOnUse" id="bioicons_collagen__a"><path d="M2.079 1.599h527.2v67.32H2.08z" /></clipPath></defs><path clip-path="url(#bioicons_collagen__a)" d="M525.362 60.603c-7.596-1.639-12.673-4.997-17.75-9.994-3.358-3.318-6.756-4.997-8.435-4.997-2.558 0-2.558 1.68-1.679 1.68 2.519 1.678 5.037 3.317 7.596 6.675a824.9 824.9 0 0 1 7.595 4.997c1.68 1.64 4.238 3.318 7.596 4.957h6.756c.84 0 2.518-1.639-1.68-3.318z" fill="#f0037f" fill-rule="evenodd" fill-opacity="1" stroke="none" /><path d="M479.99 45.812c5.036 0 10.912 6.756 16.829 11.833 5.037 5.077 9.234 6.756 16.79 8.435.84 0 0 1.679 0 0-2.519-1.679-5.037-3.358-7.556-5.077-3.358-1.679-6.716-5.037-10.074-8.435-4.237-3.358-9.274-8.435-12.632-10.154-3.358 0-5.037 0-5.876 1.72-1.72 3.357 0 1.678 2.518 1.678z" fill="#88c829" fill-rule="evenodd" fill-opacity="1" stroke="none" /><path d="M520.125 64.201c-2.519-1.679-5.037-1.679-7.556-3.358-4.197-1.679-7.555-5.037-10.913-8.355-5.037-5.037-8.395-10.074-13.432-10.074-.84 0-1.679 1.68-1.679 1.68 1.68 1.678 3.358 3.357 5.877 5.036 2.518 0 5.037 3.358 8.394 6.676 1.68 1.68 3.358 3.358 5.877 5.037h.84c0 1.68.839 1.68.839 1.68h.84c.839 0 .839 0 .839 1.678h2.519c0 1.64.839 1.64.839 1.64h5.037c.84 0 2.518 0 3.358-1.64h-1.68z" fill="#bb7984" fill-rule="evenodd" fill-opacity="1" stroke="none" /><path d="M502.535 62.482c-7.515-1.679-12.552-6.756-17.589-11.793-3.318-1.679-6.676-5.077-8.355-5.077-2.518 0-2.518 1.72-1.679 1.72 2.519 1.678 5.037 3.357 7.556 6.715 2.478 1.68 4.997 3.398 7.515 6.756 1.679 1.68 4.197 3.358 7.515 3.358.84 1.68 4.198 1.68 6.716 1.68.84 0 2.479-3.359-1.679-3.359z" fill="#f0037f" fill-rule="evenodd" fill-opacity="1" stroke="none" /><path d="M458.882 45.612c5.077 0 10.114 6.836 16.03 11.953 5.077 5.117 9.275 6.796 16.87 10.194.84 0 0 0 0 0-2.519-1.679-5.037-3.398-6.756-6.796-4.197-1.719-7.595-5.117-10.953-8.515-3.358-5.117-8.435-8.515-12.673-10.234-2.518-1.719-4.197-1.719-5.876 1.72-.88 1.678.84 0 3.358 1.678z" fill="#88c829" fill-rule="evenodd" fill-opacity="1" stroke="none" /><path clip-path="url(#bioicons_collagen__a)" d="M497.658 65.72c-2.518-1.639-5.916-1.639-8.435-3.318 0 0-5.916-4.997-9.274-8.315-4.237-4.997-8.475-9.994-13.512-11.673l-1.719 1.68c1.72 1.678 4.238 3.317 5.917 4.996 2.558 1.68 5.916 4.997 8.475 8.315 1.679 1.68 3.358 3.318 5.876 4.997l.88 1.68h.839l.84 1.638h.839c2.518 3.318 5.916 1.68 8.435 1.68 0 0 1.679 0 2.518-1.68h-1.679z" fill="#bb7984" fill-rule="evenodd" fill-opacity="1" stroke="none" /><path d="M480.709 62.442c-7.516-3.398-12.553-6.796-17.59-11.913-3.318-3.398-6.676-5.117-8.355-6.835-1.679 0-2.518 1.718-1.679 3.437 2.519 1.68 5.037 3.398 7.556 5.117 2.478 3.398 4.997 5.077 7.515 6.796 1.68 1.72 4.198 3.398 6.676 5.117 1.68 1.68 4.198 1.68 6.716 1.68 1.68 0 3.318-3.399-.84-3.399z" fill="#f0037f" fill-rule="evenodd" fill-opacity="1" stroke="none" /><path d="M436.136 42.015c4.237 1.718 10.114 8.594 16.03 13.751 4.237 5.157 9.274 8.595 16.87 10.314 0 0 0 1.679 0 0-2.519-1.719-5.037-3.438-7.596-5.157-3.358-3.438-6.716-6.876-10.114-10.314-3.358-5.157-8.434-10.313-12.672-12.032-2.518 0-4.197 0-5.876 1.719-1.72 3.437.84 1.719 3.358 1.719z" fill="#88c829" fill-rule="evenodd" fill-opacity="1" stroke="none" /><path d="M474.832 66.08c-2.518-1.719-5.037-1.719-6.716-3.398l-.84-1.719c-3.317-1.719-6.675-6.836-10.033-10.234-4.997-5.117-8.355-10.234-13.392-10.234 0 0-1.679 0-1.679 1.72 1.679 0 3.358 1.718 5.876 3.397 2.519 3.438 5.037 5.117 8.355 8.515 1.68 1.72 3.358 5.117 5.037 6.836h1.68v1.719c.839 0 .839 0 1.638 1.679h1.68l.839 1.719h1.679c1.679 1.679 2.518 1.679 5.037 1.679h2.478c-.8-1.679-.8-1.679-1.639-1.679z" fill="#bb7984" fill-rule="evenodd" fill-opacity="1" stroke="none" /><path d="M458.122 60.803c-7.595-1.719-12.672-6.756-17.749-11.833-3.358-3.398-6.756-5.077-8.435-6.756-1.679-1.719-2.558 1.68-1.679 1.68 3.358 1.678 5.037 3.397 7.596 6.755 2.518 3.398 5.077 5.077 7.595 6.756 1.679 1.68 4.237 5.077 6.756 5.077 1.679 1.68 4.237 1.68 6.756 1.68 1.679 1.678 3.358-1.68-.84-3.359z" fill="#f0037f" fill-rule="evenodd" fill-opacity="1" stroke="none" /><path d="M413.43 38.856c5.036 1.68 10.073 8.435 15.95 15.191 5.037 3.358 9.234 6.756 16.79 10.114 0 0 0 1.68 0 0-2.519-1.679-5.037-3.358-7.556-6.756-3.358-1.679-6.716-6.756-10.074-10.114-3.358-3.358-8.395-8.435-12.592-10.114-2.519-1.718-4.198-1.718-5.877 0-.839 3.358.84 1.68 3.358 1.68z" fill="#88c829" fill-rule="evenodd" fill-opacity="1" stroke="none" /><path d="M452.246 64.201c-2.519-1.679-4.198-1.679-6.756-5.037-4.197-3.358-7.595-6.716-10.953-10.034-4.238-5.037-7.596-10.074-13.512-11.753l-1.72 1.68c1.72 1.678 4.238 3.357 5.917 5.036 2.559 1.68 5.077 5.037 8.475 8.355l5.037 5.037c.84 1.68.84 1.68 1.72 1.68l.839 1.678h.839s.84 0 .84 1.68h.839c.84 0 .84 0 .84 1.678h1.678c1.72 1.64 2.559 1.64 5.077 1.64 0 0 1.68 0 2.519-1.64h-1.68z" fill="#bb7984" fill-rule="evenodd" fill-opacity="1" stroke="none" /><path d="M434.617 59.284c-6.716-3.358-12.593-8.395-16.79-13.472-3.358-3.358-6.716-5.037-8.395-6.716-2.519-1.719-2.519 1.68-1.68 1.68 2.52 1.678 4.198 3.357 7.556 6.715 1.68 3.398 5.037 5.077 6.716 8.435l7.556 5.037c.84 0 4.197 1.679 6.716 1.679.84 0 2.518-3.358-1.68-3.358z" fill="#f0037f" fill-rule="evenodd" fill-opacity="1" stroke="none" /><path d="M390.803 37.337c4.238 0 9.275 6.756 15.19 13.512 5.078 3.358 9.275 6.756 16.87 10.114.84 0 0 1.679 0 0-2.518-1.679-5.036-3.358-6.755-6.756-4.198-1.679-7.596-6.756-10.114-10.114-4.198-3.358-8.435-8.435-12.672-10.114-3.358-1.719-4.198-1.719-5.877 1.68-1.719 1.678 0 0 3.358 1.678z" fill="#88c829" fill-rule="evenodd" fill-opacity="1" stroke="none" /><path d="M429.42 60.963c-2.519-1.719-5.037-1.719-6.716-3.438l-.84-1.719c-4.157-3.398-7.515-6.836-10.034-10.274-4.997-5.116-8.355-10.273-13.391-11.992-.84 0-1.68 1.719-1.68 1.719l5.037 5.157c3.358 1.718 5.877 5.116 8.355 8.554 1.68 1.72 4.198 3.438 5.877 6.836h.84c.839 0 .839 0 .839 1.72h.84c.799 0 .799 1.718.799 1.718h1.679l.84 1.72h.839c1.679 1.678 3.358 1.678 5.037 1.678.84 0 2.518 0 3.318-1.679h-1.64z" fill="#bb7984" fill-rule="evenodd" fill-opacity="1" stroke="none" /><path d="M411.75 55.566c-6.715-3.358-12.592-8.395-16.79-13.392-3.357-3.358-6.715-5.037-8.394-6.715-1.68 0-2.519 1.678-1.68 1.678 2.52 1.68 5.038 3.358 7.556 8.395 1.68 1.64 5.037 3.318 6.716 6.676l7.556 5.037c.839 1.64 4.197 1.64 6.715 1.64.84 0 2.519-3.319-1.679-3.319z" fill="#f0037f" fill-rule="evenodd" fill-opacity="1" stroke="none" /><path d="M368.217 33.58c4.197 0 10.034 6.756 15.91 13.511 4.158 5.077 9.195 6.756 15.91 10.114.8 0 0 1.68.8 0-3.318-1.679-4.997-3.358-7.515-5.037-4.198-3.398-6.676-6.756-10.034-10.153-3.358-5.037-8.355-10.114-12.553-11.793-2.518-1.72-4.197-1.72-5.876 1.679-1.68 1.679.84 0 3.358 1.679z" fill="#88c829" fill-rule="evenodd" fill-opacity="1" stroke="none" /><path d="M406.913 57.205c-2.518-1.679-5.077-1.679-6.756-3.358l-.839-1.679c-3.358-1.679-6.756-6.716-10.114-10.074-5.077-5.036-8.475-10.073-13.512-11.752l-1.719 1.679c1.72 1.679 3.398 3.358 5.917 5.037 2.558 1.679 5.077 5.036 8.475 8.394 1.679 1.68 3.358 3.358 5.037 6.716h.84c.879 0 .879 1.68.879 1.68h1.679s0 1.678.839 1.678h.84l.839 1.68h1.679c.84 1.678 2.558 1.678 4.237 1.678h3.358c-.84-1.679-1.679-1.679-1.679-1.679z" fill="#bb7984" fill-rule="evenodd" fill-opacity="1" stroke="none" /><path d="M389.204 52.368c-6.716-3.358-12.592-8.395-16.79-13.392-3.358-3.358-6.716-5.037-8.395-6.716-2.518 0-2.518 1.68-1.679 1.68 2.519 1.678 4.198 5.036 7.556 8.394 1.679 1.64 5.037 3.318 6.716 6.676 2.518 1.68 5.037 3.358 7.555 5.037.84 1.64 4.198 1.64 6.716 1.64.84 0 2.519-1.64-1.679-3.319z" fill="#f0037f" fill-rule="evenodd" fill-opacity="1" stroke="none" /><path d="M345.39 30.382c4.238 0 9.275 6.755 15.191 13.511 5.077 5.077 9.275 6.756 16.87 10.114.84 0 0 1.68 0 0-2.518-1.679-5.037-3.358-6.756-5.037-4.197-3.398-7.595-6.756-10.114-10.154-4.197-5.036-8.434-10.113-12.672-11.792-3.358-1.72-4.197-1.72-5.876 1.679-1.72 1.679 0 0 3.358 1.679z" fill="#88c829" fill-rule="evenodd" fill-opacity="1" stroke="none" /><path d="M384.087 54.047c-2.518-1.679-5.037-1.679-6.716-3.358-.84 0-.84 0-.84-1.679-4.157-1.679-7.515-6.716-10.033-10.034-4.997-5.037-8.355-10.074-13.392-11.752-.84 0-1.679 1.678-1.679 1.678l5.037 5.037c3.358 1.68 5.876 5.037 8.355 8.355 1.679 1.68 4.197 5.037 5.876 6.716h.84l.84 1.68h.839l.8 1.678h1.678c0 1.68 0 1.68.84 1.68h.84c1.678 1.638 3.357 1.638 5.036 1.638h3.318c-.8-1.639-1.639-1.639-1.639-1.639z" fill="#bb7984" fill-rule="evenodd" fill-opacity="1" stroke="none" /><path d="M366.418 49.13c-6.716-3.438-12.632-8.595-16.83-13.751-3.358-3.438-6.716-5.157-8.395-6.876-1.679 0-2.558 1.719-1.679 1.719 2.519 3.438 5.037 5.157 7.556 8.594l6.716 6.876c2.558 1.72 5.077 3.438 7.595 5.157.84 1.72 4.197 1.72 6.716 1.72.84 0 2.518-1.72-1.68-3.439z" fill="#f0037f" fill-rule="evenodd" fill-opacity="1" stroke="none" /><path d="M322.884 27.184c4.158 0 9.994 8.474 15.87 13.551 4.158 5.077 9.155 8.475 15.871 10.154.8 1.68 0 1.68.8 0-3.318-1.679-4.997-3.398-7.516-5.077-4.157-3.398-6.676-6.756-9.994-10.154-3.358-5.077-8.355-10.153-12.552-11.832-2.479-1.72-4.158-1.72-5.837 1.679-1.679 1.679.84 1.679 3.358 1.679z" fill="#88c829" fill-rule="evenodd" fill-opacity="1" stroke="none" /><path d="M361.5 50.89c-2.518-1.72-5.076-1.72-6.755-3.439h-.84c-3.357-3.438-6.755-8.595-10.113-12.032-5.077-5.157-8.475-10.314-13.512-12.033l-1.72 1.719c1.72 1.719 3.399 3.438 5.917 5.157 2.559 1.719 5.077 5.157 8.475 8.594 1.68 1.72 3.358 5.157 5.037 6.876h.84l.88 1.72c.839 0 .839 0 1.678 1.718h.84s.839 0 .839 1.72h2.518c.84 1.678 2.559 1.678 4.238 1.678h3.358c-.84 0-1.68-1.679-1.68-1.679z" fill="#bb7984" fill-rule="evenodd" fill-opacity="1" stroke="none" /><path d="M345.55 45.452c-6.755-1.679-12.672-6.636-17.749-11.593-2.518-3.318-5.916-4.957-8.435-6.635-1.679 0-2.558 1.678-1.679 1.678 3.358 1.64 5.037 3.318 8.435 6.596 1.68 3.318 5.077 4.997 6.756 6.636 2.519 1.64 5.077 4.957 7.596 4.957.84 1.64 4.237 1.64 6.756 1.64.839 0 2.518-1.64-1.68-3.279z" fill="#f0037f" fill-rule="evenodd" fill-opacity="1" stroke="none" /><path d="M300.898 25.445c5.057 1.659 10.114 8.315 16.03 13.312 5.057 4.996 10.114 6.655 16.87 9.973h.84c-3.359-1.659-5.058-3.318-7.596-6.655-4.218-1.66-7.596-4.977-10.114-8.315-4.218-4.997-9.294-9.974-12.672-11.653-3.358 0-5.057 0-5.897 1.679-1.699 3.318 0 1.659 2.539 1.659z" fill="#88c829" fill-rule="evenodd" fill-opacity="1" stroke="none" /><path d="M340.314 47.251c-2.519 0-5.037-1.699-6.716-3.418h-.84c-4.197-3.398-7.555-6.815-10.074-10.213-5.037-5.117-8.394-10.234-13.431-10.234-.84 0-1.68 0-2.519 1.719 2.519 0 4.198 1.699 5.877 3.398 3.358 1.699 5.876 5.117 8.394 8.515 1.68 1.719 4.198 3.417 5.877 5.116 0 1.7.84 1.7.84 1.7h.839c.84 1.718.84 1.718 1.679 1.718.84 1.7.84 1.7 1.679 1.7h.84c0 1.698.839 1.698 1.678 1.698.84 0 2.519 1.7 4.198 1.7.84 0 2.518-1.7 3.358-1.7-.84 0-1.68 0-1.68-1.699z" fill="#bb7984" fill-rule="evenodd" fill-opacity="1" stroke="none" /><path d="M322.704 42.234c-6.696-1.699-12.532-6.775-17.569-11.852-3.338-1.68-6.676-3.378-8.355-5.077-1.679 0-2.518 1.699-1.679 3.398 2.519 1.679 5.017 1.679 8.375 5.077 1.66 1.679 4.178 5.076 6.696 6.755 2.498 1.7 5.017 3.398 7.515 3.398.84 1.68 4.178 1.68 6.696 1.68.84 0 2.499-3.379-1.679-3.379z" fill="#f0037f" fill-rule="evenodd" fill-opacity="1" stroke="none" /><path d="M278.131 27.184c4.198 0 10.094 5.076 15.99 10.133 5.038 5.077 9.255 6.756 16.81 8.455.84 0 0 1.68.84 0-3.358-1.699-5.876-3.378-7.555-5.077-4.218-1.679-7.576-5.057-10.934-8.435-3.378-3.378-8.415-8.454-12.632-8.454-3.358-1.7-5.037-1.7-5.877 1.699-1.699 3.377.84 1.679 3.358 1.679z" fill="#88c829" fill-rule="evenodd" fill-opacity="1" stroke="none" /><path d="M317.847 44.073c-2.518 0-5.037-1.679-6.716-1.679-.859 0-.859-1.699-.859-1.699-4.197-1.679-7.555-5.057-10.933-8.435-5.037-5.076-8.415-10.153-13.452-8.454h-1.7c1.7 1.699 3.379 3.378 5.897 5.076 2.519 1.68 5.057 3.378 8.415 6.756 1.68 1.68 3.358 3.378 5.897 5.057l.839 1.7h.84s.839 0 .839 1.678h2.518c0 1.7.84 1.7.84 1.7h1.699c.84 1.678 2.518 1.678 4.197 1.678.84 0 2.519-1.679 3.358-1.679-.84 0-1.679 0-1.679-1.699z" fill="#bb7984" fill-rule="evenodd" fill-opacity="1" stroke="none" /><path d="M300.138 40.356c-7.555-1.66-13.432-6.676-17.63-10.034-3.357-1.66-6.715-3.338-9.234-3.338-1.679-1.68-2.518 0-1.679 1.679 3.358 1.659 5.037 1.659 8.395 5.017 2.519 1.659 5.037 3.338 7.556 5.017 2.518 1.659 5.037 3.338 7.555 4.997h6.716c.84 0 2.519-3.338-1.679-3.338z" fill="#f0037f" fill-rule="evenodd" fill-opacity="1" stroke="none" /><path d="M254.806 26.824c5.037 0 10.073 6.836 16.79 10.254 5.036 5.116 9.234 6.835 16.79 8.534h.839c-3.358-1.699-5.877-3.418-7.556-5.117-4.197-1.719-7.555-5.136-10.913-8.554-4.198-3.418-9.234-6.836-13.432-8.555-2.518 0-4.197 0-5.876 3.438-.84 3.418.84 1.699 3.358 0z" fill="#88c829" fill-rule="evenodd" fill-opacity="1" stroke="none" /><path d="M295.001 43.913c-2.518-1.719-5.017-1.719-7.535-3.418-4.178-1.719-7.536-5.136-10.874-8.554-5.017-3.418-8.375-8.555-14.231-8.555l-1.679 1.719c2.518 1.719 4.197 1.719 5.856 3.418 3.358 1.719 5.877 5.137 9.215 6.836 1.679 1.719 3.338 3.417 5.856 5.136h.84c0 1.7.84 1.7.84 1.7h.839c.82 0 .82 0 .82 1.718h2.518s.84 0 1.679 1.7h4.177c.84 0 2.519-1.7 3.338-1.7h-1.659z" fill="#bb7984" fill-rule="evenodd" fill-opacity="1" stroke="none" /><path d="M276.612 42.234c-6.756-1.699-12.672-6.775-17.729-10.153-3.378-3.378-6.756-5.077-8.455-5.077-2.538-1.7-2.538 0-1.679 1.699 2.519 1.679 5.057 3.378 8.435 5.077 1.7 1.679 4.238 5.076 6.756 6.755 2.538 1.7 5.077 3.398 7.615 5.077h6.756c.84 0 2.519-3.378-1.699-3.378z" fill="#f0037f" fill-rule="evenodd" fill-opacity="1" stroke="none" /><path d="M232.14 27.184c4.197 0 10.073 6.755 15.95 11.832 5.037 3.378 9.234 6.756 16.79 8.435.839 0 0 0 0 0-2.519-1.679-5.037-3.378-6.716-5.057-4.198-3.378-7.556-6.756-10.914-10.134-3.358-3.378-8.395-8.454-12.592-8.454-3.358-1.7-5.037-1.7-5.877 1.699-1.679 3.377 0 1.679 3.358 1.679z" fill="#88c829" fill-rule="evenodd" fill-opacity="1" stroke="none" /><path d="M271.396 45.732c-2.519-1.719-5.037-1.719-6.716-3.438h-.84c-4.197-3.438-7.555-6.875-10.913-10.313-5.037-3.438-8.395-8.595-13.432-8.595-.84 0-1.68 0-1.68 1.719 1.68 0 3.359 1.719 5.877 3.438 2.519 1.719 5.037 5.157 8.395 6.876 1.68 1.718 3.358 3.437 5.877 5.156 0 1.72.84 1.72.84 1.72h.839l.84 1.718h.839c.84 0 .84 0 1.679 1.72h2.518c.84 1.718 2.519 1.718 4.198 1.718.839 0 2.518-1.719 3.358-1.719h-1.68z" fill="#bb7984" fill-rule="evenodd" fill-opacity="1" stroke="none" /><path d="M253.806 42.354c-6.676-1.699-12.512-6.816-17.53-10.233-3.337-3.398-6.675-5.097-8.334-5.097-1.68-1.72-2.519 0-1.68 1.699 3.339 1.699 5.018 3.398 8.356 5.116 1.659 3.398 4.157 5.097 6.676 6.816 2.498 1.7 4.997 3.398 7.495 5.097.84 0 4.178 0 6.676 1.7.84 0 2.499-3.399-1.659-5.098z" fill="#f0037f" fill-rule="evenodd" fill-opacity="1" stroke="none" /><path d="M210.153 25.445c5.057 0 10.114 6.656 16.03 13.312 5.057 3.318 10.114 6.655 16.87 8.314.84 0 0 1.66.84 0-3.359-1.659-5.058-3.318-7.596-4.996-4.218-3.318-7.596-6.656-10.114-9.974-4.218-3.338-9.294-8.315-13.512-9.994-2.518 0-4.217 0-5.896 1.679-.86 3.318.84 1.659 3.378 1.659z" fill="#88c829" fill-rule="evenodd" fill-opacity="1" stroke="none" /><path d="M248.73 45.353c-1.68-1.68-5.877 0-7.556-1.68-.84 0-6.716-6.755-10.074-10.133-4.198-5.077-7.555-10.154-13.432-10.154 0 0-1.679 0-1.679 1.699 2.519 1.699 4.198 1.699 5.877 5.077 2.518 1.679 5.876 3.378 8.394 6.756 1.68 3.378 3.358 5.057 5.877 6.756h.84c0 1.679.839 1.679.839 1.679h.84l.839 1.698c2.518 1.68 6.716 0 8.395 0h3.358c-.84 0-1.68-1.698-2.519-1.698z" fill="#bb7984" fill-rule="evenodd" fill-opacity="1" stroke="none" /><path d="M231.96 42.294c-7.516-1.719-12.533-6.875-17.57-12.032-3.338-1.72-6.676-5.157-8.355-5.157-1.679-1.72-2.518 1.719-1.679 1.719 3.358 1.719 5.017 3.438 8.375 6.876 1.66 1.719 4.178 5.156 6.696 6.875 1.659 1.72 4.177 3.438 7.515 5.157.84 0 4.178 0 5.857 1.72 1.679 0 3.338-3.439-.84-5.158z" fill="#f0037f" fill-rule="evenodd" fill-opacity="1" stroke="none" /><path d="M187.566 23.486c5.037 0 10.074 6.856 15.95 13.711 5.038 3.418 9.235 6.836 16.79 10.254-2.518-1.699-5.036-3.418-7.555-6.836-3.358-1.719-6.716-6.855-10.074-10.273-3.358-3.418-8.395-8.555-12.592-10.274-2.519-1.72-4.198-1.72-5.877 1.719-.84 1.699.84 1.699 3.358 1.699z" fill="#88c829" fill-rule="evenodd" fill-opacity="1" stroke="none" /><path d="M226.083 47.071c-2.518-1.679-4.197-3.357-6.696-5.036-4.177-3.338-7.535-6.696-10.873-10.034-4.178-5.017-8.375-10.054-13.392-11.733l-1.68 1.679c1.68 1.679 4.198 3.358 5.857 5.037 2.519 1.659 5.037 5.017 8.375 8.355 1.68 1.679 3.338 3.358 5.017 5.037.84 1.659.84 1.659 1.68 1.659h.839c0 1.679.84 1.679.84 1.679h.819c0 1.678.84 1.678.84 1.678h.839c.839 1.68.839 1.68 1.679 1.68 1.659 0 2.498 1.658 5.016 1.658 0 0 1.68-1.659 2.499-1.659h-1.659z" fill="#bb7984" fill-rule="evenodd" fill-opacity="1" stroke="none" /><path d="M209.373 42.254c-7.595-3.358-12.672-8.395-17.73-13.431-3.377-3.358-6.755-5.037-8.454-6.716-1.679 0-2.538 1.679-1.679 3.358 3.378 1.679 5.057 3.358 8.435 6.715 1.699 1.68 4.237 5.037 6.756 6.716 1.699 1.68 4.237 3.358 6.756 5.037 1.699 0 4.237 1.68 6.756 1.68 1.699 0 3.378-3.359-.84-3.359z" fill="#f0037f" fill-rule="evenodd" fill-opacity="1" stroke="none" /><path d="M164.72 20.228c5.037 0 10.094 8.475 15.99 13.552 5.037 5.076 9.255 8.454 16.81 11.832-2.518-1.679-5.037-5.077-7.555-6.756L179.87 28.703c-3.378-5.077-8.415-10.154-12.632-11.853-2.519 0-4.198-1.7-5.877 1.699-.86 3.378.84 1.679 3.358 1.679z" fill="#88c829" fill-rule="evenodd" fill-opacity="1" stroke="none" /><path d="M203.517 44.033c-2.539-1.699-4.218-1.699-6.756-3.418-4.218-3.418-7.596-6.855-10.974-11.992-4.217-5.137-7.595-10.274-12.672-10.274h-2.538c2.538 1.719 4.237 3.438 5.916 5.137 2.538 3.438 5.916 5.137 8.455 8.575 1.679 3.417 3.378 5.136 5.057 6.835.84 0 .84 0 1.699 1.72h.84l.839 1.718h.84l.859 1.7h.84c.839 0 .839 0 1.678 1.718 1.7 0 2.539 0 5.077 1.7 0 0 1.68-1.7 2.519-1.7 0 0-.84 0-1.68-1.719z" fill="#bb7984" fill-rule="evenodd" fill-opacity="1" stroke="none" /><path d="M185.887 38.637c-6.716-1.7-12.592-8.455-16.79-13.512-3.357-3.378-6.715-5.077-8.394-5.077-1.68-1.7-2.519 0-1.68 1.699 2.52 1.679 4.198 3.378 7.556 6.756 1.679 1.679 5.037 5.057 6.716 6.756 2.518 1.679 5.037 3.378 7.555 5.057.84 1.699 4.198 1.699 6.716 3.378.84 0 2.519-3.378-1.679-5.057z" fill="#f0037f" fill-rule="evenodd" fill-opacity="1" stroke="none" /><path d="M142.074 17.11c4.217 0 9.274 8.435 16.03 13.491 4.218 5.077 9.275 8.455 16.03 11.813h.84c-3.358-1.679-5.057-5.057-7.595-6.736-4.218-3.378-6.736-6.756-10.114-10.133-3.378-5.057-8.435-10.134-12.673-11.813-2.518 0-4.217-1.7-5.896 1.679-1.699 3.378.84 1.699 3.378 1.699z" fill="#88c829" fill-rule="evenodd" fill-opacity="1" stroke="none" /><path d="M180.67 40.336c-2.498 0-5.016-1.68-6.675-3.358h-.84c-4.177-3.358-7.515-6.716-10.014-10.074-4.997-6.716-8.335-11.753-13.352-11.753h-1.679c1.68 1.679 3.338 3.358 5.857 5.037 2.498 3.358 4.997 5.037 8.335 10.074 1.679 1.679 3.338 3.358 5.017 5.037l.84 1.679h.819c.84 0 .84 1.679 1.679 1.679h.84l.819 1.679h.84s.839 1.679 1.678 1.679c.82 0 2.499 0 4.158 1.679.839 0 2.518-1.68 3.338-1.68-.82 0-1.66 0-1.66-1.678z" fill="#bb7984" fill-rule="evenodd" fill-opacity="1" stroke="none" /><path d="M163.021 35.439c-6.716-1.7-12.592-8.455-16.79-11.833-3.358-3.378-6.716-6.756-8.395-6.756-1.679-1.7-2.518 0-1.679 1.699 2.519 1.679 5.037 3.378 7.556 6.756 2.518 1.679 5.037 5.057 7.555 6.756 1.68 1.679 4.198 5.057 6.716 6.755 1.68 0 4.198 0 6.716 1.68.84 0 2.519-3.378-1.679-5.057z" fill="#f0037f" fill-rule="evenodd" fill-opacity="1" stroke="none" /><path d="M119.368 13.472c5.037 1.679 10.074 8.375 15.95 13.392 5.037 5.017 9.234 8.375 16.79 11.713-2.519-1.66-5.037-5.017-7.556-6.696-3.358-3.338-6.716-6.696-10.073-10.034-3.358-5.017-8.395-10.054-12.593-11.733-2.518 0-4.197 0-5.876 1.679-.84 3.358.84 1.679 3.358 1.679z" fill="#88c829" fill-rule="evenodd" fill-opacity="1" stroke="none" /><path d="M158.184 38.836c-2.538-1.679-5.057-3.358-6.756-5.036h-.84c-3.377-3.338-6.755-6.696-10.133-10.034-5.077-6.696-8.455-11.733-13.512-11.733 0 0-1.699 0-1.699 1.679 1.7 0 4.238 1.679 5.917 5.037 2.538 1.659 5.076 5.017 8.454 8.355 1.68 1.679 3.378 3.358 5.057 5.037.84 0 .84 1.659 1.7 1.659.839 0 .839 1.678 1.678 1.678h.84l.86 1.68h.839c.84 0 .84 1.678 1.679 1.678 1.699 0 2.538 1.66 5.077 1.66 0 0 1.679 0 2.518-1.66h-1.679z" fill="#bb7984" fill-rule="evenodd" fill-opacity="1" stroke="none" /><path d="M140.555 32.32c-6.736-1.699-12.633-6.755-16.83-11.832-3.378-3.378-6.736-6.756-8.415-6.756-1.679-1.7-2.538 0-1.679 1.699 2.519 1.679 4.198 3.378 7.576 6.756 1.679 1.679 5.036 5.056 6.715 6.755 2.539 3.378 5.057 5.057 7.576 6.756.84 0 4.217 1.68 6.736 1.68.84 0 2.518-3.379-1.68-5.058z" fill="#f0037f" fill-rule="evenodd" fill-opacity="1" stroke="none" /><path d="M96.661 10.274c4.218 1.679 9.275 8.395 16.03 13.432 4.218 5.037 9.275 8.395 16.031 11.753h.84c-3.358-1.68-5.057-3.358-7.596-6.716-4.217-3.358-6.736-6.716-10.114-10.074-3.378-3.358-8.435-8.395-12.672-10.074-2.519-1.68-4.218-1.68-5.897 0-1.699 3.358.84 1.679 3.378 1.679z" fill="#88c829" fill-rule="evenodd" fill-opacity="1" stroke="none" /><path d="M135.338 35.678c-2.518-1.719-5.017-3.438-6.696-5.156h-.84c-4.177-3.438-7.535-6.876-10.033-10.294-5.017-5.157-8.375-12.033-13.392-12.033 0 0-1.68 0-1.68 1.719 1.68 0 3.359 1.719 5.857 5.157 2.519 1.719 5.037 5.157 8.375 8.575 1.68 1.719 3.338 3.438 5.017 5.157l.84 1.719h.84c.839 1.718.839 1.718 1.678 1.718h.82c0 1.72.84 1.72.84 1.72h.839s.839 1.718 1.679 1.718c.839 0 2.498 1.7 4.177 1.7.84 0 2.518 0 3.338-1.7h-1.659z" fill="#bb7984" fill-rule="evenodd" fill-opacity="1" stroke="none" /><path d="M117.689 30.162c-6.736-3.378-12.633-8.435-16.83-13.512-3.378-3.378-6.736-6.756-8.415-6.756-1.679-1.699-2.538 0-1.679 1.699 2.518 1.679 5.037 3.378 7.575 6.756 2.519 3.378 5.037 5.057 7.556 6.756 1.699 3.378 4.217 5.057 6.736 6.756 1.699 0 4.217 1.679 6.736 1.679.84 0 2.518-3.378-1.68-3.378z" fill="#f0037f" fill-rule="evenodd" fill-opacity="1" stroke="none" /><path d="M73.975 6.536c5.037 1.699 10.094 8.455 15.99 15.19 5.037 3.379 9.255 6.757 16.81 10.135 0 0 0 1.679 0 0-2.518-1.68-5.037-3.378-7.555-6.756-3.378-1.68-6.736-6.756-10.094-10.114-3.378-3.378-8.415-8.455-12.632-10.134-2.519-1.699-4.198-1.699-5.877 0-.86 3.378.84 1.679 3.358 1.679z" fill="#88c829" fill-rule="evenodd" fill-opacity="1" stroke="none" /><path d="M112.772 31.88c-2.539-1.678-5.057-3.357-6.756-5.036h-.84c-3.378-3.338-6.756-6.696-10.134-10.034-5.077-5.017-8.454-11.733-13.511-11.733 0 0-1.7 0-1.7 1.679 1.7 1.679 4.238 3.358 5.917 5.037 2.538 1.659 5.077 5.017 8.455 8.355 1.679 1.679 3.378 3.358 5.057 5.037.84 1.659.84 1.659 1.699 1.659.84 1.679.84 1.679 1.679 1.679h.84c0 1.679.859 1.679.859 1.679h.84c.839 1.679.839 1.679 1.678 1.679 1.7 1.659 2.539 1.659 5.077 1.659 0 0 1.68 0 2.519-1.66h-1.68z" fill="#bb7984" fill-rule="evenodd" fill-opacity="1" stroke="none" /><path d="M96.821 27.004c-6.716-3.338-12.592-8.375-16.79-13.392-3.357-3.338-6.715-5.017-8.394-5.017-2.519-1.68-2.519 0-1.68 1.679 2.52 1.679 4.198 3.338 7.556 6.696 1.679 1.659 5.037 5.017 6.716 6.696 2.518 1.659 5.037 3.338 7.555 5.017 1.68 0 4.198 1.659 6.716 1.659.84 0 2.519-3.338-1.679-3.338z" fill="#f0037f" fill-rule="evenodd" fill-opacity="1" stroke="none" /><path d="M52.168 6.916c5.057 0 10.114 6.696 16.87 11.713 4.218 5.017 9.275 8.375 16.03 10.054.84 0 .84 1.659.84 0-2.519-1.68-5.057-3.358-7.595-5.037-4.218-3.338-7.596-6.696-10.114-10.034-4.218-3.358-8.435-8.375-12.673-10.054-3.358-1.68-5.057-1.68-5.896 1.679-1.699 3.358 0 1.679 2.538 1.679z" fill="#88c829" fill-rule="evenodd" fill-opacity="1" stroke="none" /><path d="M91.604 28.643c-2.498-1.7-5.016-1.7-6.675-3.398h-.84c-3.338-3.398-7.515-6.796-10.014-10.194C69.078 9.954 65.74 3.158 60.723 3.158c-.84 0-1.679 1.7-1.679 1.7 1.68 1.698 3.338 3.397 5.017 5.096 3.338 1.699 5.837 5.097 9.175 8.495 1.679 1.699 3.338 3.398 5.017 5.097.84 0 .84 0 .84 1.699h.819c.84 0 .84 0 1.679 1.699h.839s.82 0 .82 1.699h2.518c1.659 1.699 2.499 1.699 4.997 1.699 0 0 1.679 0 2.498-1.7h-1.659z" fill="#bb7984" fill-rule="evenodd" fill-opacity="1" stroke="none" /><path d="M73.975 21.967c-6.696-1.66-12.532-6.676-17.57-10.034-3.337-3.338-6.675-5.017-8.354-5.017-1.68 0-2.519 1.679-1.68 1.679 3.359 1.679 5.018 3.338 8.376 6.696 1.659 1.659 5.017 3.338 6.696 5.017 2.498 1.659 5.017 3.338 7.515 4.997h6.696c.84 0 2.499-3.338-1.679-3.338z" fill="#f0037f" fill-rule="evenodd" fill-opacity="1" stroke="none" /><path d="M29.582 6.596c4.178 0 10.034 6.876 15.89 12.033 5.017 3.438 10.054 6.876 16.75 8.595h.82c-3.338-1.72-5.017-3.438-7.516-5.157-4.197-3.438-7.535-6.876-10.893-8.595-3.338-5.157-8.355-8.595-12.552-10.314-2.499 0-4.178 0-5.857 1.719-.84 3.438.84 1.719 3.358 1.719z" fill="#88c829" fill-rule="evenodd" fill-opacity="1" stroke="none" /><path d="M69.118 25.505c-2.518-1.72-5.037-1.72-6.716-3.438h-.86c-4.197-3.438-7.555-6.876-10.933-8.595-4.197-5.157-8.415-10.314-13.452-10.314L35.46 4.877c1.698 1.719 4.217 1.719 5.896 3.438 2.518 1.719 5.896 5.157 8.415 8.595 1.679 1.719 4.217 3.438 5.896 5.157h.84c.84 0 .84 1.719.84 1.719h1.678l.84 1.719H61.543c.86 0 .86 1.719 1.699 1.719h5.037s1.679 0 2.518-1.72h-1.679z" fill="#bb7984" fill-rule="evenodd" fill-opacity="1" stroke="none" /><path d="M51.469 20.108c-6.756-1.66-12.673-4.957-17.73-8.235-3.377-3.298-6.755-4.957-9.294-4.957-1.699 0-1.699 1.659-.84 1.659 2.52 1.639 5.058 3.298 7.596 6.576 2.539 1.659 5.077 3.298 7.595 4.957 2.539 1.639 5.077 1.639 7.616 3.278h6.756c.84 0 2.518-3.278-1.7-3.278z" fill="#f0037f" fill-rule="evenodd" fill-opacity="1" stroke="none" /><path clip-path="url(#bioicons_collagen__a)" d="M6.076 8.495c5.037 0 10.914 5.117 16.79 10.214 5.037 3.418 10.074 5.117 16.79 6.816.84 0 .84 1.699.84 0-3.359-1.7-5.877-1.7-7.556-5.097-4.197-1.72-7.555-5.117-10.913-6.816-4.198-3.418-9.235-8.535-13.432-8.535-2.519 0-4.198 0-5.037 1.719-1.68 3.398 0 1.699 2.518 1.699z" fill="#88c829" fill-rule="evenodd" fill-opacity="1" stroke="none" /><path d="M46.272 23.786c-2.519-1.72-5.017-1.72-6.696-1.72-.84 0-.84-1.718-.84-1.718-4.177-1.72-7.535-5.157-10.873-6.876-5.017-5.157-8.375-10.314-13.392-8.595-.84 0-1.679 0-2.518 1.719 2.518 0 4.197 1.719 5.856 3.438 3.358 1.719 5.877 3.438 9.215 6.876 1.679 1.719 3.338 3.438 5.856 3.438 0 1.719.84 1.719.84 1.719h.84c.839 0 .839 1.719 1.658 1.719.84 0 1.679 0 1.679 1.719h2.519c1.659 1.719 2.498 1.719 5.016 0 0 0 1.68 0 2.499-1.72h-1.659z" fill="#bb7984" fill-rule="evenodd" fill-opacity="1" stroke="none" /><path clip-path="url(#bioicons_collagen__a)" d="M525.362 60.603c-7.596-1.639-12.673-4.997-17.75-9.994-3.358-3.318-6.756-4.997-8.435-4.997-2.558 0-2.558 1.68-1.679 1.68 2.519 1.678 5.037 3.317 7.596 6.675a824.9 824.9 0 0 1 7.595 4.997c1.68 1.64 4.238 3.318 7.596 4.957h6.756c.84 0 2.518-1.639-1.68-3.318M479.99 45.812c5.036 0 10.912 6.756 16.829 11.833 5.037 5.077 9.234 6.756 16.79 8.435.84 0 0 1.679 0 0-2.519-1.679-5.037-3.358-7.556-5.077-3.358-1.679-6.716-5.037-10.074-8.435-4.237-3.358-9.274-8.435-12.632-10.154-3.358 0-5.037 0-5.876 1.72-1.72 3.357 0 1.678 2.518 1.678" fill="none" stroke="#333" stroke-width=".47970927px" stroke-linecap="butt" stroke-linejoin="miter" stroke-miterlimit="8" stroke-dasharray="none" stroke-opacity="1" /><path d="M520.125 64.201c-2.519-1.679-5.037-1.679-7.556-3.358-4.197-1.679-7.555-5.037-10.913-8.355-5.037-5.037-8.395-10.074-13.432-10.074-.84 0-1.679 1.68-1.679 1.68 1.68 1.678 3.358 3.357 5.877 5.036 2.518 0 5.037 3.358 8.394 6.676 1.68 1.68 3.358 3.358 5.877 5.037h.84c0 1.68.839 1.68.839 1.68h.84c.839 0 .839 0 .839 1.678h2.519c0 1.64.839 1.64.839 1.64h5.037c.84 0 2.518 0 3.358-1.64h-1.68M502.535 62.482c-7.515-1.679-12.552-6.756-17.589-11.793-3.318-1.679-6.676-5.077-8.355-5.077-2.518 0-2.518 1.72-1.679 1.72 2.519 1.678 5.037 3.357 7.556 6.715 2.478 1.68 4.997 3.398 7.515 6.756 1.679 1.68 4.197 3.358 7.515 3.358.84 1.68 4.198 1.68 6.716 1.68.84 0 2.479-3.359-1.679-3.359" fill="none" stroke="#333" stroke-width=".47970927px" stroke-linecap="butt" stroke-linejoin="miter" stroke-miterlimit="8" stroke-dasharray="none" stroke-opacity="1" /><path clip-path="url(#bioicons_collagen__a)" d="M458.882 45.612c5.077 0 10.114 6.836 16.03 11.953 5.077 5.117 9.275 6.796 16.87 10.194.84 0 0 0 0 0-2.519-1.679-5.037-3.398-6.756-6.796-4.197-1.719-7.595-5.117-10.953-8.515-3.358-5.117-8.435-8.515-12.673-10.234-2.518-1.719-4.197-1.719-5.876 1.72-.88 1.678.84 0 3.358 1.678" fill="none" stroke="#333" stroke-width=".47970927px" stroke-linecap="butt" stroke-linejoin="miter" stroke-miterlimit="8" stroke-dasharray="none" stroke-opacity="1" /><path clip-path="url(#bioicons_collagen__a)" d="M497.658 65.72c-2.518-1.639-5.916-1.639-8.435-3.318 0 0-5.916-4.997-9.274-8.315-4.237-4.997-8.475-9.994-13.512-11.673l-1.719 1.68c1.72 1.678 4.238 3.317 5.917 4.996 2.558 1.68 5.916 4.997 8.475 8.315 1.679 1.68 3.358 3.318 5.876 4.997l.88 1.68h.839l.84 1.638h.839c2.518 3.318 5.916 1.68 8.435 1.68 0 0 1.679 0 2.518-1.68h-1.679" fill="none" stroke="#333" stroke-width=".47970927px" stroke-linecap="butt" stroke-linejoin="miter" stroke-miterlimit="8" stroke-dasharray="none" stroke-opacity="1" /><path d="M480.709 62.442c-7.516-3.398-12.553-6.796-17.59-11.913-3.318-3.398-6.676-5.117-8.355-6.835-1.679 0-2.518 1.718-1.679 3.437 2.519 1.68 5.037 3.398 7.556 5.117 2.478 3.398 4.997 5.077 7.515 6.796 1.68 1.72 4.198 3.398 6.676 5.117 1.68 1.68 4.198 1.68 6.716 1.68 1.68 0 3.318-3.399-.84-3.399" fill="none" stroke="#333" stroke-width=".47970927px" stroke-linecap="butt" stroke-linejoin="miter" stroke-miterlimit="8" stroke-dasharray="none" stroke-opacity="1" /><path clip-path="url(#bioicons_collagen__a)" d="M436.136 42.015c4.237 1.718 10.114 8.594 16.03 13.751 4.237 5.157 9.274 8.595 16.87 10.314 0 0 0 1.679 0 0-2.519-1.719-5.037-3.438-7.596-5.157-3.358-3.438-6.716-6.876-10.114-10.314-3.358-5.157-8.434-10.313-12.672-12.032-2.518 0-4.197 0-5.876 1.719-1.72 3.437.84 1.719 3.358 1.719" fill="none" stroke="#333" stroke-width=".47970927px" stroke-linecap="butt" stroke-linejoin="miter" stroke-miterlimit="8" stroke-dasharray="none" stroke-opacity="1" /><path clip-path="url(#bioicons_collagen__a)" d="M474.832 66.08c-2.518-1.719-5.037-1.719-6.716-3.398l-.84-1.719c-3.317-1.719-6.675-6.836-10.033-10.234-4.997-5.117-8.355-10.234-13.392-10.234 0 0-1.679 0-1.679 1.72 1.679 0 3.358 1.718 5.876 3.397 2.519 3.438 5.037 5.117 8.355 8.515 1.68 1.72 3.358 5.117 5.037 6.836h1.68v1.719c.839 0 .839 0 1.638 1.679h1.68l.839 1.719h1.679c1.679 1.679 2.518 1.679 5.037 1.679h2.478c-.8-1.679-.8-1.679-1.639-1.679" fill="none" stroke="#333" stroke-width=".47970927px" stroke-linecap="butt" stroke-linejoin="miter" stroke-miterlimit="8" stroke-dasharray="none" stroke-opacity="1" /><path d="M458.122 60.803c-7.595-1.719-12.672-6.756-17.749-11.833-3.358-3.398-6.756-5.077-8.435-6.756-1.679-1.719-2.558 1.68-1.679 1.68 3.358 1.678 5.037 3.397 7.596 6.755 2.518 3.398 5.077 5.077 7.595 6.756 1.679 1.68 4.237 5.077 6.756 5.077 1.679 1.68 4.237 1.68 6.756 1.68 1.679 1.678 3.358-1.68-.84-3.359M413.43 38.856c5.036 1.68 10.073 8.435 15.95 15.191 5.037 3.358 9.234 6.756 16.79 10.114 0 0 0 1.68 0 0-2.519-1.679-5.037-3.358-7.556-6.756-3.358-1.679-6.716-6.756-10.074-10.114-3.358-3.358-8.395-8.435-12.592-10.114-2.519-1.718-4.198-1.718-5.877 0-.839 3.358.84 1.68 3.358 1.68" fill="none" stroke="#333" stroke-width=".47970927px" stroke-linecap="butt" stroke-linejoin="miter" stroke-miterlimit="8" stroke-dasharray="none" stroke-opacity="1" /><path d="M452.246 64.201c-2.519-1.679-4.198-1.679-6.756-5.037-4.197-3.358-7.595-6.716-10.953-10.034-4.238-5.037-7.596-10.074-13.512-11.753l-1.72 1.68c1.72 1.678 4.238 3.357 5.917 5.036 2.559 1.68 5.077 5.037 8.475 8.355l5.037 5.037c.84 1.68.84 1.68 1.72 1.68l.839 1.678h.839s.84 0 .84 1.68h.839c.84 0 .84 0 .84 1.678h1.678c1.72 1.64 2.559 1.64 5.077 1.64 0 0 1.68 0 2.519-1.64h-1.68M434.617 59.284c-6.716-3.358-12.593-8.395-16.79-13.472-3.358-3.358-6.716-5.037-8.395-6.716-2.519-1.719-2.519 1.68-1.68 1.68 2.52 1.678 4.198 3.357 7.556 6.715 1.68 3.398 5.037 5.077 6.716 8.435l7.556 5.037c.84 0 4.197 1.679 6.716 1.679.84 0 2.518-3.358-1.68-3.358M390.803 37.337c4.238 0 9.275 6.756 15.19 13.512 5.078 3.358 9.275 6.756 16.87 10.114.84 0 0 1.679 0 0-2.518-1.679-5.036-3.358-6.755-6.756-4.198-1.679-7.596-6.756-10.114-10.114-4.198-3.358-8.435-8.435-12.672-10.114-3.358-1.719-4.198-1.719-5.877 1.68-1.719 1.678 0 0 3.358 1.678" fill="none" stroke="#333" stroke-width=".47970927px" stroke-linecap="butt" stroke-linejoin="miter" stroke-miterlimit="8" stroke-dasharray="none" stroke-opacity="1" /><path d="M429.42 60.963c-2.519-1.719-5.037-1.719-6.716-3.438l-.84-1.719c-4.157-3.398-7.515-6.836-10.034-10.274-4.997-5.116-8.355-10.273-13.391-11.992-.84 0-1.68 1.719-1.68 1.719l5.037 5.157c3.358 1.718 5.877 5.116 8.355 8.554 1.68 1.72 4.198 3.438 5.877 6.836h.84c.839 0 .839 0 .839 1.72h.84c.799 0 .799 1.718.799 1.718h1.679l.84 1.72h.839c1.679 1.678 3.358 1.678 5.037 1.678.84 0 2.518 0 3.318-1.679h-1.64M411.75 55.566c-6.715-3.358-12.592-8.395-16.79-13.392-3.357-3.358-6.715-5.037-8.394-6.715-1.68 0-2.519 1.678-1.68 1.678 2.52 1.68 5.038 3.358 7.556 8.395 1.68 1.64 5.037 3.318 6.716 6.676l7.556 5.037c.839 1.64 4.197 1.64 6.715 1.64.84 0 2.519-3.319-1.679-3.319M368.217 33.58c4.197 0 10.034 6.756 15.91 13.511 4.158 5.077 9.195 6.756 15.91 10.114.8 0 0 1.68.8 0-3.318-1.679-4.997-3.358-7.515-5.037-4.198-3.398-6.676-6.756-10.034-10.153-3.358-5.037-8.355-10.114-12.553-11.793-2.518-1.72-4.197-1.72-5.876 1.679-1.68 1.679.84 0 3.358 1.679" fill="none" stroke="#333" stroke-width=".47970927px" stroke-linecap="butt" stroke-linejoin="miter" stroke-miterlimit="8" stroke-dasharray="none" stroke-opacity="1" /><path d="M406.913 57.205c-2.518-1.679-5.077-1.679-6.756-3.358l-.839-1.679c-3.358-1.679-6.756-6.716-10.114-10.074-5.077-5.036-8.475-10.073-13.512-11.752l-1.719 1.679c1.72 1.679 3.398 3.358 5.917 5.037 2.558 1.679 5.077 5.036 8.475 8.394 1.679 1.68 3.358 3.358 5.037 6.716h.84c.879 0 .879 1.68.879 1.68h1.679s0 1.678.839 1.678h.84l.839 1.68h1.679c.84 1.678 2.558 1.678 4.237 1.678h3.358c-.84-1.679-1.679-1.679-1.679-1.679M389.204 52.368c-6.716-3.358-12.592-8.395-16.79-13.392-3.358-3.358-6.716-5.037-8.395-6.716-2.518 0-2.518 1.68-1.679 1.68 2.519 1.678 4.198 5.036 7.556 8.394 1.679 1.64 5.037 3.318 6.716 6.676 2.518 1.68 5.037 3.358 7.555 5.037.84 1.64 4.198 1.64 6.716 1.64.84 0 2.519-1.64-1.679-3.319M345.39 30.382c4.238 0 9.275 6.755 15.191 13.511 5.077 5.077 9.275 6.756 16.87 10.114.84 0 0 1.68 0 0-2.518-1.679-5.037-3.358-6.756-5.037-4.197-3.398-7.595-6.756-10.114-10.154-4.197-5.036-8.434-10.113-12.672-11.792-3.358-1.72-4.197-1.72-5.876 1.679-1.72 1.679 0 0 3.358 1.679" fill="none" stroke="#333" stroke-width=".47970927px" stroke-linecap="butt" stroke-linejoin="miter" stroke-miterlimit="8" stroke-dasharray="none" stroke-opacity="1" /><path d="M384.087 54.047c-2.518-1.679-5.037-1.679-6.716-3.358-.84 0-.84 0-.84-1.679-4.157-1.679-7.515-6.716-10.033-10.034-4.997-5.037-8.355-10.074-13.392-11.752-.84 0-1.679 1.678-1.679 1.678l5.037 5.037c3.358 1.68 5.876 5.037 8.355 8.355 1.679 1.68 4.197 5.037 5.876 6.716h.84l.84 1.68h.839l.8 1.678h1.678c0 1.68 0 1.68.84 1.68h.84c1.678 1.638 3.357 1.638 5.036 1.638h3.318c-.8-1.639-1.639-1.639-1.639-1.639M366.418 49.13c-6.716-3.438-12.632-8.595-16.83-13.751-3.358-3.438-6.716-5.157-8.395-6.876-1.679 0-2.558 1.719-1.679 1.719 2.519 3.438 5.037 5.157 7.556 8.594l6.716 6.876c2.558 1.72 5.077 3.438 7.595 5.157.84 1.72 4.197 1.72 6.716 1.72.84 0 2.518-1.72-1.68-3.439M322.884 27.184c4.158 0 9.994 8.474 15.87 13.551 4.158 5.077 9.155 8.475 15.871 10.154.8 1.68 0 1.68.8 0-3.318-1.679-4.997-3.398-7.516-5.077-4.157-3.398-6.676-6.756-9.994-10.154-3.358-5.077-8.355-10.153-12.552-11.832-2.479-1.72-4.158-1.72-5.837 1.679-1.679 1.679.84 1.679 3.358 1.679" fill="none" stroke="#333" stroke-width=".47970927px" stroke-linecap="butt" stroke-linejoin="miter" stroke-miterlimit="8" stroke-dasharray="none" stroke-opacity="1" /><path d="M361.5 50.89c-2.518-1.72-5.076-1.72-6.755-3.439h-.84c-3.357-3.438-6.755-8.595-10.113-12.032-5.077-5.157-8.475-10.314-13.512-12.033l-1.72 1.719c1.72 1.719 3.399 3.438 5.917 5.157 2.559 1.719 5.077 5.157 8.475 8.594 1.68 1.72 3.358 5.157 5.037 6.876h.84l.88 1.72c.839 0 .839 0 1.678 1.718h.84s.839 0 .839 1.72h2.518c.84 1.678 2.559 1.678 4.238 1.678h3.358c-.84 0-1.68-1.679-1.68-1.679M345.55 45.452c-6.755-1.679-12.672-6.636-17.749-11.593-2.518-3.318-5.916-4.957-8.435-6.635-1.679 0-2.558 1.678-1.679 1.678 3.358 1.64 5.037 3.318 8.435 6.596 1.68 3.318 5.077 4.997 6.756 6.636 2.519 1.64 5.077 4.957 7.596 4.957.84 1.64 4.237 1.64 6.756 1.64.839 0 2.518-1.64-1.68-3.279M300.898 25.445c5.057 1.659 10.114 8.315 16.03 13.312 5.057 4.996 10.114 6.655 16.87 9.973h.84c-3.359-1.659-5.058-3.318-7.596-6.655-4.218-1.66-7.596-4.977-10.114-8.315-4.218-4.997-9.294-9.974-12.672-11.653-3.358 0-5.057 0-5.897 1.679-1.699 3.318 0 1.659 2.539 1.659" fill="none" stroke="#333" stroke-width=".47970927px" stroke-linecap="butt" stroke-linejoin="miter" stroke-miterlimit="8" stroke-dasharray="none" stroke-opacity="1" /><path d="M340.314 47.251c-2.519 0-5.037-1.699-6.716-3.418h-.84c-4.197-3.398-7.555-6.815-10.074-10.213-5.037-5.117-8.394-10.234-13.431-10.234-.84 0-1.68 0-2.519 1.719 2.519 0 4.198 1.699 5.877 3.398 3.358 1.699 5.876 5.117 8.394 8.515 1.68 1.719 4.198 3.417 5.877 5.116 0 1.7.84 1.7.84 1.7h.839c.84 1.718.84 1.718 1.679 1.718.84 1.7.84 1.7 1.679 1.7h.84c0 1.698.839 1.698 1.678 1.698.84 0 2.519 1.7 4.198 1.7.84 0 2.518-1.7 3.358-1.7-.84 0-1.68 0-1.68-1.699M322.704 42.234c-6.696-1.699-12.532-6.775-17.569-11.852-3.338-1.68-6.676-3.378-8.355-5.077-1.679 0-2.518 1.699-1.679 3.398 2.519 1.679 5.017 1.679 8.375 5.077 1.66 1.679 4.178 5.076 6.696 6.755 2.498 1.7 5.017 3.398 7.515 3.398.84 1.68 4.178 1.68 6.696 1.68.84 0 2.499-3.379-1.679-3.379M278.131 27.184c4.198 0 10.094 5.076 15.99 10.133 5.038 5.077 9.255 6.756 16.81 8.455.84 0 0 1.68.84 0-3.358-1.699-5.876-3.378-7.555-5.077-4.218-1.679-7.576-5.057-10.934-8.435-3.378-3.378-8.415-8.454-12.632-8.454-3.358-1.7-5.037-1.7-5.877 1.699-1.699 3.377.84 1.679 3.358 1.679" fill="none" stroke="#333" stroke-width=".47970927px" stroke-linecap="butt" stroke-linejoin="miter" stroke-miterlimit="8" stroke-dasharray="none" stroke-opacity="1" /><path d="M317.847 44.073c-2.518 0-5.037-1.679-6.716-1.679-.859 0-.859-1.699-.859-1.699-4.197-1.679-7.555-5.057-10.933-8.435-5.037-5.076-8.415-10.153-13.452-8.454h-1.7c1.7 1.699 3.379 3.378 5.897 5.076 2.519 1.68 5.057 3.378 8.415 6.756 1.68 1.68 3.358 3.378 5.897 5.057l.839 1.7h.84s.839 0 .839 1.678h2.518c0 1.7.84 1.7.84 1.7h1.699c.84 1.678 2.518 1.678 4.197 1.678.84 0 2.519-1.679 3.358-1.679-.84 0-1.679 0-1.679-1.699M300.138 40.356c-7.555-1.66-13.432-6.676-17.63-10.034-3.357-1.66-6.715-3.338-9.234-3.338-1.679-1.68-2.518 0-1.679 1.679 3.358 1.659 5.037 1.659 8.395 5.017 2.519 1.659 5.037 3.338 7.556 5.017 2.518 1.659 5.037 3.338 7.555 4.997h6.716c.84 0 2.519-3.338-1.679-3.338M254.806 26.824c5.037 0 10.073 6.836 16.79 10.254 5.036 5.116 9.234 6.835 16.79 8.534h.839c-3.358-1.699-5.877-3.418-7.556-5.117-4.197-1.719-7.555-5.136-10.913-8.554-4.198-3.418-9.234-6.836-13.432-8.555-2.518 0-4.197 0-5.876 3.438-.84 3.418.84 1.699 3.358 0" fill="none" stroke="#333" stroke-width=".47970927px" stroke-linecap="butt" stroke-linejoin="miter" stroke-miterlimit="8" stroke-dasharray="none" stroke-opacity="1" /><path d="M295.001 43.913c-2.518-1.719-5.017-1.719-7.535-3.418-4.178-1.719-7.536-5.136-10.874-8.554-5.017-3.418-8.375-8.555-14.231-8.555l-1.679 1.719c2.518 1.719 4.197 1.719 5.856 3.418 3.358 1.719 5.877 5.137 9.215 6.836 1.679 1.719 3.338 3.417 5.856 5.136h.84c0 1.7.84 1.7.84 1.7h.839c.82 0 .82 0 .82 1.718h2.518s.84 0 1.679 1.7h4.177c.84 0 2.519-1.7 3.338-1.7h-1.659M276.612 42.234c-6.756-1.699-12.672-6.775-17.729-10.153-3.378-3.378-6.756-5.077-8.455-5.077-2.538-1.7-2.538 0-1.679 1.699 2.519 1.679 5.057 3.378 8.435 5.077 1.7 1.679 4.238 5.076 6.756 6.755 2.538 1.7 5.077 3.398 7.615 5.077h6.756c.84 0 2.519-3.378-1.699-3.378M232.14 27.184c4.197 0 10.073 6.755 15.95 11.832 5.037 3.378 9.234 6.756 16.79 8.435.839 0 0 0 0 0-2.519-1.679-5.037-3.378-6.716-5.057-4.198-3.378-7.556-6.756-10.914-10.134-3.358-3.378-8.395-8.454-12.592-8.454-3.358-1.7-5.037-1.7-5.877 1.699-1.679 3.377 0 1.679 3.358 1.679" fill="none" stroke="#333" stroke-width=".47970927px" stroke-linecap="butt" stroke-linejoin="miter" stroke-miterlimit="8" stroke-dasharray="none" stroke-opacity="1" /><path d="M271.396 45.732c-2.519-1.719-5.037-1.719-6.716-3.438h-.84c-4.197-3.438-7.555-6.875-10.913-10.313-5.037-3.438-8.395-8.595-13.432-8.595-.84 0-1.68 0-1.68 1.719 1.68 0 3.359 1.719 5.877 3.438 2.519 1.719 5.037 5.157 8.395 6.876 1.68 1.718 3.358 3.437 5.877 5.156 0 1.72.84 1.72.84 1.72h.839l.84 1.718h.839c.84 0 .84 0 1.679 1.72h2.518c.84 1.718 2.519 1.718 4.198 1.718.839 0 2.518-1.719 3.358-1.719h-1.68M253.806 42.354c-6.676-1.699-12.512-6.816-17.53-10.233-3.337-3.398-6.675-5.097-8.334-5.097-1.68-1.72-2.519 0-1.68 1.699 3.339 1.699 5.018 3.398 8.356 5.116 1.659 3.398 4.157 5.097 6.676 6.816 2.498 1.7 4.997 3.398 7.495 5.097.84 0 4.178 0 6.676 1.7.84 0 2.499-3.399-1.659-5.098M210.153 25.445c5.057 0 10.114 6.656 16.03 13.312 5.057 3.318 10.114 6.655 16.87 8.314.84 0 0 1.66.84 0-3.359-1.659-5.058-3.318-7.596-4.996-4.218-3.318-7.596-6.656-10.114-9.974-4.218-3.338-9.294-8.315-13.512-9.994-2.518 0-4.217 0-5.896 1.679-.86 3.318.84 1.659 3.378 1.659" fill="none" stroke="#333" stroke-width=".47970927px" stroke-linecap="butt" stroke-linejoin="miter" stroke-miterlimit="8" stroke-dasharray="none" stroke-opacity="1" /><path d="M248.73 45.353c-1.68-1.68-5.877 0-7.556-1.68-.84 0-6.716-6.755-10.074-10.133-4.198-5.077-7.555-10.154-13.432-10.154 0 0-1.679 0-1.679 1.699 2.519 1.699 4.198 1.699 5.877 5.077 2.518 1.679 5.876 3.378 8.394 6.756 1.68 3.378 3.358 5.057 5.877 6.756h.84c0 1.679.839 1.679.839 1.679h.84l.839 1.698c2.518 1.68 6.716 0 8.395 0h3.358c-.84 0-1.68-1.698-2.519-1.698M231.96 42.294c-7.516-1.719-12.533-6.875-17.57-12.032-3.338-1.72-6.676-5.157-8.355-5.157-1.679-1.72-2.518 1.719-1.679 1.719 3.358 1.719 5.017 3.438 8.375 6.876 1.66 1.719 4.178 5.156 6.696 6.875 1.659 1.72 4.177 3.438 7.515 5.157.84 0 4.178 0 5.857 1.72 1.679 0 3.338-3.439-.84-5.158M187.566 23.486c5.037 0 10.074 6.856 15.95 13.711 5.038 3.418 9.235 6.836 16.79 10.254-2.518-1.699-5.036-3.418-7.555-6.836-3.358-1.719-6.716-6.855-10.074-10.273-3.358-3.418-8.395-8.555-12.592-10.274-2.519-1.72-4.198-1.72-5.877 1.719-.84 1.699.84 1.699 3.358 1.699" fill="none" stroke="#333" stroke-width=".47970927px" stroke-linecap="butt" stroke-linejoin="miter" stroke-miterlimit="8" stroke-dasharray="none" stroke-opacity="1" /><path d="M226.083 47.071c-2.518-1.679-4.197-3.357-6.696-5.036-4.177-3.338-7.535-6.696-10.873-10.034-4.178-5.017-8.375-10.054-13.392-11.733l-1.68 1.679c1.68 1.679 4.198 3.358 5.857 5.037 2.519 1.659 5.037 5.017 8.375 8.355 1.68 1.679 3.338 3.358 5.017 5.037.84 1.659.84 1.659 1.68 1.659h.839c0 1.679.84 1.679.84 1.679h.819c0 1.678.84 1.678.84 1.678h.839c.839 1.68.839 1.68 1.679 1.68 1.659 0 2.498 1.658 5.016 1.658 0 0 1.68-1.659 2.499-1.659h-1.659M209.373 42.254c-7.595-3.358-12.672-8.395-17.73-13.431-3.377-3.358-6.755-5.037-8.454-6.716-1.679 0-2.538 1.679-1.679 3.358 3.378 1.679 5.057 3.358 8.435 6.715 1.699 1.68 4.237 5.037 6.756 6.716 1.699 1.68 4.237 3.358 6.756 5.037 1.699 0 4.237 1.68 6.756 1.68 1.699 0 3.378-3.359-.84-3.359M164.72 20.228c5.037 0 10.094 8.475 15.99 13.552 5.037 5.076 9.255 8.454 16.81 11.832-2.518-1.679-5.037-5.077-7.555-6.756L179.87 28.703c-3.378-5.077-8.415-10.154-12.632-11.853-2.519 0-4.198-1.7-5.877 1.699-.86 3.378.84 1.679 3.358 1.679" fill="none" stroke="#333" stroke-width=".47970927px" stroke-linecap="butt" stroke-linejoin="miter" stroke-miterlimit="8" stroke-dasharray="none" stroke-opacity="1" /><path d="M203.517 44.033c-2.539-1.699-4.218-1.699-6.756-3.418-4.218-3.418-7.596-6.855-10.974-11.992-4.217-5.137-7.595-10.274-12.672-10.274h-2.538c2.538 1.719 4.237 3.438 5.916 5.137 2.538 3.438 5.916 5.137 8.455 8.575 1.679 3.417 3.378 5.136 5.057 6.835.84 0 .84 0 1.699 1.72h.84l.839 1.718h.84l.859 1.7h.84c.839 0 .839 0 1.678 1.718 1.7 0 2.539 0 5.077 1.7 0 0 1.68-1.7 2.519-1.7 0 0-.84 0-1.68-1.719M185.887 38.637c-6.716-1.7-12.592-8.455-16.79-13.512-3.357-3.378-6.715-5.077-8.394-5.077-1.68-1.7-2.519 0-1.68 1.699 2.52 1.679 4.198 3.378 7.556 6.756 1.679 1.679 5.037 5.057 6.716 6.756 2.518 1.679 5.037 3.378 7.555 5.057.84 1.699 4.198 1.699 6.716 3.378.84 0 2.519-3.378-1.679-5.057M142.074 17.11c4.217 0 9.274 8.435 16.03 13.491 4.218 5.077 9.275 8.455 16.03 11.813h.84c-3.358-1.679-5.057-5.057-7.595-6.736-4.218-3.378-6.736-6.756-10.114-10.133-3.378-5.057-8.435-10.134-12.673-11.813-2.518 0-4.217-1.7-5.896 1.679-1.699 3.378.84 1.699 3.378 1.699" fill="none" stroke="#333" stroke-width=".47970927px" stroke-linecap="butt" stroke-linejoin="miter" stroke-miterlimit="8" stroke-dasharray="none" stroke-opacity="1" /><path d="M180.67 40.336c-2.498 0-5.016-1.68-6.675-3.358h-.84c-4.177-3.358-7.515-6.716-10.014-10.074-4.997-6.716-8.335-11.753-13.352-11.753h-1.679c1.68 1.679 3.338 3.358 5.857 5.037 2.498 3.358 4.997 5.037 8.335 10.074 1.679 1.679 3.338 3.358 5.017 5.037l.84 1.679h.819c.84 0 .84 1.679 1.679 1.679h.84l.819 1.679h.84s.839 1.679 1.678 1.679c.82 0 2.499 0 4.158 1.679.839 0 2.518-1.68 3.338-1.68-.82 0-1.66 0-1.66-1.678M163.021 35.439c-6.716-1.7-12.592-8.455-16.79-11.833-3.358-3.378-6.716-6.756-8.395-6.756-1.679-1.7-2.518 0-1.679 1.699 2.519 1.679 5.037 3.378 7.556 6.756 2.518 1.679 5.037 5.057 7.555 6.756 1.68 1.679 4.198 5.057 6.716 6.755 1.68 0 4.198 0 6.716 1.68.84 0 2.519-3.378-1.679-5.057M119.368 13.472c5.037 1.679 10.074 8.375 15.95 13.392 5.037 5.017 9.234 8.375 16.79 11.713-2.519-1.66-5.037-5.017-7.556-6.696-3.358-3.338-6.716-6.696-10.073-10.034-3.358-5.017-8.395-10.054-12.593-11.733-2.518 0-4.197 0-5.876 1.679-.84 3.358.84 1.679 3.358 1.679" fill="none" stroke="#333" stroke-width=".47970927px" stroke-linecap="butt" stroke-linejoin="miter" stroke-miterlimit="8" stroke-dasharray="none" stroke-opacity="1" /><path d="M158.184 38.836c-2.538-1.679-5.057-3.358-6.756-5.036h-.84c-3.377-3.338-6.755-6.696-10.133-10.034-5.077-6.696-8.455-11.733-13.512-11.733 0 0-1.699 0-1.699 1.679 1.7 0 4.238 1.679 5.917 5.037 2.538 1.659 5.076 5.017 8.454 8.355 1.68 1.679 3.378 3.358 5.057 5.037.84 0 .84 1.659 1.7 1.659.839 0 .839 1.678 1.678 1.678h.84l.86 1.68h.839c.84 0 .84 1.678 1.679 1.678 1.699 0 2.538 1.66 5.077 1.66 0 0 1.679 0 2.518-1.66h-1.679M140.555 32.32c-6.736-1.699-12.633-6.755-16.83-11.832-3.378-3.378-6.736-6.756-8.415-6.756-1.679-1.7-2.538 0-1.679 1.699 2.519 1.679 4.198 3.378 7.576 6.756 1.679 1.679 5.036 5.056 6.715 6.755 2.539 3.378 5.057 5.057 7.576 6.756.84 0 4.217 1.68 6.736 1.68.84 0 2.518-3.379-1.68-5.058M96.661 10.274c4.218 1.679 9.275 8.395 16.03 13.432 4.218 5.037 9.275 8.395 16.031 11.753h.84c-3.358-1.68-5.057-3.358-7.596-6.716-4.217-3.358-6.736-6.716-10.114-10.074-3.378-3.358-8.435-8.395-12.672-10.074-2.519-1.68-4.218-1.68-5.897 0-1.699 3.358.84 1.679 3.378 1.679" fill="none" stroke="#333" stroke-width=".47970927px" stroke-linecap="butt" stroke-linejoin="miter" stroke-miterlimit="8" stroke-dasharray="none" stroke-opacity="1" /><path d="M135.338 35.678c-2.518-1.719-5.017-3.438-6.696-5.156h-.84c-4.177-3.438-7.535-6.876-10.033-10.294-5.017-5.157-8.375-12.033-13.392-12.033 0 0-1.68 0-1.68 1.719 1.68 0 3.359 1.719 5.857 5.157 2.519 1.719 5.037 5.157 8.375 8.575 1.68 1.719 3.338 3.438 5.017 5.157l.84 1.719h.84c.839 1.718.839 1.718 1.678 1.718h.82c0 1.72.84 1.72.84 1.72h.839s.839 1.718 1.679 1.718c.839 0 2.498 1.7 4.177 1.7.84 0 2.518 0 3.338-1.7h-1.659M117.689 30.162c-6.736-3.378-12.633-8.435-16.83-13.512-3.378-3.378-6.736-6.756-8.415-6.756-1.679-1.699-2.538 0-1.679 1.699 2.518 1.679 5.037 3.378 7.575 6.756 2.519 3.378 5.037 5.057 7.556 6.756 1.699 3.378 4.217 5.057 6.736 6.756 1.699 0 4.217 1.679 6.736 1.679.84 0 2.518-3.378-1.68-3.378" fill="none" stroke="#333" stroke-width=".47970927px" stroke-linecap="butt" stroke-linejoin="miter" stroke-miterlimit="8" stroke-dasharray="none" stroke-opacity="1" /><path clip-path="url(#bioicons_collagen__a)" d="M73.975 6.536c5.037 1.699 10.094 8.455 15.99 15.19 5.037 3.379 9.255 6.757 16.81 10.135 0 0 0 1.679 0 0-2.518-1.68-5.037-3.378-7.555-6.756-3.378-1.68-6.736-6.756-10.094-10.114-3.378-3.378-8.415-8.455-12.632-10.134-2.519-1.699-4.198-1.699-5.877 0-.86 3.378.84 1.679 3.358 1.679" fill="none" stroke="#333" stroke-width=".47970927px" stroke-linecap="butt" stroke-linejoin="miter" stroke-miterlimit="8" stroke-dasharray="none" stroke-opacity="1" /><path d="M112.772 31.88c-2.539-1.678-5.057-3.357-6.756-5.036h-.84c-3.378-3.338-6.756-6.696-10.134-10.034-5.077-5.017-8.454-11.733-13.511-11.733 0 0-1.7 0-1.7 1.679 1.7 1.679 4.238 3.358 5.917 5.037 2.538 1.659 5.077 5.017 8.455 8.355 1.679 1.679 3.378 3.358 5.057 5.037.84 1.659.84 1.659 1.699 1.659.84 1.679.84 1.679 1.679 1.679h.84c0 1.679.859 1.679.859 1.679h.84c.839 1.679.839 1.679 1.678 1.679 1.7 1.659 2.539 1.659 5.077 1.659 0 0 1.68 0 2.519-1.66h-1.68M96.821 27.004c-6.716-3.338-12.592-8.375-16.79-13.392-3.357-3.338-6.715-5.017-8.394-5.017-2.519-1.68-2.519 0-1.68 1.679 2.52 1.679 4.198 3.338 7.556 6.696 1.679 1.659 5.037 5.017 6.716 6.696 2.518 1.659 5.037 3.338 7.555 5.017 1.68 0 4.198 1.659 6.716 1.659.84 0 2.519-3.338-1.679-3.338" fill="none" stroke="#333" stroke-width=".47970927px" stroke-linecap="butt" stroke-linejoin="miter" stroke-miterlimit="8" stroke-dasharray="none" stroke-opacity="1" /><path clip-path="url(#bioicons_collagen__a)" d="M52.168 6.916c5.057 0 10.114 6.696 16.87 11.713 4.218 5.017 9.275 8.375 16.03 10.054.84 0 .84 1.659.84 0-2.519-1.68-5.057-3.358-7.595-5.037-4.218-3.338-7.596-6.696-10.114-10.034-4.218-3.358-8.435-8.375-12.673-10.054-3.358-1.68-5.057-1.68-5.896 1.679-1.699 3.358 0 1.679 2.538 1.679" fill="none" stroke="#333" stroke-width=".47970927px" stroke-linecap="butt" stroke-linejoin="miter" stroke-miterlimit="8" stroke-dasharray="none" stroke-opacity="1" /><path clip-path="url(#bioicons_collagen__a)" d="M91.604 28.643c-2.498-1.7-5.016-1.7-6.675-3.398h-.84c-3.338-3.398-7.515-6.796-10.014-10.194C69.078 9.954 65.74 3.158 60.723 3.158c-.84 0-1.679 1.7-1.679 1.7 1.68 1.698 3.338 3.397 5.017 5.096 3.338 1.699 5.837 5.097 9.175 8.495 1.679 1.699 3.338 3.398 5.017 5.097.84 0 .84 0 .84 1.699h.819c.84 0 .84 0 1.679 1.699h.839s.82 0 .82 1.699h2.518c1.659 1.699 2.499 1.699 4.997 1.699 0 0 1.679 0 2.498-1.7h-1.659" fill="none" stroke="#333" stroke-width=".47970927px" stroke-linecap="butt" stroke-linejoin="miter" stroke-miterlimit="8" stroke-dasharray="none" stroke-opacity="1" /><path d="M73.975 21.967c-6.696-1.66-12.532-6.676-17.57-10.034-3.337-3.338-6.675-5.017-8.354-5.017-1.68 0-2.519 1.679-1.68 1.679 3.359 1.679 5.018 3.338 8.376 6.696 1.659 1.659 5.017 3.338 6.696 5.017 2.498 1.659 5.017 3.338 7.515 4.997h6.696c.84 0 2.499-3.338-1.679-3.338" fill="none" stroke="#333" stroke-width=".47970927px" stroke-linecap="butt" stroke-linejoin="miter" stroke-miterlimit="8" stroke-dasharray="none" stroke-opacity="1" /><path clip-path="url(#bioicons_collagen__a)" d="M29.582 6.596c4.178 0 10.034 6.876 15.89 12.033 5.017 3.438 10.054 6.876 16.75 8.595h.82c-3.338-1.72-5.017-3.438-7.516-5.157-4.197-3.438-7.535-6.876-10.893-8.595-3.338-5.157-8.355-8.595-12.552-10.314-2.499 0-4.178 0-5.857 1.719-.84 3.438.84 1.719 3.358 1.719" fill="none" stroke="#333" stroke-width=".47970927px" stroke-linecap="butt" stroke-linejoin="miter" stroke-miterlimit="8" stroke-dasharray="none" stroke-opacity="1" /><path clip-path="url(#bioicons_collagen__a)" d="M69.118 25.505c-2.518-1.72-5.037-1.72-6.716-3.438h-.86c-4.197-3.438-7.555-6.876-10.933-8.595-4.197-5.157-8.415-10.314-13.452-10.314L35.46 4.877c1.698 1.719 4.217 1.719 5.896 3.438 2.518 1.719 5.896 5.157 8.415 8.595 1.679 1.719 4.217 3.438 5.896 5.157h.84c.84 0 .84 1.719.84 1.719h1.678l.84 1.719H61.543c.86 0 .86 1.719 1.699 1.719h5.037s1.679 0 2.518-1.72h-1.679" fill="none" stroke="#333" stroke-width=".47970927px" stroke-linecap="butt" stroke-linejoin="miter" stroke-miterlimit="8" stroke-dasharray="none" stroke-opacity="1" /><path d="M51.469 20.108c-6.756-1.66-12.673-4.957-17.73-8.235-3.377-3.298-6.755-4.957-9.294-4.957-1.699 0-1.699 1.659-.84 1.659 2.52 1.639 5.058 3.298 7.596 6.576 2.539 1.659 5.077 3.298 7.595 4.957 2.539 1.639 5.077 1.639 7.616 3.278h6.756c.84 0 2.518-3.278-1.7-3.278" fill="none" stroke="#333" stroke-width=".47970927px" stroke-linecap="butt" stroke-linejoin="miter" stroke-miterlimit="8" stroke-dasharray="none" stroke-opacity="1" /><path clip-path="url(#bioicons_collagen__a)" d="M6.076 8.495c5.037 0 10.914 5.117 16.79 10.214 5.037 3.418 10.074 5.117 16.79 6.816.84 0 .84 1.699.84 0-3.359-1.7-5.877-1.7-7.556-5.097-4.197-1.72-7.555-5.117-10.913-6.816-4.198-3.418-9.235-8.535-13.432-8.535-2.519 0-4.198 0-5.037 1.719-1.68 3.398 0 1.699 2.518 1.699" fill="none" stroke="#333" stroke-width=".47970927px" stroke-linecap="butt" stroke-linejoin="miter" stroke-miterlimit="8" stroke-dasharray="none" stroke-opacity="1" /><path clip-path="url(#bioicons_collagen__a)" d="M46.272 23.786c-2.519-1.72-5.017-1.72-6.696-1.72-.84 0-.84-1.718-.84-1.718-4.177-1.72-7.535-5.157-10.873-6.876-5.017-5.157-8.375-10.314-13.392-8.595-.84 0-1.679 0-2.518 1.719 2.518 0 4.197 1.719 5.856 3.438 3.358 1.719 5.877 3.438 9.215 6.876 1.679 1.719 3.338 3.438 5.856 3.438 0 1.719.84 1.719.84 1.719h.84c.839 0 .839 1.719 1.658 1.719.84 0 1.679 0 1.679 1.719h2.519c1.659 1.719 2.498 1.719 5.016 0 0 0 1.68 0 2.499-1.72h-1.659" fill="none" stroke="#333" stroke-width=".47970927px" stroke-linecap="butt" stroke-linejoin="miter" stroke-miterlimit="8" stroke-dasharray="none" stroke-opacity="1" />
</symbol>
<symbol id="mmp" viewBox="0 0 50 50" overflow="visible">
        
        <path d="M 25 25 L 45 12 A 21 21 0 1 1 45 38 Z" fill="#E8978F" stroke="#9C4A47" stroke-width="2" stroke-linejoin="round" />
        
        <circle cx="22" cy="25" r="3.5" fill="#FFD27A" stroke="#9C7530" stroke-width="1.2" />
        <text x="22" y="28" text-anchor="middle" font-family="Helvetica, Arial, sans-serif" font-size="6" fill="#7F4A30" font-weight="bold">Zn</text>
    </symbol>
</defs>
  <defs>
    <marker id="arrowhead" viewBox="0 0 10 10" refX="5" refY="5" markerWidth="6" markerHeight="6" orient="auto-start-reverse">
      <path d="M 0 0 L 10 5 L 0 10 z" fill="#333" />
    </marker>
    <filter id="shadow" x="-50%" y="-50%" width="200%" height="200%">
      <feDropShadow dx="0" dy="4" stdDeviation="4" flood-color="#000000" flood-opacity="0.2" />
    </filter>
  </defs>

  
  <g id="figure_title" data-role="title">
    <text x="1000" y="40" font-family="Helvetica, Arial, sans-serif" font-size="26" font-weight="bold" fill="#1a1a1a" text-anchor="middle">The tumor microenvironment: stromal, immune, and matrix interactions</text>
  </g>

  
  <g id="tumor_mass" data-role="tumor_core">
    <use href="#bioicons_tumor" x="900" y="380" width="200" height="200" />
    <text x="1000" y="600" font-family="Helvetica, Arial, sans-serif" font-size="16" font-weight="bold" fill="#1a1a1a" text-anchor="middle">Tumor Mass</text>
  </g>

  
  <g id="ecm_label" data-role="compartment_label">
    <text x="1000" y="150" font-family="Helvetica, Arial, sans-serif" font-size="18" fill="#666666" text-anchor="middle">Extracellular Matrix / Stroma</text>
  </g>

  
  <g id="fibroblasts_and_collagen" data-role="stromal_components">
    
    <use href="#bioicons_fibroblast" x="250" y="400" width="180" height="60" />
    <text x="340" y="480" font-family="Helvetica, Arial, sans-serif" font-size="14" fill="#1a1a1a" text-anchor="middle">CAF</text>
    <text x="340" y="500" font-family="Helvetica, Arial, sans-serif" font-size="12" fill="#555555" text-anchor="middle">(Cancer-Associated Fibroblast)</text>

    
    <use href="#bioicons_fibroblast" x="1570" y="400" width="180" height="60" />
    <text x="1660" y="480" font-family="Helvetica, Arial, sans-serif" font-size="14" fill="#1a1a1a" text-anchor="middle">CAF</text>
    <text x="1660" y="500" font-family="Helvetica, Arial, sans-serif" font-size="12" fill="#555555" text-anchor="middle">(Cancer-Associated Fibroblast)</text>

    
    <use href="#bioicons_fibroblast" x="700" y="700" width="180" height="60" />
    <text x="790" y="780" font-family="Helvetica, Arial, sans-serif" font-size="14" fill="#1a1a1a" text-anchor="middle">CAF</text>
    <text x="790" y="800" font-family="Helvetica, Arial, sans-serif" font-size="12" fill="#555555" text-anchor="middle">(Cancer-Associated Fibroblast)</text>


    
    <g id="collagen_fibers_group">
      <use href="#bioicons_collagen" x="400" y="280" width="400" height="50" />
      <use href="#bioicons_collagen" x="1200" y="280" width="400" height="50" />
      <use href="#bioicons_collagen" x="450" y="650" width="400" height="50" />
      <use href="#bioicons_collagen" x="1150" y="650" width="400" height="50" />

      
      <use href="#bioicons_collagen" x="500" y="480" width="200" height="40" />
      <use href="#bioicons_collagen" x="780" y="480" width="180" height="40" />
      <text x="650" y="540" font-family="Helvetica, Arial, sans-serif" font-size="12" fill="#555555" text-anchor="middle">Collagen Fiber</text>

      
      <use href="#bioicons_collagen" x="1100" y="480" width="200" height="40" />
      <use href="#bioicons_collagen" x="1380" y="480" width="180" height="40" />
      <text x="1250" y="540" font-family="Helvetica, Arial, sans-serif" font-size="12" fill="#555555" text-anchor="middle">Collagen Fiber</text>
    </g>

    
    <line x1="380" y1="420" x2="450" y2="300" stroke="#333" stroke-width="2" marker-end="url(#arrowhead)" />
    <text x="360" y="360" font-family="Helvetica, Arial, sans-serif" font-size="12" fill="#555" text-anchor="middle">Secretion</text>

    <line x1="1620" y1="420" x2="1550" y2="300" stroke="#333" stroke-width="2" marker-end="url(#arrowhead)" />
    <text x="1640" y="360" font-family="Helvetica, Arial, sans-serif" font-size="12" fill="#555" text-anchor="middle">Secretion</text>

    <line x1="820" y1="720" x2="800" y2="670" stroke="#333" stroke-width="2" marker-end="url(#arrowhead)" />
    <text x="800" y="700" font-family="Helvetica, Arial, sans-serif" font-size="12" fill="#555" text-anchor="middle">Secretion</text>

  </g>

  
  <g id="tams" data-role="immune_cells">
    <use href="#bioicons_macrophage" x="550" y="200" width="120" height="130" />
    <text x="610" y="340" font-family="Helvetica, Arial, sans-serif" font-size="14" fill="#1a1a1a" text-anchor="middle">TAM</text>
    <text x="610" y="360" font-family="Helvetica, Arial, sans-serif" font-size="12" fill="#555555" text-anchor="middle">(Tumor-Associated Macrophage)</text>

    <use href="#bioicons_macrophage" x="1350" y="650" width="120" height="130" />
    <text x="1410" y="790" font-family="Helvetica, Arial, sans-serif" font-size="14" fill="#1a1a1a" text-anchor="middle">TAM</text>
    <text x="1410" y="810" font-family="Helvetica, Arial, sans-serif" font-size="12" fill="#555555" text-anchor="middle">(Tumor-Associated Macrophage)</text>
  </g>

  
  <g id="t_lymphocytes" data-role="immune_cells">
    <use href="#bioicons_t_lymphocyte" x="1450" y="180" width="100" height="100" />
    <text x="1500" y="290" font-family="Helvetica, Arial, sans-serif" font-size="14" fill="#1a1a1a" text-anchor="middle">T Lymphocyte</text>

    <use href="#bioicons_t_lymphocyte" x="450" y="680" width="100" height="100" />
    <text x="500" y="790" font-family="Helvetica, Arial, sans-serif" font-size="14" fill="#1a1a1a" text-anchor="middle">T Lymphocyte</text>
  </g>

  
  <g id="mmps" data-role="matrix_remodeling">
    <use href="#mmp" x="700" y="470" width="80" height="80" />
    <text x="740" y="560" font-family="Helvetica, Arial, sans-serif" font-size="14" fill="#1a1a1a" text-anchor="middle">MMP</text>
    <text x="740" y="580" font-family="Helvetica, Arial, sans-serif" font-size="12" fill="#555555" text-anchor="middle">(Cleaves collagen)</text>
    <path d="M 740 510 C 760 490, 770 470, 780 470" fill="none" stroke="#333" stroke-width="2" marker-end="url(#arrowhead)" /> 

    <use href="#mmp" x="1300" y="470" width="80" height="80" />
    <text x="1340" y="560" font-family="Helvetica, Arial, sans-serif" font-size="14" fill="#1a1a1a" text-anchor="middle">MMP</text>
    <text x="1340" y="580" font-family="Helvetica, Arial, sans-serif" font-size="12" fill="#555555" text-anchor="middle">(Cleaves collagen)</text>
    <path d="M 1340 510 C 1360 490, 1370 470, 1380 470" fill="none" stroke="#333" stroke-width="2" marker-end="url(#arrowhead)" /> 
  </g>
</svg>