<svg xmlns="http://www.w3.org/2000/svg" viewBox="0 0 1800 900"><defs>
<symbol id="proteoglycan" viewBox="0 0 200 90" overflow="visible">
        
        
        <line x1="8" y1="45" x2="192" y2="45" stroke="#9C4A6F" stroke-width="4" stroke-linecap="round" />
        
        <circle cx="20" cy="45" r="3" fill="#D4A8C5" stroke="#9C4A6F" stroke-width="1" />
        <circle cx="180" cy="45" r="3" fill="#D4A8C5" stroke="#9C4A6F" stroke-width="1" />
                <line x1="30" y1="40" x2="30" y2="10" stroke="#C86B9C" stroke-width="1.5" stroke-linecap="round" />
        <circle cx="30" cy="18" r="2" fill="#E8B8D4" stroke="#9C4A6F" stroke-width="0.8" />
        <circle cx="30" cy="26" r="2" fill="#E8B8D4" stroke="#9C4A6F" stroke-width="0.8" />
        <circle cx="30" cy="34" r="2" fill="#E8B8D4" stroke="#9C4A6F" stroke-width="0.8" />
        <line x1="46" y1="40" x2="46" y2="10" stroke="#C86B9C" stroke-width="1.5" stroke-linecap="round" />
        <circle cx="46" cy="18" r="2" fill="#E8B8D4" stroke="#9C4A6F" stroke-width="0.8" />
        <circle cx="46" cy="26" r="2" fill="#E8B8D4" stroke="#9C4A6F" stroke-width="0.8" />
        <circle cx="46" cy="34" r="2" fill="#E8B8D4" stroke="#9C4A6F" stroke-width="0.8" />
        <line x1="62" y1="40" x2="62" y2="10" stroke="#C86B9C" stroke-width="1.5" stroke-linecap="round" />
        <circle cx="62" cy="18" r="2" fill="#E8B8D4" stroke="#9C4A6F" stroke-width="0.8" />
        <circle cx="62" cy="26" r="2" fill="#E8B8D4" stroke="#9C4A6F" stroke-width="0.8" />
        <circle cx="62" cy="34" r="2" fill="#E8B8D4" stroke="#9C4A6F" stroke-width="0.8" />
        <line x1="78" y1="40" x2="78" y2="10" stroke="#C86B9C" stroke-width="1.5" stroke-linecap="round" />
        <circle cx="78" cy="18" r="2" fill="#E8B8D4" stroke="#9C4A6F" stroke-width="0.8" />
        <circle cx="78" cy="26" r="2" fill="#E8B8D4" stroke="#9C4A6F" stroke-width="0.8" />
        <circle cx="78" cy="34" r="2" fill="#E8B8D4" stroke="#9C4A6F" stroke-width="0.8" />
        <line x1="94" y1="40" x2="94" y2="10" stroke="#C86B9C" stroke-width="1.5" stroke-linecap="round" />
        <circle cx="94" cy="18" r="2" fill="#E8B8D4" stroke="#9C4A6F" stroke-width="0.8" />
        <circle cx="94" cy="26" r="2" fill="#E8B8D4" stroke="#9C4A6F" stroke-width="0.8" />
        <circle cx="94" cy="34" r="2" fill="#E8B8D4" stroke="#9C4A6F" stroke-width="0.8" />
        <line x1="110" y1="40" x2="110" y2="10" stroke="#C86B9C" stroke-width="1.5" stroke-linecap="round" />
        <circle cx="110" cy="18" r="2" fill="#E8B8D4" stroke="#9C4A6F" stroke-width="0.8" />
        <circle cx="110" cy="26" r="2" fill="#E8B8D4" stroke="#9C4A6F" stroke-width="0.8" />
        <circle cx="110" cy="34" r="2" fill="#E8B8D4" stroke="#9C4A6F" stroke-width="0.8" />
        <line x1="126" y1="40" x2="126" y2="10" stroke="#C86B9C" stroke-width="1.5" stroke-linecap="round" />
        <circle cx="126" cy="18" r="2" fill="#E8B8D4" stroke="#9C4A6F" stroke-width="0.8" />
        <circle cx="126" cy="26" r="2" fill="#E8B8D4" stroke="#9C4A6F" stroke-width="0.8" />
        <circle cx="126" cy="34" r="2" fill="#E8B8D4" stroke="#9C4A6F" stroke-width="0.8" />
        <line x1="142" y1="40" x2="142" y2="10" stroke="#C86B9C" stroke-width="1.5" stroke-linecap="round" />
        <circle cx="142" cy="18" r="2" fill="#E8B8D4" stroke="#9C4A6F" stroke-width="0.8" />
        <circle cx="142" cy="26" r="2" fill="#E8B8D4" stroke="#9C4A6F" stroke-width="0.8" />
        <circle cx="142" cy="34" r="2" fill="#E8B8D4" stroke="#9C4A6F" stroke-width="0.8" />
        <line x1="158" y1="40" x2="158" y2="10" stroke="#C86B9C" stroke-width="1.5" stroke-linecap="round" />
        <circle cx="158" cy="18" r="2" fill="#E8B8D4" stroke="#9C4A6F" stroke-width="0.8" />
        <circle cx="158" cy="26" r="2" fill="#E8B8D4" stroke="#9C4A6F" stroke-width="0.8" />
        <circle cx="158" cy="34" r="2" fill="#E8B8D4" stroke="#9C4A6F" stroke-width="0.8" />
        <line x1="174" y1="40" x2="174" y2="10" stroke="#C86B9C" stroke-width="1.5" stroke-linecap="round" />
        <circle cx="174" cy="18" r="2" fill="#E8B8D4" stroke="#9C4A6F" stroke-width="0.8" />
        <circle cx="174" cy="26" r="2" fill="#E8B8D4" stroke="#9C4A6F" stroke-width="0.8" />
        <circle cx="174" cy="34" r="2" fill="#E8B8D4" stroke="#9C4A6F" stroke-width="0.8" />
                <line x1="38" y1="50" x2="38" y2="80" stroke="#C86B9C" stroke-width="1.5" stroke-linecap="round" />
        <circle cx="38" cy="58" r="2" fill="#E8B8D4" stroke="#9C4A6F" stroke-width="0.8" />
        <circle cx="38" cy="66" r="2" fill="#E8B8D4" stroke="#9C4A6F" stroke-width="0.8" />
        <circle cx="38" cy="74" r="2" fill="#E8B8D4" stroke="#9C4A6F" stroke-width="0.8" />
        <line x1="54" y1="50" x2="54" y2="80" stroke="#C86B9C" stroke-width="1.5" stroke-linecap="round" />
        <circle cx="54" cy="58" r="2" fill="#E8B8D4" stroke="#9C4A6F" stroke-width="0.8" />
        <circle cx="54" cy="66" r="2" fill="#E8B8D4" stroke="#9C4A6F" stroke-width="0.8" />
        <circle cx="54" cy="74" r="2" fill="#E8B8D4" stroke="#9C4A6F" stroke-width="0.8" />
        <line x1="70" y1="50" x2="70" y2="80" stroke="#C86B9C" stroke-width="1.5" stroke-linecap="round" />
        <circle cx="70" cy="58" r="2" fill="#E8B8D4" stroke="#9C4A6F" stroke-width="0.8" />
        <circle cx="70" cy="66" r="2" fill="#E8B8D4" stroke="#9C4A6F" stroke-width="0.8" />
        <circle cx="70" cy="74" r="2" fill="#E8B8D4" stroke="#9C4A6F" stroke-width="0.8" />
        <line x1="86" y1="50" x2="86" y2="80" stroke="#C86B9C" stroke-width="1.5" stroke-linecap="round" />
        <circle cx="86" cy="58" r="2" fill="#E8B8D4" stroke="#9C4A6F" stroke-width="0.8" />
        <circle cx="86" cy="66" r="2" fill="#E8B8D4" stroke="#9C4A6F" stroke-width="0.8" />
        <circle cx="86" cy="74" r="2" fill="#E8B8D4" stroke="#9C4A6F" stroke-width="0.8" />
        <line x1="102" y1="50" x2="102" y2="80" stroke="#C86B9C" stroke-width="1.5" stroke-linecap="round" />
        <circle cx="102" cy="58" r="2" fill="#E8B8D4" stroke="#9C4A6F" stroke-width="0.8" />
        <circle cx="102" cy="66" r="2" fill="#E8B8D4" stroke="#9C4A6F" stroke-width="0.8" />
        <circle cx="102" cy="74" r="2" fill="#E8B8D4" stroke="#9C4A6F" stroke-width="0.8" />
        <line x1="118" y1="50" x2="118" y2="80" stroke="#C86B9C" stroke-width="1.5" stroke-linecap="round" />
        <circle cx="118" cy="58" r="2" fill="#E8B8D4" stroke="#9C4A6F" stroke-width="0.8" />
        <circle cx="118" cy="66" r="2" fill="#E8B8D4" stroke="#9C4A6F" stroke-width="0.8" />
        <circle cx="118" cy="74" r="2" fill="#E8B8D4" stroke="#9C4A6F" stroke-width="0.8" />
        <line x1="134" y1="50" x2="134" y2="80" stroke="#C86B9C" stroke-width="1.5" stroke-linecap="round" />
        <circle cx="134" cy="58" r="2" fill="#E8B8D4" stroke="#9C4A6F" stroke-width="0.8" />
        <circle cx="134" cy="66" r="2" fill="#E8B8D4" stroke="#9C4A6F" stroke-width="0.8" />
        <circle cx="134" cy="74" r="2" fill="#E8B8D4" stroke="#9C4A6F" stroke-width="0.8" />
        <line x1="150" y1="50" x2="150" y2="80" stroke="#C86B9C" stroke-width="1.5" stroke-linecap="round" />
        <circle cx="150" cy="58" r="2" fill="#E8B8D4" stroke="#9C4A6F" stroke-width="0.8" />
        <circle cx="150" cy="66" r="2" fill="#E8B8D4" stroke="#9C4A6F" stroke-width="0.8" />
        <circle cx="150" cy="74" r="2" fill="#E8B8D4" stroke="#9C4A6F" stroke-width="0.8" />
        <line x1="166" y1="50" x2="166" y2="80" stroke="#C86B9C" stroke-width="1.5" stroke-linecap="round" />
        <circle cx="166" cy="58" r="2" fill="#E8B8D4" stroke="#9C4A6F" stroke-width="0.8" />
        <circle cx="166" cy="66" r="2" fill="#E8B8D4" stroke="#9C4A6F" stroke-width="0.8" />
        <circle cx="166" cy="74" r="2" fill="#E8B8D4" stroke="#9C4A6F" stroke-width="0.8" />
    </symbol>
<symbol id="bioicons_collagen" viewBox="0 0 527.773 67.313" overflow="visible">
<defs><clipPath clipPathUnits="userSpaceOnUse" id="bioicons_collagen__a"><path d="M2.079 1.599h527.2v67.32H2.08z" /></clipPath></defs><path clip-path="url(#bioicons_collagen__a)" d="M525.362 60.603c-7.596-1.639-12.673-4.997-17.75-9.994-3.358-3.318-6.756-4.997-8.435-4.997-2.558 0-2.558 1.68-1.679 1.68 2.519 1.678 5.037 3.317 7.596 6.675a824.9 824.9 0 0 1 7.595 4.997c1.68 1.64 4.238 3.318 7.596 4.957h6.756c.84 0 2.518-1.639-1.68-3.318z" fill="#f0037f" fill-rule="evenodd" fill-opacity="1" stroke="none" /><path d="M479.99 45.812c5.036 0 10.912 6.756 16.829 11.833 5.037 5.077 9.234 6.756 16.79 8.435.84 0 0 1.679 0 0-2.519-1.679-5.037-3.358-7.556-5.077-3.358-1.679-6.716-5.037-10.074-8.435-4.237-3.358-9.274-8.435-12.632-10.154-3.358 0-5.037 0-5.876 1.72-1.72 3.357 0 1.678 2.518 1.678z" fill="#88c829" fill-rule="evenodd" fill-opacity="1" stroke="none" /><path d="M520.125 64.201c-2.519-1.679-5.037-1.679-7.556-3.358-4.197-1.679-7.555-5.037-10.913-8.355-5.037-5.037-8.395-10.074-13.432-10.074-.84 0-1.679 1.68-1.679 1.68 1.68 1.678 3.358 3.357 5.877 5.036 2.518 0 5.037 3.358 8.394 6.676 1.68 1.68 3.358 3.358 5.877 5.037h.84c0 1.68.839 1.68.839 1.68h.84c.839 0 .839 0 .839 1.678h2.519c0 1.64.839 1.64.839 1.64h5.037c.84 0 2.518 0 3.358-1.64h-1.68z" fill="#bb7984" fill-rule="evenodd" fill-opacity="1" stroke="none" /><path d="M502.535 62.482c-7.515-1.679-12.552-6.756-17.589-11.793-3.318-1.679-6.676-5.077-8.355-5.077-2.518 0-2.518 1.72-1.679 1.72 2.519 1.678 5.037 3.357 7.556 6.715 2.478 1.68 4.997 3.398 7.515 6.756 1.679 1.68 4.197 3.358 7.515 3.358.84 1.68 4.198 1.68 6.716 1.68.84 0 2.479-3.359-1.679-3.359z" fill="#f0037f" fill-rule="evenodd" fill-opacity="1" stroke="none" /><path d="M458.882 45.612c5.077 0 10.114 6.836 16.03 11.953 5.077 5.117 9.275 6.796 16.87 10.194.84 0 0 0 0 0-2.519-1.679-5.037-3.398-6.756-6.796-4.197-1.719-7.595-5.117-10.953-8.515-3.358-5.117-8.435-8.515-12.673-10.234-2.518-1.719-4.197-1.719-5.876 1.72-.88 1.678.84 0 3.358 1.678z" fill="#88c829" fill-rule="evenodd" fill-opacity="1" stroke="none" /><path clip-path="url(#bioicons_collagen__a)" d="M497.658 65.72c-2.518-1.639-5.916-1.639-8.435-3.318 0 0-5.916-4.997-9.274-8.315-4.237-4.997-8.475-9.994-13.512-11.673l-1.719 1.68c1.72 1.678 4.238 3.317 5.917 4.996 2.558 1.68 5.916 4.997 8.475 8.315 1.679 1.68 3.358 3.318 5.876 4.997l.88 1.68h.839l.84 1.638h.839c2.518 3.318 5.916 1.68 8.435 1.68 0 0 1.679 0 2.518-1.68h-1.679z" fill="#bb7984" fill-rule="evenodd" fill-opacity="1" stroke="none" /><path d="M480.709 62.442c-7.516-3.398-12.553-6.796-17.59-11.913-3.318-3.398-6.676-5.117-8.355-6.835-1.679 0-2.518 1.718-1.679 3.437 2.519 1.68 5.037 3.398 7.556 5.117 2.478 3.398 4.997 5.077 7.515 6.796 1.68 1.72 4.198 3.398 6.676 5.117 1.68 1.68 4.198 1.68 6.716 1.68 1.68 0 3.318-3.399-.84-3.399z" fill="#f0037f" fill-rule="evenodd" fill-opacity="1" stroke="none" /><path d="M436.136 42.015c4.237 1.718 10.114 8.594 16.03 13.751 4.237 5.157 9.274 8.595 16.87 10.314 0 0 0 1.679 0 0-2.519-1.719-5.037-3.438-7.596-5.157-3.358-3.438-6.716-6.876-10.114-10.314-3.358-5.157-8.434-10.313-12.672-12.032-2.518 0-4.197 0-5.876 1.719-1.72 3.437.84 1.719 3.358 1.719z" fill="#88c829" fill-rule="evenodd" fill-opacity="1" stroke="none" /><path d="M474.832 66.08c-2.518-1.719-5.037-1.719-6.716-3.398l-.84-1.719c-3.317-1.719-6.675-6.836-10.033-10.234-4.997-5.117-8.355-10.234-13.392-10.234 0 0-1.679 0-1.679 1.72 1.679 0 3.358 1.718 5.876 3.397 2.519 3.438 5.037 5.117 8.355 8.515 1.68 1.72 3.358 5.117 5.037 6.836h1.68v1.719c.839 0 .839 0 1.638 1.679h1.68l.839 1.719h1.679c1.679 1.679 2.518 1.679 5.037 1.679h2.478c-.8-1.679-.8-1.679-1.639-1.679z" fill="#bb7984" fill-rule="evenodd" fill-opacity="1" stroke="none" /><path d="M458.122 60.803c-7.595-1.719-12.672-6.756-17.749-11.833-3.358-3.398-6.756-5.077-8.435-6.756-1.679-1.719-2.558 1.68-1.679 1.68 3.358 1.678 5.037 3.397 7.596 6.755 2.518 3.398 5.077 5.077 7.595 6.756 1.679 1.68 4.237 5.077 6.756 5.077 1.679 1.68 4.237 1.68 6.756 1.68 1.679 1.678 3.358-1.68-.84-3.359z" fill="#f0037f" fill-rule="evenodd" fill-opacity="1" stroke="none" /><path d="M413.43 38.856c5.036 1.68 10.073 8.435 15.95 15.191 5.037 3.358 9.234 6.756 16.79 10.114 0 0 0 1.68 0 0-2.519-1.679-5.037-3.358-7.556-6.756-3.358-1.679-6.716-6.756-10.074-10.114-3.358-3.358-8.395-8.435-12.592-10.114-2.519-1.718-4.198-1.718-5.877 0-.839 3.358.84 1.68 3.358 1.68z" fill="#88c829" fill-rule="evenodd" fill-opacity="1" stroke="none" /><path d="M452.246 64.201c-2.519-1.679-4.198-1.679-6.756-5.037-4.197-3.358-7.595-6.716-10.953-10.034-4.238-5.037-7.596-10.074-13.512-11.753l-1.72 1.68c1.72 1.678 4.238 3.357 5.917 5.036 2.559 1.68 5.077 5.037 8.475 8.355l5.037 5.037c.84 1.68.84 1.68 1.72 1.68l.839 1.678h.839s.84 0 .84 1.68h.839c.84 0 .84 0 .84 1.678h1.678c1.72 1.64 2.559 1.64 5.077 1.64 0 0 1.68 0 2.519-1.64h-1.68z" fill="#bb7984" fill-rule="evenodd" fill-opacity="1" stroke="none" /><path d="M434.617 59.284c-6.716-3.358-12.593-8.395-16.79-13.472-3.358-3.358-6.716-5.037-8.395-6.716-2.519-1.719-2.519 1.68-1.68 1.68 2.52 1.678 4.198 3.357 7.556 6.715 1.68 3.398 5.037 5.077 6.716 8.435l7.556 5.037c.84 0 4.197 1.679 6.716 1.679.84 0 2.518-3.358-1.68-3.358z" fill="#f0037f" fill-rule="evenodd" fill-opacity="1" stroke="none" /><path d="M390.803 37.337c4.238 0 9.275 6.756 15.19 13.512 5.078 3.358 9.275 6.756 16.87 10.114.84 0 0 1.679 0 0-2.518-1.679-5.036-3.358-6.755-6.756-4.198-1.679-7.596-6.756-10.114-10.114-4.198-3.358-8.435-8.435-12.672-10.114-3.358-1.719-4.198-1.719-5.877 1.68-1.719 1.678 0 0 3.358 1.678z" fill="#88c829" fill-rule="evenodd" fill-opacity="1" stroke="none" /><path d="M429.42 60.963c-2.519-1.719-5.037-1.719-6.716-3.438l-.84-1.719c-4.157-3.398-7.515-6.836-10.034-10.274-4.997-5.116-8.355-10.273-13.391-11.992-.84 0-1.68 1.719-1.68 1.719l5.037 5.157c3.358 1.718 5.877 5.116 8.355 8.554 1.68 1.72 4.198 3.438 5.877 6.836h.84c.839 0 .839 0 .839 1.72h.84c.799 0 .799 1.718.799 1.718h1.679l.84 1.72h.839c1.679 1.678 3.358 1.678 5.037 1.678.84 0 2.518 0 3.318-1.679h-1.64z" fill="#bb7984" fill-rule="evenodd" fill-opacity="1" stroke="none" /><path d="M411.75 55.566c-6.715-3.358-12.592-8.395-16.79-13.392-3.357-3.358-6.715-5.037-8.394-6.715-1.68 0-2.519 1.678-1.68 1.678 2.52 1.68 5.038 3.358 7.556 8.395 1.68 1.64 5.037 3.318 6.716 6.676l7.556 5.037c.839 1.64 4.197 1.64 6.715 1.64.84 0 2.519-3.319-1.679-3.319z" fill="#f0037f" fill-rule="evenodd" fill-opacity="1" stroke="none" /><path d="M368.217 33.58c4.197 0 10.034 6.756 15.91 13.511 4.158 5.077 9.195 6.756 15.91 10.114.8 0 0 1.68.8 0-3.318-1.679-4.997-3.358-7.515-5.037-4.198-3.398-6.676-6.756-10.034-10.153-3.358-5.037-8.355-10.114-12.553-11.793-2.518-1.72-4.197-1.72-5.876 1.679-1.68 1.679.84 0 3.358 1.679z" fill="#88c829" fill-rule="evenodd" fill-opacity="1" stroke="none" /><path d="M406.913 57.205c-2.518-1.679-5.077-1.679-6.756-3.358l-.839-1.679c-3.358-1.679-6.756-6.716-10.114-10.074-5.077-5.036-8.475-10.073-13.512-11.752l-1.719 1.679c1.72 1.679 3.398 3.358 5.917 5.037 2.558 1.679 5.077 5.036 8.475 8.394 1.679 1.68 3.358 3.358 5.037 6.716h.84c.879 0 .879 1.68.879 1.68h1.679s0 1.678.839 1.678h.84l.839 1.68h1.679c.84 1.678 2.558 1.678 4.237 1.678h3.358c-.84-1.679-1.679-1.679-1.679-1.679z" fill="#bb7984" fill-rule="evenodd" fill-opacity="1" stroke="none" /><path d="M389.204 52.368c-6.716-3.358-12.592-8.395-16.79-13.392-3.358-3.358-6.716-5.037-8.395-6.716-2.518 0-2.518 1.68-1.679 1.68 2.519 1.678 4.198 5.036 7.556 8.394 1.679 1.64 5.037 3.318 6.716 6.676 2.518 1.68 5.037 3.358 7.555 5.037.84 1.64 4.198 1.64 6.716 1.64.84 0 2.519-1.64-1.679-3.319z" fill="#f0037f" fill-rule="evenodd" fill-opacity="1" stroke="none" /><path d="M345.39 30.382c4.238 0 9.275 6.755 15.191 13.511 5.077 5.077 9.275 6.756 16.87 10.114.84 0 0 1.68 0 0-2.518-1.679-5.037-3.358-6.756-5.037-4.197-3.398-7.595-6.756-10.114-10.154-4.197-5.036-8.434-10.113-12.672-11.792-3.358-1.72-4.197-1.72-5.876 1.679-1.72 1.679 0 0 3.358 1.679z" fill="#88c829" fill-rule="evenodd" fill-opacity="1" stroke="none" /><path d="M384.087 54.047c-2.518-1.679-5.037-1.679-6.716-3.358-.84 0-.84 0-.84-1.679-4.157-1.679-7.515-6.716-10.033-10.034-4.997-5.037-8.355-10.074-13.392-11.752-.84 0-1.679 1.678-1.679 1.678l5.037 5.037c3.358 1.68 5.876 5.037 8.355 8.355 1.679 1.68 4.197 5.037 5.876 6.716h.84l.84 1.68h.839l.8 1.678h1.678c0 1.68 0 1.68.84 1.68h.84c1.678 1.638 3.357 1.638 5.036 1.638h3.318c-.8-1.639-1.639-1.639-1.639-1.639z" fill="#bb7984" fill-rule="evenodd" fill-opacity="1" stroke="none" /><path d="M366.418 49.13c-6.716-3.438-12.632-8.595-16.83-13.751-3.358-3.438-6.716-5.157-8.395-6.876-1.679 0-2.558 1.719-1.679 1.719 2.519 3.438 5.037 5.157 7.556 8.594l6.716 6.876c2.558 1.72 5.077 3.438 7.595 5.157.84 1.72 4.197 1.72 6.716 1.72.84 0 2.518-1.72-1.68-3.439z" fill="#f0037f" fill-rule="evenodd" fill-opacity="1" stroke="none" /><path d="M322.884 27.184c4.158 0 9.994 8.474 15.87 13.551 4.158 5.077 9.155 8.475 15.871 10.154.8 1.68 0 1.68.8 0-3.318-1.679-4.997-3.398-7.516-5.077-4.157-3.398-6.676-6.756-9.994-10.154-3.358-5.077-8.355-10.153-12.552-11.832-2.479-1.72-4.158-1.72-5.837 1.679-1.679 1.679.84 1.679 3.358 1.679z" fill="#88c829" fill-rule="evenodd" fill-opacity="1" stroke="none" /><path d="M361.5 50.89c-2.518-1.72-5.076-1.72-6.755-3.439h-.84c-3.357-3.438-6.755-8.595-10.113-12.032-5.077-5.157-8.475-10.314-13.512-12.033l-1.72 1.719c1.72 1.719 3.399 3.438 5.917 5.157 2.559 1.719 5.077 5.157 8.475 8.594 1.68 1.72 3.358 5.157 5.037 6.876h.84l.88 1.72c.839 0 .839 0 1.678 1.718h.84s.839 0 .839 1.72h2.518c.84 1.678 2.559 1.678 4.238 1.678h3.358c-.84 0-1.68-1.679-1.68-1.679z" fill="#bb7984" fill-rule="evenodd" fill-opacity="1" stroke="none" /><path d="M345.55 45.452c-6.755-1.679-12.672-6.636-17.749-11.593-2.518-3.318-5.916-4.957-8.435-6.635-1.679 0-2.558 1.678-1.679 1.678 3.358 1.64 5.037 3.318 8.435 6.596 1.68 3.318 5.077 4.997 6.756 6.636 2.519 1.64 5.077 4.957 7.596 4.957.84 1.64 4.237 1.64 6.756 1.64.839 0 2.518-1.64-1.68-3.279z" fill="#f0037f" fill-rule="evenodd" fill-opacity="1" stroke="none" /><path d="M300.898 25.445c5.057 1.659 10.114 8.315 16.03 13.312 5.057 4.996 10.114 6.655 16.87 9.973h.84c-3.359-1.659-5.058-3.318-7.596-6.655-4.218-1.66-7.596-4.977-10.114-8.315-4.218-4.997-9.294-9.974-12.672-11.653-3.358 0-5.057 0-5.897 1.679-1.699 3.318 0 1.659 2.539 1.659z" fill="#88c829" fill-rule="evenodd" fill-opacity="1" stroke="none" /><path d="M340.314 47.251c-2.519 0-5.037-1.699-6.716-3.418h-.84c-4.197-3.398-7.555-6.815-10.074-10.213-5.037-5.117-8.394-10.234-13.431-10.234-.84 0-1.68 0-2.519 1.719 2.519 0 4.198 1.699 5.877 3.398 3.358 1.699 5.876 5.117 8.394 8.515 1.68 1.719 4.198 3.417 5.877 5.116 0 1.7.84 1.7.84 1.7h.839c.84 1.718.84 1.718 1.679 1.718.84 1.7.84 1.7 1.679 1.7h.84c0 1.698.839 1.698 1.678 1.698.84 0 2.519 1.7 4.198 1.7.84 0 2.518-1.7 3.358-1.7-.84 0-1.68 0-1.68-1.699z" fill="#bb7984" fill-rule="evenodd" fill-opacity="1" stroke="none" /><path d="M322.704 42.234c-6.696-1.699-12.532-6.775-17.569-11.852-3.338-1.68-6.676-3.378-8.355-5.077-1.679 0-2.518 1.699-1.679 3.398 2.519 1.679 5.017 1.679 8.375 5.077 1.66 1.679 4.178 5.076 6.696 6.755 2.498 1.7 5.017 3.398 7.515 3.398.84 1.68 4.178 1.68 6.696 1.68.84 0 2.499-3.379-1.679-3.379z" fill="#f0037f" fill-rule="evenodd" fill-opacity="1" stroke="none" /><path d="M278.131 27.184c4.198 0 10.094 5.076 15.99 10.133 5.038 5.077 9.255 6.756 16.81 8.455.84 0 0 1.68.84 0-3.358-1.699-5.876-3.378-7.555-5.077-4.218-1.679-7.576-5.057-10.934-8.435-3.378-3.378-8.415-8.454-12.632-8.454-3.358-1.7-5.037-1.7-5.877 1.699-1.699 3.377.84 1.679 3.358 1.679z" fill="#88c829" fill-rule="evenodd" fill-opacity="1" stroke="none" /><path d="M317.847 44.073c-2.518 0-5.037-1.679-6.716-1.679-.859 0-.859-1.699-.859-1.699-4.197-1.679-7.555-5.057-10.933-8.435-5.037-5.076-8.415-10.153-13.452-8.454h-1.7c1.7 1.699 3.379 3.378 5.897 5.076 2.519 1.68 5.057 3.378 8.415 6.756 1.68 1.68 3.358 3.378 5.897 5.057l.839 1.7h.84s.839 0 .839 1.678h2.518c0 1.7.84 1.7.84 1.7h1.699c.84 1.678 2.518 1.678 4.197 1.678.84 0 2.519-1.679 3.358-1.679-.84 0-1.679 0-1.679-1.699z" fill="#bb7984" fill-rule="evenodd" fill-opacity="1" stroke="none" /><path d="M300.138 40.356c-7.555-1.66-13.432-6.676-17.63-10.034-3.357-1.66-6.715-3.338-9.234-3.338-1.679-1.68-2.518 0-1.679 1.679 3.358 1.659 5.037 1.659 8.395 5.017 2.519 1.659 5.037 3.338 7.556 5.017 2.518 1.659 5.037 3.338 7.555 4.997h6.716c.84 0 2.519-3.338-1.679-3.338z" fill="#f0037f" fill-rule="evenodd" fill-opacity="1" stroke="none" /><path d="M254.806 26.824c5.037 0 10.073 6.836 16.79 10.254 5.036 5.116 9.234 6.835 16.79 8.534h.839c-3.358-1.699-5.877-3.418-7.556-5.117-4.197-1.719-7.555-5.136-10.913-8.554-4.198-3.418-9.234-6.836-13.432-8.555-2.518 0-4.197 0-5.876 3.438-.84 3.418.84 1.699 3.358 0z" fill="#88c829" fill-rule="evenodd" fill-opacity="1" stroke="none" /><path d="M295.001 43.913c-2.518-1.719-5.017-1.719-7.535-3.418-4.178-1.719-7.536-5.136-10.874-8.554-5.017-3.418-8.375-8.555-14.231-8.555l-1.679 1.719c2.518 1.719 4.197 1.719 5.856 3.418 3.358 1.719 5.877 5.137 9.215 6.836 1.679 1.719 3.338 3.417 5.856 5.136h.84c0 1.7.84 1.7.84 1.7h.839c.82 0 .82 0 .82 1.718h2.518s.84 0 1.679 1.7h4.177c.84 0 2.519-1.7 3.338-1.7h-1.659z" fill="#bb7984" fill-rule="evenodd" fill-opacity="1" stroke="none" /><path d="M276.612 42.234c-6.756-1.699-12.672-6.775-17.729-10.153-3.378-3.378-6.756-5.077-8.455-5.077-2.538-1.7-2.538 0-1.679 1.699 2.519 1.679 5.057 3.378 8.435 5.077 1.7 1.679 4.238 5.076 6.756 6.755 2.538 1.7 5.077 3.398 7.615 5.077h6.756c.84 0 2.519-3.378-1.699-3.378z" fill="#f0037f" fill-rule="evenodd" fill-opacity="1" stroke="none" /><path d="M232.14 27.184c4.197 0 10.073 6.755 15.95 11.832 5.037 3.378 9.234 6.756 16.79 8.435.839 0 0 0 0 0-2.519-1.679-5.037-3.378-6.716-5.057-4.198-3.378-7.556-6.756-10.914-10.134-3.358-3.378-8.395-8.454-12.592-8.454-3.358-1.7-5.037-1.7-5.877 1.699-1.679 3.377 0 1.679 3.358 1.679z" fill="#88c829" fill-rule="evenodd" fill-opacity="1" stroke="none" /><path d="M271.396 45.732c-2.519-1.719-5.037-1.719-6.716-3.438h-.84c-4.197-3.438-7.555-6.875-10.913-10.313-5.037-3.438-8.395-8.595-13.432-8.595-.84 0-1.68 0-1.68 1.719 1.68 0 3.359 1.719 5.877 3.438 2.519 1.719 5.037 5.157 8.395 6.876 1.68 1.718 3.358 3.437 5.877 5.156 0 1.72.84 1.72.84 1.72h.839l.84 1.718h.839c.84 0 .84 0 1.679 1.72h2.518c.84 1.718 2.519 1.718 4.198 1.718.839 0 2.518-1.719 3.358-1.719h-1.68z" fill="#bb7984" fill-rule="evenodd" fill-opacity="1" stroke="none" /><path d="M253.806 42.354c-6.676-1.699-12.512-6.816-17.53-10.233-3.337-3.398-6.675-5.097-8.334-5.097-1.68-1.72-2.519 0-1.68 1.699 3.339 1.699 5.018 3.398 8.356 5.116 1.659 3.398 4.157 5.097 6.676 6.816 2.498 1.7 4.997 3.398 7.495 5.097.84 0 4.178 0 6.676 1.7.84 0 2.499-3.399-1.659-5.098z" fill="#f0037f" fill-rule="evenodd" fill-opacity="1" stroke="none" /><path d="M210.153 25.445c5.057 0 10.114 6.656 16.03 13.312 5.057 3.318 10.114 6.655 16.87 8.314.84 0 0 1.66.84 0-3.359-1.659-5.058-3.318-7.596-4.996-4.218-3.318-7.596-6.656-10.114-9.974-4.218-3.338-9.294-8.315-13.512-9.994-2.518 0-4.217 0-5.896 1.679-.86 3.318.84 1.659 3.378 1.659z" fill="#88c829" fill-rule="evenodd" fill-opacity="1" stroke="none" /><path d="M248.73 45.353c-1.68-1.68-5.877 0-7.556-1.68-.84 0-6.716-6.755-10.074-10.133-4.198-5.077-7.555-10.154-13.432-10.154 0 0-1.679 0-1.679 1.699 2.519 1.699 4.198 1.699 5.877 5.077 2.518 1.679 5.876 3.378 8.394 6.756 1.68 3.378 3.358 5.057 5.877 6.756h.84c0 1.679.839 1.679.839 1.679h.84l.839 1.698c2.518 1.68 6.716 0 8.395 0h3.358c-.84 0-1.68-1.698-2.519-1.698z" fill="#bb7984" fill-rule="evenodd" fill-opacity="1" stroke="none" /><path d="M231.96 42.294c-7.516-1.719-12.533-6.875-17.57-12.032-3.338-1.72-6.676-5.157-8.355-5.157-1.679-1.72-2.518 1.719-1.679 1.719 3.358 1.719 5.017 3.438 8.375 6.876 1.66 1.719 4.178 5.156 6.696 6.875 1.659 1.72 4.177 3.438 7.515 5.157.84 0 4.178 0 5.857 1.72 1.679 0 3.338-3.439-.84-5.158z" fill="#f0037f" fill-rule="evenodd" fill-opacity="1" stroke="none" /><path d="M187.566 23.486c5.037 0 10.074 6.856 15.95 13.711 5.038 3.418 9.235 6.836 16.79 10.254-2.518-1.699-5.036-3.418-7.555-6.836-3.358-1.719-6.716-6.855-10.074-10.273-3.358-3.418-8.395-8.555-12.592-10.274-2.519-1.72-4.198-1.72-5.877 1.719-.84 1.699.84 1.699 3.358 1.699z" fill="#88c829" fill-rule="evenodd" fill-opacity="1" stroke="none" /><path d="M226.083 47.071c-2.518-1.679-4.197-3.357-6.696-5.036-4.177-3.338-7.535-6.696-10.873-10.034-4.178-5.017-8.375-10.054-13.392-11.733l-1.68 1.679c1.68 1.679 4.198 3.358 5.857 5.037 2.519 1.659 5.037 5.017 8.375 8.355 1.68 1.679 3.338 3.358 5.017 5.037.84 1.659.84 1.659 1.68 1.659h.839c0 1.679.84 1.679.84 1.679h.819c0 1.678.84 1.678.84 1.678h.839c.839 1.68.839 1.68 1.679 1.68 1.659 0 2.498 1.658 5.016 1.658 0 0 1.68-1.659 2.499-1.659h-1.659z" fill="#bb7984" fill-rule="evenodd" fill-opacity="1" stroke="none" /><path d="M209.373 42.254c-7.595-3.358-12.672-8.395-17.73-13.431-3.377-3.358-6.755-5.037-8.454-6.716-1.679 0-2.538 1.679-1.679 3.358 3.378 1.679 5.057 3.358 8.435 6.715 1.699 1.68 4.237 5.037 6.756 6.716 1.699 1.68 4.237 3.358 6.756 5.037 1.699 0 4.237 1.68 6.756 1.68 1.699 0 3.378-3.359-.84-3.359z" fill="#f0037f" fill-rule="evenodd" fill-opacity="1" stroke="none" /><path d="M164.72 20.228c5.037 0 10.094 8.475 15.99 13.552 5.037 5.076 9.255 8.454 16.81 11.832-2.518-1.679-5.037-5.077-7.555-6.756L179.87 28.703c-3.378-5.077-8.415-10.154-12.632-11.853-2.519 0-4.198-1.7-5.877 1.699-.86 3.378.84 1.679 3.358 1.679z" fill="#88c829" fill-rule="evenodd" fill-opacity="1" stroke="none" /><path d="M203.517 44.033c-2.539-1.699-4.218-1.699-6.756-3.418-4.218-3.418-7.596-6.855-10.974-11.992-4.217-5.137-7.595-10.274-12.672-10.274h-2.538c2.538 1.719 4.237 3.438 5.916 5.137 2.538 3.438 5.916 5.137 8.455 8.575 1.679 3.417 3.378 5.136 5.057 6.835.84 0 .84 0 1.699 1.72h.84l.839 1.718h.84l.859 1.7h.84c.839 0 .839 0 1.678 1.718 1.7 0 2.539 0 5.077 1.7 0 0 1.68-1.7 2.519-1.7 0 0-.84 0-1.68-1.719z" fill="#bb7984" fill-rule="evenodd" fill-opacity="1" stroke="none" /><path d="M185.887 38.637c-6.716-1.7-12.592-8.455-16.79-13.512-3.357-3.378-6.715-5.077-8.394-5.077-1.68-1.7-2.519 0-1.68 1.699 2.52 1.679 4.198 3.378 7.556 6.756 1.679 1.679 5.037 5.057 6.716 6.756 2.518 1.679 5.037 3.378 7.555 5.057.84 1.699 4.198 1.699 6.716 3.378.84 0 2.519-3.378-1.679-5.057z" fill="#f0037f" fill-rule="evenodd" fill-opacity="1" stroke="none" /><path d="M142.074 17.11c4.217 0 9.274 8.435 16.03 13.491 4.218 5.077 9.275 8.455 16.03 11.813h.84c-3.358-1.679-5.057-5.057-7.595-6.736-4.218-3.378-6.736-6.756-10.114-10.133-3.378-5.057-8.435-10.134-12.673-11.813-2.518 0-4.217-1.7-5.896 1.679-1.699 3.378.84 1.699 3.378 1.699z" fill="#88c829" fill-rule="evenodd" fill-opacity="1" stroke="none" /><path d="M180.67 40.336c-2.498 0-5.016-1.68-6.675-3.358h-.84c-4.177-3.358-7.515-6.716-10.014-10.074-4.997-6.716-8.335-11.753-13.352-11.753h-1.679c1.68 1.679 3.338 3.358 5.857 5.037 2.498 3.358 4.997 5.037 8.335 10.074 1.679 1.679 3.338 3.358 5.017 5.037l.84 1.679h.819c.84 0 .84 1.679 1.679 1.679h.84l.819 1.679h.84s.839 1.679 1.678 1.679c.82 0 2.499 0 4.158 1.679.839 0 2.518-1.68 3.338-1.68-.82 0-1.66 0-1.66-1.678z" fill="#bb7984" fill-rule="evenodd" fill-opacity="1" stroke="none" /><path d="M163.021 35.439c-6.716-1.7-12.592-8.455-16.79-11.833-3.358-3.378-6.716-6.756-8.395-6.756-1.679-1.7-2.518 0-1.679 1.699 2.519 1.679 5.037 3.378 7.556 6.756 2.518 1.679 5.037 5.057 7.555 6.756 1.68 1.679 4.198 5.057 6.716 6.755 1.68 0 4.198 0 6.716 1.68.84 0 2.519-3.378-1.679-5.057z" fill="#f0037f" fill-rule="evenodd" fill-opacity="1" stroke="none" /><path d="M119.368 13.472c5.037 1.679 10.074 8.375 15.95 13.392 5.037 5.017 9.234 8.375 16.79 11.713-2.519-1.66-5.037-5.017-7.556-6.696-3.358-3.338-6.716-6.696-10.073-10.034-3.358-5.017-8.395-10.054-12.593-11.733-2.518 0-4.197 0-5.876 1.679-.84 3.358.84 1.679 3.358 1.679z" fill="#88c829" fill-rule="evenodd" fill-opacity="1" stroke="none" /><path d="M158.184 38.836c-2.538-1.679-5.057-3.358-6.756-5.036h-.84c-3.377-3.338-6.755-6.696-10.133-10.034-5.077-6.696-8.455-11.733-13.512-11.733 0 0-1.699 0-1.699 1.679 1.7 0 4.238 1.679 5.917 5.037 2.538 1.659 5.076 5.017 8.454 8.355 1.68 1.679 3.378 3.358 5.057 5.037.84 0 .84 1.659 1.7 1.659.839 0 .839 1.678 1.678 1.678h.84l.86 1.68h.839c.84 0 .84 1.678 1.679 1.678 1.699 0 2.538 1.66 5.077 1.66 0 0 1.679 0 2.518-1.66h-1.679z" fill="#bb7984" fill-rule="evenodd" fill-opacity="1" stroke="none" /><path d="M140.555 32.32c-6.736-1.699-12.633-6.755-16.83-11.832-3.378-3.378-6.736-6.756-8.415-6.756-1.679-1.7-2.538 0-1.679 1.699 2.519 1.679 4.198 3.378 7.576 6.756 1.679 1.679 5.036 5.056 6.715 6.755 2.539 3.378 5.057 5.057 7.576 6.756.84 0 4.217 1.68 6.736 1.68.84 0 2.518-3.379-1.68-5.058z" fill="#f0037f" fill-rule="evenodd" fill-opacity="1" stroke="none" /><path d="M96.661 10.274c4.218 1.679 9.275 8.395 16.03 13.432 4.218 5.037 9.275 8.395 16.031 11.753h.84c-3.358-1.68-5.057-3.358-7.596-6.716-4.217-3.358-6.736-6.716-10.114-10.074-3.378-3.358-8.435-8.395-12.672-10.074-2.519-1.68-4.218-1.68-5.897 0-1.699 3.358.84 1.679 3.378 1.679z" fill="#88c829" fill-rule="evenodd" fill-opacity="1" stroke="none" /><path d="M135.338 35.678c-2.518-1.719-5.017-3.438-6.696-5.156h-.84c-4.177-3.438-7.535-6.876-10.033-10.294-5.017-5.157-8.375-12.033-13.392-12.033 0 0-1.68 0-1.68 1.719 1.68 0 3.359 1.719 5.857 5.157 2.519 1.719 5.037 5.157 8.375 8.575 1.68 1.719 3.338 3.438 5.017 5.157l.84 1.719h.84c.839 1.718.839 1.718 1.678 1.718h.82c0 1.72.84 1.72.84 1.72h.839s.839 1.718 1.679 1.718c.839 0 2.498 1.7 4.177 1.7.84 0 2.518 0 3.338-1.7h-1.659z" fill="#bb7984" fill-rule="evenodd" fill-opacity="1" stroke="none" /><path d="M117.689 30.162c-6.736-3.378-12.633-8.435-16.83-13.512-3.378-3.378-6.736-6.756-8.415-6.756-1.679-1.699-2.538 0-1.679 1.699 2.518 1.679 5.037 3.378 7.575 6.756 2.519 3.378 5.037 5.057 7.556 6.756 1.699 3.378 4.217 5.057 6.736 6.756 1.699 0 4.217 1.679 6.736 1.679.84 0 2.518-3.378-1.68-3.378z" fill="#f0037f" fill-rule="evenodd" fill-opacity="1" stroke="none" /><path d="M73.975 6.536c5.037 1.699 10.094 8.455 15.99 15.19 5.037 3.379 9.255 6.757 16.81 10.135 0 0 0 1.679 0 0-2.518-1.68-5.037-3.378-7.555-6.756-3.378-1.68-6.736-6.756-10.094-10.114-3.378-3.378-8.415-8.455-12.632-10.134-2.519-1.699-4.198-1.699-5.877 0-.86 3.378.84 1.679 3.358 1.679z" fill="#88c829" fill-rule="evenodd" fill-opacity="1" stroke="none" /><path d="M112.772 31.88c-2.539-1.678-5.057-3.357-6.756-5.036h-.84c-3.378-3.338-6.756-6.696-10.134-10.034-5.077-5.017-8.454-11.733-13.511-11.733 0 0-1.7 0-1.7 1.679 1.7 1.679 4.238 3.358 5.917 5.037 2.538 1.659 5.077 5.017 8.455 8.355 1.679 1.679 3.378 3.358 5.057 5.037.84 1.659.84 1.659 1.699 1.659.84 1.679.84 1.679 1.679 1.679h.84c0 1.679.859 1.679.859 1.679h.84c.839 1.679.839 1.679 1.678 1.679 1.7 1.659 2.539 1.659 5.077 1.659 0 0 1.68 0 2.519-1.66h-1.68z" fill="#bb7984" fill-rule="evenodd" fill-opacity="1" stroke="none" /><path d="M96.821 27.004c-6.716-3.338-12.592-8.375-16.79-13.392-3.357-3.338-6.715-5.017-8.394-5.017-2.519-1.68-2.519 0-1.68 1.679 2.52 1.679 4.198 3.338 7.556 6.696 1.679 1.659 5.037 5.017 6.716 6.696 2.518 1.659 5.037 3.338 7.555 5.017 1.68 0 4.198 1.659 6.716 1.659.84 0 2.519-3.338-1.679-3.338z" fill="#f0037f" fill-rule="evenodd" fill-opacity="1" stroke="none" /><path d="M52.168 6.916c5.057 0 10.114 6.696 16.87 11.713 4.218 5.017 9.275 8.375 16.03 10.054.84 0 .84 1.659.84 0-2.519-1.68-5.057-3.358-7.595-5.037-4.218-3.338-7.596-6.696-10.114-10.034-4.218-3.358-8.435-8.375-12.673-10.054-3.358-1.68-5.057-1.68-5.896 1.679-1.699 3.358 0 1.679 2.538 1.679z" fill="#88c829" fill-rule="evenodd" fill-opacity="1" stroke="none" /><path d="M91.604 28.643c-2.498-1.7-5.016-1.7-6.675-3.398h-.84c-3.338-3.398-7.515-6.796-10.014-10.194C69.078 9.954 65.74 3.158 60.723 3.158c-.84 0-1.679 1.7-1.679 1.7 1.68 1.698 3.338 3.397 5.017 5.096 3.338 1.699 5.837 5.097 9.175 8.495 1.679 1.699 3.338 3.398 5.017 5.097.84 0 .84 0 .84 1.699h.819c.84 0 .84 0 1.679 1.699h.839s.82 0 .82 1.699h2.518c1.659 1.699 2.499 1.699 4.997 1.699 0 0 1.679 0 2.498-1.7h-1.659z" fill="#bb7984" fill-rule="evenodd" fill-opacity="1" stroke="none" /><path d="M73.975 21.967c-6.696-1.66-12.532-6.676-17.57-10.034-3.337-3.338-6.675-5.017-8.354-5.017-1.68 0-2.519 1.679-1.68 1.679 3.359 1.679 5.018 3.338 8.376 6.696 1.659 1.659 5.017 3.338 6.696 5.017 2.498 1.659 5.017 3.338 7.515 4.997h6.696c.84 0 2.499-3.338-1.679-3.338z" fill="#f0037f" fill-rule="evenodd" fill-opacity="1" stroke="none" /><path d="M29.582 6.596c4.178 0 10.034 6.876 15.89 12.033 5.017 3.438 10.054 6.876 16.75 8.595h.82c-3.338-1.72-5.017-3.438-7.516-5.157-4.197-3.438-7.535-6.876-10.893-8.595-3.338-5.157-8.355-8.595-12.552-10.314-2.499 0-4.178 0-5.857 1.719-.84 3.438.84 1.719 3.358 1.719z" fill="#88c829" fill-rule="evenodd" fill-opacity="1" stroke="none" /><path d="M69.118 25.505c-2.518-1.72-5.037-1.72-6.716-3.438h-.86c-4.197-3.438-7.555-6.876-10.933-8.595-4.197-5.157-8.415-10.314-13.452-10.314L35.46 4.877c1.698 1.719 4.217 1.719 5.896 3.438 2.518 1.719 5.896 5.157 8.415 8.595 1.679 1.719 4.217 3.438 5.896 5.157h.84c.84 0 .84 1.719.84 1.719h1.678l.84 1.719H61.543c.86 0 .86 1.719 1.699 1.719h5.037s1.679 0 2.518-1.72h-1.679z" fill="#bb7984" fill-rule="evenodd" fill-opacity="1" stroke="none" /><path d="M51.469 20.108c-6.756-1.66-12.673-4.957-17.73-8.235-3.377-3.298-6.755-4.957-9.294-4.957-1.699 0-1.699 1.659-.84 1.659 2.52 1.639 5.058 3.298 7.596 6.576 2.539 1.659 5.077 3.298 7.595 4.957 2.539 1.639 5.077 1.639 7.616 3.278h6.756c.84 0 2.518-3.278-1.7-3.278z" fill="#f0037f" fill-rule="evenodd" fill-opacity="1" stroke="none" /><path clip-path="url(#bioicons_collagen__a)" d="M6.076 8.495c5.037 0 10.914 5.117 16.79 10.214 5.037 3.418 10.074 5.117 16.79 6.816.84 0 .84 1.699.84 0-3.359-1.7-5.877-1.7-7.556-5.097-4.197-1.72-7.555-5.117-10.913-6.816-4.198-3.418-9.235-8.535-13.432-8.535-2.519 0-4.198 0-5.037 1.719-1.68 3.398 0 1.699 2.518 1.699z" fill="#88c829" fill-rule="evenodd" fill-opacity="1" stroke="none" /><path d="M46.272 23.786c-2.519-1.72-5.017-1.72-6.696-1.72-.84 0-.84-1.718-.84-1.718-4.177-1.72-7.535-5.157-10.873-6.876-5.017-5.157-8.375-10.314-13.392-8.595-.84 0-1.679 0-2.518 1.719 2.518 0 4.197 1.719 5.856 3.438 3.358 1.719 5.877 3.438 9.215 6.876 1.679 1.719 3.338 3.438 5.856 3.438 0 1.719.84 1.719.84 1.719h.84c.839 0 .839 1.719 1.658 1.719.84 0 1.679 0 1.679 1.719h2.519c1.659 1.719 2.498 1.719 5.016 0 0 0 1.68 0 2.499-1.72h-1.659z" fill="#bb7984" fill-rule="evenodd" fill-opacity="1" stroke="none" /><path clip-path="url(#bioicons_collagen__a)" d="M525.362 60.603c-7.596-1.639-12.673-4.997-17.75-9.994-3.358-3.318-6.756-4.997-8.435-4.997-2.558 0-2.558 1.68-1.679 1.68 2.519 1.678 5.037 3.317 7.596 6.675a824.9 824.9 0 0 1 7.595 4.997c1.68 1.64 4.238 3.318 7.596 4.957h6.756c.84 0 2.518-1.639-1.68-3.318M479.99 45.812c5.036 0 10.912 6.756 16.829 11.833 5.037 5.077 9.234 6.756 16.79 8.435.84 0 0 1.679 0 0-2.519-1.679-5.037-3.358-7.556-5.077-3.358-1.679-6.716-5.037-10.074-8.435-4.237-3.358-9.274-8.435-12.632-10.154-3.358 0-5.037 0-5.876 1.72-1.72 3.357 0 1.678 2.518 1.678" fill="none" stroke="#333" stroke-width=".47970927px" stroke-linecap="butt" stroke-linejoin="miter" stroke-miterlimit="8" stroke-dasharray="none" stroke-opacity="1" /><path d="M520.125 64.201c-2.519-1.679-5.037-1.679-7.556-3.358-4.197-1.679-7.555-5.037-10.913-8.355-5.037-5.037-8.395-10.074-13.432-10.074-.84 0-1.679 1.68-1.679 1.68 1.68 1.678 3.358 3.357 5.877 5.036 2.518 0 5.037 3.358 8.394 6.676 1.68 1.68 3.358 3.358 5.877 5.037h.84c0 1.68.839 1.68.839 1.68h.84c.839 0 .839 0 .839 1.678h2.519c0 1.64.839 1.64.839 1.64h5.037c.84 0 2.518 0 3.358-1.64h-1.68M502.535 62.482c-7.515-1.679-12.552-6.756-17.589-11.793-3.318-1.679-6.676-5.077-8.355-5.077-2.518 0-2.518 1.72-1.679 1.72 2.519 1.678 5.037 3.357 7.556 6.715 2.478 1.68 4.997 3.398 7.515 6.756 1.679 1.68 4.197 3.358 7.515 3.358.84 1.68 4.198 1.68 6.716 1.68.84 0 2.479-3.359-1.679-3.359" fill="none" stroke="#333" stroke-width=".47970927px" stroke-linecap="butt" stroke-linejoin="miter" stroke-miterlimit="8" stroke-dasharray="none" stroke-opacity="1" /><path clip-path="url(#bioicons_collagen__a)" d="M458.882 45.612c5.077 0 10.114 6.836 16.03 11.953 5.077 5.117 9.275 6.796 16.87 10.194.84 0 0 0 0 0-2.519-1.679-5.037-3.398-6.756-6.796-4.197-1.719-7.595-5.117-10.953-8.515-3.358-5.117-8.435-8.515-12.673-10.234-2.518-1.719-4.197-1.719-5.876 1.72-.88 1.678.84 0 3.358 1.678" fill="none" stroke="#333" stroke-width=".47970927px" stroke-linecap="butt" stroke-linejoin="miter" stroke-miterlimit="8" stroke-dasharray="none" stroke-opacity="1" /><path clip-path="url(#bioicons_collagen__a)" d="M497.658 65.72c-2.518-1.639-5.916-1.639-8.435-3.318 0 0-5.916-4.997-9.274-8.315-4.237-4.997-8.475-9.994-13.512-11.673l-1.719 1.68c1.72 1.678 4.238 3.317 5.917 4.996 2.558 1.68 5.916 4.997 8.475 8.315 1.679 1.68 3.358 3.318 5.876 4.997l.88 1.68h.839l.84 1.638h.839c2.518 3.318 5.916 1.68 8.435 1.68 0 0 1.679 0 2.518-1.68h-1.679" fill="none" stroke="#333" stroke-width=".47970927px" stroke-linecap="butt" stroke-linejoin="miter" stroke-miterlimit="8" stroke-dasharray="none" stroke-opacity="1" /><path d="M480.709 62.442c-7.516-3.398-12.553-6.796-17.59-11.913-3.318-3.398-6.676-5.117-8.355-6.835-1.679 0-2.518 1.718-1.679 3.437 2.519 1.68 5.037 3.398 7.556 5.117 2.478 3.398 4.997 5.077 7.515 6.796 1.68 1.72 4.198 3.398 6.676 5.117 1.68 1.68 4.198 1.68 6.716 1.68 1.68 0 3.318-3.399-.84-3.399" fill="none" stroke="#333" stroke-width=".47970927px" stroke-linecap="butt" stroke-linejoin="miter" stroke-miterlimit="8" stroke-dasharray="none" stroke-opacity="1" /><path clip-path="url(#bioicons_collagen__a)" d="M436.136 42.015c4.237 1.718 10.114 8.594 16.03 13.751 4.237 5.157 9.274 8.595 16.87 10.314 0 0 0 1.679 0 0-2.519-1.719-5.037-3.438-7.596-5.157-3.358-3.438-6.716-6.876-10.114-10.314-3.358-5.157-8.434-10.313-12.672-12.032-2.518 0-4.197 0-5.876 1.719-1.72 3.437.84 1.719 3.358 1.719" fill="none" stroke="#333" stroke-width=".47970927px" stroke-linecap="butt" stroke-linejoin="miter" stroke-miterlimit="8" stroke-dasharray="none" stroke-opacity="1" /><path clip-path="url(#bioicons_collagen__a)" d="M474.832 66.08c-2.518-1.719-5.037-1.719-6.716-3.398l-.84-1.719c-3.317-1.719-6.675-6.836-10.033-10.234-4.997-5.117-8.355-10.234-13.392-10.234 0 0-1.679 0-1.679 1.72 1.679 0 3.358 1.718 5.876 3.397 2.519 3.438 5.037 5.117 8.355 8.515 1.68 1.72 3.358 5.117 5.037 6.836h1.68v1.719c.839 0 .839 0 1.638 1.679h1.68l.839 1.719h1.679c1.679 1.679 2.518 1.679 5.037 1.679h2.478c-.8-1.679-.8-1.679-1.639-1.679" fill="none" stroke="#333" stroke-width=".47970927px" stroke-linecap="butt" stroke-linejoin="miter" stroke-miterlimit="8" stroke-dasharray="none" stroke-opacity="1" /><path d="M458.122 60.803c-7.595-1.719-12.672-6.756-17.749-11.833-3.358-3.398-6.756-5.077-8.435-6.756-1.679-1.719-2.558 1.68-1.679 1.68 3.358 1.678 5.037 3.397 7.596 6.755 2.518 3.398 5.077 5.077 7.595 6.756 1.679 1.68 4.237 5.077 6.756 5.077 1.679 1.68 4.237 1.68 6.756 1.68 1.679 1.678 3.358-1.68-.84-3.359M413.43 38.856c5.036 1.68 10.073 8.435 15.95 15.191 5.037 3.358 9.234 6.756 16.79 10.114 0 0 0 1.68 0 0-2.519-1.679-5.037-3.358-7.556-6.756-3.358-1.679-6.716-6.756-10.074-10.114-3.358-3.358-8.395-8.435-12.592-10.114-2.519-1.718-4.198-1.718-5.877 0-.839 3.358.84 1.68 3.358 1.68" fill="none" stroke="#333" stroke-width=".47970927px" stroke-linecap="butt" stroke-linejoin="miter" stroke-miterlimit="8" stroke-dasharray="none" stroke-opacity="1" /><path d="M452.246 64.201c-2.519-1.679-4.198-1.679-6.756-5.037-4.197-3.358-7.595-6.716-10.953-10.034-4.238-5.037-7.596-10.074-13.512-11.753l-1.72 1.68c1.72 1.678 4.238 3.357 5.917 5.036 2.559 1.68 5.077 5.037 8.475 8.355l5.037 5.037c.84 1.68.84 1.68 1.72 1.68l.839 1.678h.839s.84 0 .84 1.68h.839c.84 0 .84 0 .84 1.678h1.678c1.72 1.64 2.559 1.64 5.077 1.64 0 0 1.68 0 2.519-1.64h-1.68M434.617 59.284c-6.716-3.358-12.593-8.395-16.79-13.472-3.358-3.358-6.716-5.037-8.395-6.716-2.519-1.719-2.519 1.68-1.68 1.68 2.52 1.678 4.198 3.357 7.556 6.715 1.68 3.398 5.037 5.077 6.716 8.435l7.556 5.037c.84 0 4.197 1.679 6.716 1.679.84 0 2.518-3.358-1.68-3.358M390.803 37.337c4.238 0 9.275 6.756 15.19 13.512 5.078 3.358 9.275 6.756 16.87 10.114.84 0 0 1.679 0 0-2.518-1.679-5.036-3.358-6.755-6.756-4.198-1.679-7.596-6.756-10.114-10.114-4.198-3.358-8.435-8.435-12.672-10.114-3.358-1.719-4.198-1.719-5.877 1.68-1.719 1.678 0 0 3.358 1.678" fill="none" stroke="#333" stroke-width=".47970927px" stroke-linecap="butt" stroke-linejoin="miter" stroke-miterlimit="8" stroke-dasharray="none" stroke-opacity="1" /><path d="M429.42 60.963c-2.519-1.719-5.037-1.719-6.716-3.438l-.84-1.719c-4.157-3.398-7.515-6.836-10.034-10.274-4.997-5.116-8.355-10.273-13.391-11.992-.84 0-1.68 1.719-1.68 1.719l5.037 5.157c3.358 1.718 5.877 5.116 8.355 8.554 1.68 1.72 4.198 3.438 5.877 6.836h.84c.839 0 .839 0 .839 1.72h.84c.799 0 .799 1.718.799 1.718h1.679l.84 1.72h.839c1.679 1.678 3.358 1.678 5.037 1.678.84 0 2.518 0 3.318-1.679h-1.64M411.75 55.566c-6.715-3.358-12.592-8.395-16.79-13.392-3.357-3.358-6.715-5.037-8.394-6.715-1.68 0-2.519 1.678-1.68 1.678 2.52 1.68 5.038 3.358 7.556 8.395 1.68 1.64 5.037 3.318 6.716 6.676l7.556 5.037c.839 1.64 4.197 1.64 6.715 1.64.84 0 2.519-3.319-1.679-3.319M368.217 33.58c4.197 0 10.034 6.756 15.91 13.511 4.158 5.077 9.195 6.756 15.91 10.114.8 0 0 1.68.8 0-3.318-1.679-4.997-3.358-7.515-5.037-4.198-3.398-6.676-6.756-10.034-10.153-3.358-5.037-8.355-10.114-12.553-11.793-2.518-1.72-4.197-1.72-5.876 1.679-1.68 1.679.84 0 3.358 1.679" fill="none" stroke="#333" stroke-width=".47970927px" stroke-linecap="butt" stroke-linejoin="miter" stroke-miterlimit="8" stroke-dasharray="none" stroke-opacity="1" /><path d="M406.913 57.205c-2.518-1.679-5.077-1.679-6.756-3.358l-.839-1.679c-3.358-1.679-6.756-6.716-10.114-10.074-5.077-5.036-8.475-10.073-13.512-11.752l-1.719 1.679c1.72 1.679 3.398 3.358 5.917 5.037 2.558 1.679 5.077 5.036 8.475 8.394 1.679 1.68 3.358 3.358 5.037 6.716h.84c.879 0 .879 1.68.879 1.68h1.679s0 1.678.839 1.678h.84l.839 1.68h1.679c.84 1.678 2.558 1.678 4.237 1.678h3.358c-.84-1.679-1.679-1.679-1.679-1.679M389.204 52.368c-6.716-3.358-12.592-8.395-16.79-13.392-3.358-3.358-6.716-5.037-8.395-6.716-2.518 0-2.518 1.68-1.679 1.68 2.519 1.678 4.198 5.036 7.556 8.394 1.679 1.64 5.037 3.318 6.716 6.676 2.518 1.68 5.037 3.358 7.555 5.037.84 1.64 4.198 1.64 6.716 1.64.84 0 2.519-1.64-1.679-3.319M345.39 30.382c4.238 0 9.275 6.755 15.191 13.511 5.077 5.077 9.275 6.756 16.87 10.114.84 0 0 1.68 0 0-2.518-1.679-5.037-3.358-6.756-5.037-4.197-3.398-7.595-6.756-10.114-10.154-4.197-5.036-8.434-10.113-12.672-11.792-3.358-1.72-4.197-1.72-5.876 1.679-1.72 1.679 0 0 3.358 1.679" fill="none" stroke="#333" stroke-width=".47970927px" stroke-linecap="butt" stroke-linejoin="miter" stroke-miterlimit="8" stroke-dasharray="none" stroke-opacity="1" /><path d="M384.087 54.047c-2.518-1.679-5.037-1.679-6.716-3.358-.84 0-.84 0-.84-1.679-4.157-1.679-7.515-6.716-10.033-10.034-4.997-5.037-8.355-10.074-13.392-11.752-.84 0-1.679 1.678-1.679 1.678l5.037 5.037c3.358 1.68 5.876 5.037 8.355 8.355 1.679 1.68 4.197 5.037 5.876 6.716h.84l.84 1.68h.839l.8 1.678h1.678c0 1.68 0 1.68.84 1.68h.84c1.678 1.638 3.357 1.638 5.036 1.638h3.318c-.8-1.639-1.639-1.639-1.639-1.639M366.418 49.13c-6.716-3.438-12.632-8.595-16.83-13.751-3.358-3.438-6.716-5.157-8.395-6.876-1.679 0-2.558 1.719-1.679 1.719 2.519 3.438 5.037 5.157 7.556 8.594l6.716 6.876c2.558 1.72 5.077 3.438 7.595 5.157.84 1.72 4.197 1.72 6.716 1.72.84 0 2.518-1.72-1.68-3.439M322.884 27.184c4.158 0 9.994 8.474 15.87 13.551 4.158 5.077 9.155 8.475 15.871 10.154.8 1.68 0 1.68.8 0-3.318-1.679-4.997-3.398-7.516-5.077-4.157-3.398-6.676-6.756-9.994-10.154-3.358-5.077-8.355-10.153-12.552-11.832-2.479-1.72-4.158-1.72-5.837 1.679-1.679 1.679.84 1.679 3.358 1.679" fill="none" stroke="#333" stroke-width=".47970927px" stroke-linecap="butt" stroke-linejoin="miter" stroke-miterlimit="8" stroke-dasharray="none" stroke-opacity="1" /><path d="M361.5 50.89c-2.518-1.72-5.076-1.72-6.755-3.439h-.84c-3.357-3.438-6.755-8.595-10.113-12.032-5.077-5.157-8.475-10.314-13.512-12.033l-1.72 1.719c1.72 1.719 3.399 3.438 5.917 5.157 2.559 1.719 5.077 5.157 8.475 8.594 1.68 1.72 3.358 5.157 5.037 6.876h.84l.88 1.72c.839 0 .839 0 1.678 1.718h.84s.839 0 .839 1.72h2.518c.84 1.678 2.559 1.678 4.238 1.678h3.358c-.84 0-1.68-1.679-1.68-1.679M345.55 45.452c-6.755-1.679-12.672-6.636-17.749-11.593-2.518-3.318-5.916-4.957-8.435-6.635-1.679 0-2.558 1.678-1.679 1.678 3.358 1.64 5.037 3.318 8.435 6.596 1.68 3.318 5.077 4.997 6.756 6.636 2.519 1.64 5.077 4.957 7.596 4.957.84 1.64 4.237 1.64 6.756 1.64.839 0 2.518-1.64-1.68-3.279M300.898 25.445c5.057 1.659 10.114 8.315 16.03 13.312 5.057 4.996 10.114 6.655 16.87 9.973h.84c-3.359-1.659-5.058-3.318-7.596-6.655-4.218-1.66-7.596-4.977-10.114-8.315-4.218-4.997-9.294-9.974-12.672-11.653-3.358 0-5.057 0-5.897 1.679-1.699 3.318 0 1.659 2.539 1.659" fill="none" stroke="#333" stroke-width=".47970927px" stroke-linecap="butt" stroke-linejoin="miter" stroke-miterlimit="8" stroke-dasharray="none" stroke-opacity="1" /><path d="M340.314 47.251c-2.519 0-5.037-1.699-6.716-3.418h-.84c-4.197-3.398-7.555-6.815-10.074-10.213-5.037-5.117-8.394-10.234-13.431-10.234-.84 0-1.68 0-2.519 1.719 2.519 0 4.198 1.699 5.877 3.398 3.358 1.699 5.876 5.117 8.394 8.515 1.68 1.719 4.198 3.417 5.877 5.116 0 1.7.84 1.7.84 1.7h.839c.84 1.718.84 1.718 1.679 1.718.84 1.7.84 1.7 1.679 1.7h.84c0 1.698.839 1.698 1.678 1.698.84 0 2.519 1.7 4.198 1.7.84 0 2.518-1.7 3.358-1.7-.84 0-1.68 0-1.68-1.699M322.704 42.234c-6.696-1.699-12.532-6.775-17.569-11.852-3.338-1.68-6.676-3.378-8.355-5.077-1.679 0-2.518 1.699-1.679 3.398 2.519 1.679 5.017 1.679 8.375 5.077 1.66 1.679 4.178 5.076 6.696 6.755 2.498 1.7 5.017 3.398 7.515 3.398.84 1.68 4.178 1.68 6.696 1.68.84 0 2.499-3.379-1.679-3.379M278.131 27.184c4.198 0 10.094 5.076 15.99 10.133 5.038 5.077 9.255 6.756 16.81 8.455.84 0 0 1.68.84 0-3.358-1.699-5.876-3.378-7.555-5.077-4.218-1.679-7.576-5.057-10.934-8.435-3.378-3.378-8.415-8.454-12.632-8.454-3.358-1.7-5.037-1.7-5.877 1.699-1.699 3.377.84 1.679 3.358 1.679" fill="none" stroke="#333" stroke-width=".47970927px" stroke-linecap="butt" stroke-linejoin="miter" stroke-miterlimit="8" stroke-dasharray="none" stroke-opacity="1" /><path d="M317.847 44.073c-2.518 0-5.037-1.679-6.716-1.679-.859 0-.859-1.699-.859-1.699-4.197-1.679-7.555-5.057-10.933-8.435-5.037-5.076-8.415-10.153-13.452-8.454h-1.7c1.7 1.699 3.379 3.378 5.897 5.076 2.519 1.68 5.057 3.378 8.415 6.756 1.68 1.68 3.358 3.378 5.897 5.057l.839 1.7h.84s.839 0 .839 1.678h2.518c0 1.7.84 1.7.84 1.7h1.699c.84 1.678 2.518 1.678 4.197 1.678.84 0 2.519-1.679 3.358-1.679-.84 0-1.679 0-1.679-1.699M300.138 40.356c-7.555-1.66-13.432-6.676-17.63-10.034-3.357-1.66-6.715-3.338-9.234-3.338-1.679-1.68-2.518 0-1.679 1.679 3.358 1.659 5.037 1.659 8.395 5.017 2.519 1.659 5.037 3.338 7.556 5.017 2.518 1.659 5.037 3.338 7.555 4.997h6.716c.84 0 2.519-3.338-1.679-3.338M254.806 26.824c5.037 0 10.073 6.836 16.79 10.254 5.036 5.116 9.234 6.835 16.79 8.534h.839c-3.358-1.699-5.877-3.418-7.556-5.117-4.197-1.719-7.555-5.136-10.913-8.554-4.198-3.418-9.234-6.836-13.432-8.555-2.518 0-4.197 0-5.876 3.438-.84 3.418.84 1.699 3.358 0" fill="none" stroke="#333" stroke-width=".47970927px" stroke-linecap="butt" stroke-linejoin="miter" stroke-miterlimit="8" stroke-dasharray="none" stroke-opacity="1" /><path d="M295.001 43.913c-2.518-1.719-5.017-1.719-7.535-3.418-4.178-1.719-7.536-5.136-10.874-8.554-5.017-3.418-8.375-8.555-14.231-8.555l-1.679 1.719c2.518 1.719 4.197 1.719 5.856 3.418 3.358 1.719 5.877 5.137 9.215 6.836 1.679 1.719 3.338 3.417 5.856 5.136h.84c0 1.7.84 1.7.84 1.7h.839c.82 0 .82 0 .82 1.718h2.518s.84 0 1.679 1.7h4.177c.84 0 2.519-1.7 3.338-1.7h-1.659M276.612 42.234c-6.756-1.699-12.672-6.775-17.729-10.153-3.378-3.378-6.756-5.077-8.455-5.077-2.538-1.7-2.538 0-1.679 1.699 2.519 1.679 5.057 3.378 8.435 5.077 1.7 1.679 4.238 5.076 6.756 6.755 2.538 1.7 5.077 3.398 7.615 5.077h6.756c.84 0 2.519-3.378-1.699-3.378M232.14 27.184c4.197 0 10.073 6.755 15.95 11.832 5.037 3.378 9.234 6.756 16.79 8.435.839 0 0 0 0 0-2.519-1.679-5.037-3.378-6.716-5.057-4.198-3.378-7.556-6.756-10.914-10.134-3.358-3.378-8.395-8.454-12.592-8.454-3.358-1.7-5.037-1.7-5.877 1.699-1.679 3.377 0 1.679 3.358 1.679" fill="none" stroke="#333" stroke-width=".47970927px" stroke-linecap="butt" stroke-linejoin="miter" stroke-miterlimit="8" stroke-dasharray="none" stroke-opacity="1" /><path d="M271.396 45.732c-2.519-1.719-5.037-1.719-6.716-3.438h-.84c-4.197-3.438-7.555-6.875-10.913-10.313-5.037-3.438-8.395-8.595-13.432-8.595-.84 0-1.68 0-1.68 1.719 1.68 0 3.359 1.719 5.877 3.438 2.519 1.719 5.037 5.157 8.395 6.876 1.68 1.718 3.358 3.437 5.877 5.156 0 1.72.84 1.72.84 1.72h.839l.84 1.718h.839c.84 0 .84 0 1.679 1.72h2.518c.84 1.718 2.519 1.718 4.198 1.718.839 0 2.518-1.719 3.358-1.719h-1.68M253.806 42.354c-6.676-1.699-12.512-6.816-17.53-10.233-3.337-3.398-6.675-5.097-8.334-5.097-1.68-1.72-2.519 0-1.68 1.699 3.339 1.699 5.018 3.398 8.356 5.116 1.659 3.398 4.157 5.097 6.676 6.816 2.498 1.7 4.997 3.398 7.495 5.097.84 0 4.178 0 6.676 1.7.84 0 2.499-3.399-1.659-5.098M210.153 25.445c5.057 0 10.114 6.656 16.03 13.312 5.057 3.318 10.114 6.655 16.87 8.314.84 0 0 1.66.84 0-3.359-1.659-5.058-3.318-7.596-4.996-4.218-3.318-7.596-6.656-10.114-9.974-4.218-3.338-9.294-8.315-13.512-9.994-2.518 0-4.217 0-5.896 1.679-.86 3.318.84 1.659 3.378 1.659" fill="none" stroke="#333" stroke-width=".47970927px" stroke-linecap="butt" stroke-linejoin="miter" stroke-miterlimit="8" stroke-dasharray="none" stroke-opacity="1" /><path d="M248.73 45.353c-1.68-1.68-5.877 0-7.556-1.68-.84 0-6.716-6.755-10.074-10.133-4.198-5.077-7.555-10.154-13.432-10.154 0 0-1.679 0-1.679 1.699 2.519 1.699 4.198 1.699 5.877 5.077 2.518 1.679 5.876 3.378 8.394 6.756 1.68 3.378 3.358 5.057 5.877 6.756h.84c0 1.679.839 1.679.839 1.679h.84l.839 1.698c2.518 1.68 6.716 0 8.395 0h3.358c-.84 0-1.68-1.698-2.519-1.698M231.96 42.294c-7.516-1.719-12.533-6.875-17.57-12.032-3.338-1.72-6.676-5.157-8.355-5.157-1.679-1.72-2.518 1.719-1.679 1.719 3.358 1.719 5.017 3.438 8.375 6.876 1.66 1.719 4.178 5.156 6.696 6.875 1.659 1.72 4.177 3.438 7.515 5.157.84 0 4.178 0 5.857 1.72 1.679 0 3.338-3.439-.84-5.158M187.566 23.486c5.037 0 10.074 6.856 15.95 13.711 5.038 3.418 9.235 6.836 16.79 10.254-2.518-1.699-5.036-3.418-7.555-6.836-3.358-1.719-6.716-6.855-10.074-10.273-3.358-3.418-8.395-8.555-12.592-10.274-2.519-1.72-4.198-1.72-5.877 1.719-.84 1.699.84 1.699 3.358 1.699" fill="none" stroke="#333" stroke-width=".47970927px" stroke-linecap="butt" stroke-linejoin="miter" stroke-miterlimit="8" stroke-dasharray="none" stroke-opacity="1" /><path d="M226.083 47.071c-2.518-1.679-4.197-3.357-6.696-5.036-4.177-3.338-7.535-6.696-10.873-10.034-4.178-5.017-8.375-10.054-13.392-11.733l-1.68 1.679c1.68 1.679 4.198 3.358 5.857 5.037 2.519 1.659 5.037 5.017 8.375 8.355 1.68 1.679 3.338 3.358 5.017 5.037.84 1.659.84 1.659 1.68 1.659h.839c0 1.679.84 1.679.84 1.679h.819c0 1.678.84 1.678.84 1.678h.839c.839 1.68.839 1.68 1.679 1.68 1.659 0 2.498 1.658 5.016 1.658 0 0 1.68-1.659 2.499-1.659h-1.659M209.373 42.254c-7.595-3.358-12.672-8.395-17.73-13.431-3.377-3.358-6.755-5.037-8.454-6.716-1.679 0-2.538 1.679-1.679 3.358 3.378 1.679 5.057 3.358 8.435 6.715 1.699 1.68 4.237 5.037 6.756 6.716 1.699 1.68 4.237 3.358 6.756 5.037 1.699 0 4.237 1.68 6.756 1.68 1.699 0 3.378-3.359-.84-3.359M164.72 20.228c5.037 0 10.094 8.475 15.99 13.552 5.037 5.076 9.255 8.454 16.81 11.832-2.518-1.679-5.037-5.077-7.555-6.756L179.87 28.703c-3.378-5.077-8.415-10.154-12.632-11.853-2.519 0-4.198-1.7-5.877 1.699-.86 3.378.84 1.679 3.358 1.679" fill="none" stroke="#333" stroke-width=".47970927px" stroke-linecap="butt" stroke-linejoin="miter" stroke-miterlimit="8" stroke-dasharray="none" stroke-opacity="1" /><path d="M203.517 44.033c-2.539-1.699-4.218-1.699-6.756-3.418-4.218-3.418-7.596-6.855-10.974-11.992-4.217-5.137-7.595-10.274-12.672-10.274h-2.538c2.538 1.719 4.237 3.438 5.916 5.137 2.538 3.438 5.916 5.137 8.455 8.575 1.679 3.417 3.378 5.136 5.057 6.835.84 0 .84 0 1.699 1.72h.84l.839 1.718h.84l.859 1.7h.84c.839 0 .839 0 1.678 1.718 1.7 0 2.539 0 5.077 1.7 0 0 1.68-1.7 2.519-1.7 0 0-.84 0-1.68-1.719M185.887 38.637c-6.716-1.7-12.592-8.455-16.79-13.512-3.357-3.378-6.715-5.077-8.394-5.077-1.68-1.7-2.519 0-1.68 1.699 2.52 1.679 4.198 3.378 7.556 6.756 1.679 1.679 5.037 5.057 6.716 6.756 2.518 1.679 5.037 3.378 7.555 5.057.84 1.699 4.198 1.699 6.716 3.378.84 0 2.519-3.378-1.679-5.057M142.074 17.11c4.217 0 9.274 8.435 16.03 13.491 4.218 5.077 9.275 8.455 16.03 11.813h.84c-3.358-1.679-5.057-5.057-7.595-6.736-4.218-3.378-6.736-6.756-10.114-10.133-3.378-5.057-8.435-10.134-12.673-11.813-2.518 0-4.217-1.7-5.896 1.679-1.699 3.378.84 1.699 3.378 1.699" fill="none" stroke="#333" stroke-width=".47970927px" stroke-linecap="butt" stroke-linejoin="miter" stroke-miterlimit="8" stroke-dasharray="none" stroke-opacity="1" /><path d="M180.67 40.336c-2.498 0-5.016-1.68-6.675-3.358h-.84c-4.177-3.358-7.515-6.716-10.014-10.074-4.997-6.716-8.335-11.753-13.352-11.753h-1.679c1.68 1.679 3.338 3.358 5.857 5.037 2.498 3.358 4.997 5.037 8.335 10.074 1.679 1.679 3.338 3.358 5.017 5.037l.84 1.679h.819c.84 0 .84 1.679 1.679 1.679h.84l.819 1.679h.84s.839 1.679 1.678 1.679c.82 0 2.499 0 4.158 1.679.839 0 2.518-1.68 3.338-1.68-.82 0-1.66 0-1.66-1.678M163.021 35.439c-6.716-1.7-12.592-8.455-16.79-11.833-3.358-3.378-6.716-6.756-8.395-6.756-1.679-1.7-2.518 0-1.679 1.699 2.519 1.679 5.037 3.378 7.556 6.756 2.518 1.679 5.037 5.057 7.555 6.756 1.68 1.679 4.198 5.057 6.716 6.755 1.68 0 4.198 0 6.716 1.68.84 0 2.519-3.378-1.679-5.057M119.368 13.472c5.037 1.679 10.074 8.375 15.95 13.392 5.037 5.017 9.234 8.375 16.79 11.713-2.519-1.66-5.037-5.017-7.556-6.696-3.358-3.338-6.716-6.696-10.073-10.034-3.358-5.017-8.395-10.054-12.593-11.733-2.518 0-4.197 0-5.876 1.679-.84 3.358.84 1.679 3.358 1.679" fill="none" stroke="#333" stroke-width=".47970927px" stroke-linecap="butt" stroke-linejoin="miter" stroke-miterlimit="8" stroke-dasharray="none" stroke-opacity="1" /><path d="M158.184 38.836c-2.538-1.679-5.057-3.358-6.756-5.036h-.84c-3.377-3.338-6.755-6.696-10.133-10.034-5.077-6.696-8.455-11.733-13.512-11.733 0 0-1.699 0-1.699 1.679 1.7 0 4.238 1.679 5.917 5.037 2.538 1.659 5.076 5.017 8.454 8.355 1.68 1.679 3.378 3.358 5.057 5.037.84 0 .84 1.659 1.7 1.659.839 0 .839 1.678 1.678 1.678h.84l.86 1.68h.839c.84 0 .84 1.678 1.679 1.678 1.699 0 2.538 1.66 5.077 1.66 0 0 1.679 0 2.518-1.66h-1.679M140.555 32.32c-6.736-1.699-12.633-6.755-16.83-11.832-3.378-3.378-6.736-6.756-8.415-6.756-1.679-1.7-2.538 0-1.679 1.699 2.519 1.679 4.198 3.378 7.576 6.756 1.679 1.679 5.036 5.056 6.715 6.755 2.539 3.378 5.057 5.057 7.576 6.756.84 0 4.217 1.68 6.736 1.68.84 0 2.518-3.379-1.68-5.058M96.661 10.274c4.218 1.679 9.275 8.395 16.03 13.432 4.218 5.037 9.275 8.395 16.031 11.753h.84c-3.358-1.68-5.057-3.358-7.596-6.716-4.217-3.358-6.736-6.716-10.114-10.074-3.378-3.358-8.435-8.395-12.672-10.074-2.519-1.68-4.218-1.68-5.897 0-1.699 3.358.84 1.679 3.378 1.679" fill="none" stroke="#333" stroke-width=".47970927px" stroke-linecap="butt" stroke-linejoin="miter" stroke-miterlimit="8" stroke-dasharray="none" stroke-opacity="1" /><path d="M135.338 35.678c-2.518-1.719-5.017-3.438-6.696-5.156h-.84c-4.177-3.438-7.535-6.876-10.033-10.294-5.017-5.157-8.375-12.033-13.392-12.033 0 0-1.68 0-1.68 1.719 1.68 0 3.359 1.719 5.857 5.157 2.519 1.719 5.037 5.157 8.375 8.575 1.68 1.719 3.338 3.438 5.017 5.157l.84 1.719h.84c.839 1.718.839 1.718 1.678 1.718h.82c0 1.72.84 1.72.84 1.72h.839s.839 1.718 1.679 1.718c.839 0 2.498 1.7 4.177 1.7.84 0 2.518 0 3.338-1.7h-1.659M117.689 30.162c-6.736-3.378-12.633-8.435-16.83-13.512-3.378-3.378-6.736-6.756-8.415-6.756-1.679-1.699-2.538 0-1.679 1.699 2.518 1.679 5.037 3.378 7.575 6.756 2.519 3.378 5.037 5.057 7.556 6.756 1.699 3.378 4.217 5.057 6.736 6.756 1.699 0 4.217 1.679 6.736 1.679.84 0 2.518-3.378-1.68-3.378" fill="none" stroke="#333" stroke-width=".47970927px" stroke-linecap="butt" stroke-linejoin="miter" stroke-miterlimit="8" stroke-dasharray="none" stroke-opacity="1" /><path clip-path="url(#bioicons_collagen__a)" d="M73.975 6.536c5.037 1.699 10.094 8.455 15.99 15.19 5.037 3.379 9.255 6.757 16.81 10.135 0 0 0 1.679 0 0-2.518-1.68-5.037-3.378-7.555-6.756-3.378-1.68-6.736-6.756-10.094-10.114-3.378-3.378-8.415-8.455-12.632-10.134-2.519-1.699-4.198-1.699-5.877 0-.86 3.378.84 1.679 3.358 1.679" fill="none" stroke="#333" stroke-width=".47970927px" stroke-linecap="butt" stroke-linejoin="miter" stroke-miterlimit="8" stroke-dasharray="none" stroke-opacity="1" /><path d="M112.772 31.88c-2.539-1.678-5.057-3.357-6.756-5.036h-.84c-3.378-3.338-6.756-6.696-10.134-10.034-5.077-5.017-8.454-11.733-13.511-11.733 0 0-1.7 0-1.7 1.679 1.7 1.679 4.238 3.358 5.917 5.037 2.538 1.659 5.077 5.017 8.455 8.355 1.679 1.679 3.378 3.358 5.057 5.037.84 1.659.84 1.659 1.699 1.659.84 1.679.84 1.679 1.679 1.679h.84c0 1.679.859 1.679.859 1.679h.84c.839 1.679.839 1.679 1.678 1.679 1.7 1.659 2.539 1.659 5.077 1.659 0 0 1.68 0 2.519-1.66h-1.68M96.821 27.004c-6.716-3.338-12.592-8.375-16.79-13.392-3.357-3.338-6.715-5.017-8.394-5.017-2.519-1.68-2.519 0-1.68 1.679 2.52 1.679 4.198 3.338 7.556 6.696 1.679 1.659 5.037 5.017 6.716 6.696 2.518 1.659 5.037 3.338 7.555 5.017 1.68 0 4.198 1.659 6.716 1.659.84 0 2.519-3.338-1.679-3.338" fill="none" stroke="#333" stroke-width=".47970927px" stroke-linecap="butt" stroke-linejoin="miter" stroke-miterlimit="8" stroke-dasharray="none" stroke-opacity="1" /><path clip-path="url(#bioicons_collagen__a)" d="M52.168 6.916c5.057 0 10.114 6.696 16.87 11.713 4.218 5.017 9.275 8.375 16.03 10.054.84 0 .84 1.659.84 0-2.519-1.68-5.057-3.358-7.595-5.037-4.218-3.338-7.596-6.696-10.114-10.034-4.218-3.358-8.435-8.375-12.673-10.054-3.358-1.68-5.057-1.68-5.896 1.679-1.699 3.358 0 1.679 2.538 1.679" fill="none" stroke="#333" stroke-width=".47970927px" stroke-linecap="butt" stroke-linejoin="miter" stroke-miterlimit="8" stroke-dasharray="none" stroke-opacity="1" /><path clip-path="url(#bioicons_collagen__a)" d="M91.604 28.643c-2.498-1.7-5.016-1.7-6.675-3.398h-.84c-3.338-3.398-7.515-6.796-10.014-10.194C69.078 9.954 65.74 3.158 60.723 3.158c-.84 0-1.679 1.7-1.679 1.7 1.68 1.698 3.338 3.397 5.017 5.096 3.338 1.699 5.837 5.097 9.175 8.495 1.679 1.699 3.338 3.398 5.017 5.097.84 0 .84 0 .84 1.699h.819c.84 0 .84 0 1.679 1.699h.839s.82 0 .82 1.699h2.518c1.659 1.699 2.499 1.699 4.997 1.699 0 0 1.679 0 2.498-1.7h-1.659" fill="none" stroke="#333" stroke-width=".47970927px" stroke-linecap="butt" stroke-linejoin="miter" stroke-miterlimit="8" stroke-dasharray="none" stroke-opacity="1" /><path d="M73.975 21.967c-6.696-1.66-12.532-6.676-17.57-10.034-3.337-3.338-6.675-5.017-8.354-5.017-1.68 0-2.519 1.679-1.68 1.679 3.359 1.679 5.018 3.338 8.376 6.696 1.659 1.659 5.017 3.338 6.696 5.017 2.498 1.659 5.017 3.338 7.515 4.997h6.696c.84 0 2.499-3.338-1.679-3.338" fill="none" stroke="#333" stroke-width=".47970927px" stroke-linecap="butt" stroke-linejoin="miter" stroke-miterlimit="8" stroke-dasharray="none" stroke-opacity="1" /><path clip-path="url(#bioicons_collagen__a)" d="M29.582 6.596c4.178 0 10.034 6.876 15.89 12.033 5.017 3.438 10.054 6.876 16.75 8.595h.82c-3.338-1.72-5.017-3.438-7.516-5.157-4.197-3.438-7.535-6.876-10.893-8.595-3.338-5.157-8.355-8.595-12.552-10.314-2.499 0-4.178 0-5.857 1.719-.84 3.438.84 1.719 3.358 1.719" fill="none" stroke="#333" stroke-width=".47970927px" stroke-linecap="butt" stroke-linejoin="miter" stroke-miterlimit="8" stroke-dasharray="none" stroke-opacity="1" /><path clip-path="url(#bioicons_collagen__a)" d="M69.118 25.505c-2.518-1.72-5.037-1.72-6.716-3.438h-.86c-4.197-3.438-7.555-6.876-10.933-8.595-4.197-5.157-8.415-10.314-13.452-10.314L35.46 4.877c1.698 1.719 4.217 1.719 5.896 3.438 2.518 1.719 5.896 5.157 8.415 8.595 1.679 1.719 4.217 3.438 5.896 5.157h.84c.84 0 .84 1.719.84 1.719h1.678l.84 1.719H61.543c.86 0 .86 1.719 1.699 1.719h5.037s1.679 0 2.518-1.72h-1.679" fill="none" stroke="#333" stroke-width=".47970927px" stroke-linecap="butt" stroke-linejoin="miter" stroke-miterlimit="8" stroke-dasharray="none" stroke-opacity="1" /><path d="M51.469 20.108c-6.756-1.66-12.673-4.957-17.73-8.235-3.377-3.298-6.755-4.957-9.294-4.957-1.699 0-1.699 1.659-.84 1.659 2.52 1.639 5.058 3.298 7.596 6.576 2.539 1.659 5.077 3.298 7.595 4.957 2.539 1.639 5.077 1.639 7.616 3.278h6.756c.84 0 2.518-3.278-1.7-3.278" fill="none" stroke="#333" stroke-width=".47970927px" stroke-linecap="butt" stroke-linejoin="miter" stroke-miterlimit="8" stroke-dasharray="none" stroke-opacity="1" /><path clip-path="url(#bioicons_collagen__a)" d="M6.076 8.495c5.037 0 10.914 5.117 16.79 10.214 5.037 3.418 10.074 5.117 16.79 6.816.84 0 .84 1.699.84 0-3.359-1.7-5.877-1.7-7.556-5.097-4.197-1.72-7.555-5.117-10.913-6.816-4.198-3.418-9.235-8.535-13.432-8.535-2.519 0-4.198 0-5.037 1.719-1.68 3.398 0 1.699 2.518 1.699" fill="none" stroke="#333" stroke-width=".47970927px" stroke-linecap="butt" stroke-linejoin="miter" stroke-miterlimit="8" stroke-dasharray="none" stroke-opacity="1" /><path clip-path="url(#bioicons_collagen__a)" d="M46.272 23.786c-2.519-1.72-5.017-1.72-6.696-1.72-.84 0-.84-1.718-.84-1.718-4.177-1.72-7.535-5.157-10.873-6.876-5.017-5.157-8.375-10.314-13.392-8.595-.84 0-1.679 0-2.518 1.719 2.518 0 4.197 1.719 5.856 3.438 3.358 1.719 5.877 3.438 9.215 6.876 1.679 1.719 3.338 3.438 5.856 3.438 0 1.719.84 1.719.84 1.719h.84c.839 0 .839 1.719 1.658 1.719.84 0 1.679 0 1.679 1.719h2.519c1.659 1.719 2.498 1.719 5.016 0 0 0 1.68 0 2.499-1.72h-1.659" fill="none" stroke="#333" stroke-width=".47970927px" stroke-linecap="butt" stroke-linejoin="miter" stroke-miterlimit="8" stroke-dasharray="none" stroke-opacity="1" />
</symbol>
<symbol id="bioicons_cancer_cell" viewBox="0 0 143.131 156.283" overflow="visible">
<defs><clipPath clipPathUnits="userSpaceOnUse" id="bioicons_cancer_cell__a"><path d="M3.118.16h142.953v156.385H3.118z" /></clipPath></defs><path clip-path="url(#bioicons_cancer_cell__a)" d="M90.345 155.266c14.591.88 25.425-16.43 35.419-26.664 9.994-9.754 16.67-17.75 18.349-37.257 2.878-25.745-5.037-45.293-16.67-59.484-6.676-7.995-16.67-7.995-25.025-12.873C96.182 15.431 86.588.76 69.118 1.24 62.442 3 56.606 12.752 50.37 14.991c-11.273 4.437-21.666 2.638-28.742 10.633-9.594 10.674-14.591 35.979-16.67 46.612-4.197 15.55 11.233 23.986 17.47 38.177 5.436 11.993-.8 28.423 8.354 34.62 18.31 13.311 50.41 9.353 59.564 10.233z" fill="#e4aa68" fill-rule="evenodd" fill-opacity="1" stroke="none" /><path d="M99.02 132.72c8.355-.88 12.912-9.794 18.349-24.905 3.318-6.676 7.475-19.109 4.157-27.544-2.918-7.115-5.396-9.794-13.352-14.231-2.078-1.36-12.072-11.593-17.469-13.352-8.355-1.799-9.594-.44-18.349.88-13.352-.88-26.264 8.914-27.503 19.588-.44 5.316 3.758 11.113 4.157 15.99 0 5.317-4.157 10.234-4.157 13.792-.44 6.236.84 12.872 6.236 18.229 4.997 4.437 13.752 15.11 22.946 15.11 9.155 1.76 19.588-2.678 24.985-3.557z" fill="#d88b31" fill-rule="evenodd" fill-opacity="1" stroke="none" /><path d="M93.184 125.524c8.354-.88 12.912-9.754 18.348-24.865 3.318-6.676 7.476-19.108 4.158-27.543-2.918-7.116-5.397-9.794-13.352-14.232-2.079-1.319-12.073-11.553-17.47-13.312-8.354-1.799-9.594-.44-18.348.88-13.352-.88-26.264 8.874-27.504 19.548-.44 5.317 3.758 11.113 4.158 15.99 0 5.317-4.158 10.234-4.158 13.792-.44 6.196.84 12.872 6.237 18.189 4.997 4.437 13.751 15.11 22.946 15.11 9.154 1.76 19.588-2.678 24.985-3.557z" fill="#0094b2" fill-rule="evenodd" fill-opacity="1" stroke="none" /><path d="M67.36 5.197C63.6 8.275 59.443 14.95 54.006 17.629c-6.236 2.639-13.312 3.518-19.588 5.317-13.352 3.558-16.67 17.31-21.267 29.742-3.318 9.314-9.594 23.066-3.758 32.38 8.755 13.312 20.428 21.308 20.428 39.536 0 3.518-.4 7.516-.4 11.514 7.915.879 4.158-26.624 3.758-31.062-.44-6.196-2.079-8.435-5.837-12.432-3.757-3.998-9.594-10.194-4.997-15.071 3.758-3.998 10.834-2.239 11.673-9.794.84-5.757-4.597-11.993-4.997-17.75-.84-9.753 8.315-22.186 16.23-11.552 4.198 4.917 4.198 4.917 10.434 3.997 5.437-.88 14.991 1.8 17.51-3.997 2.918-6.636-2.919-13.312-2.919-19.069.4-5.317 7.916-7.555 11.274-4.437 5.836 4.877-.44 31.061 11.673 18.189 7.475-8.435 15.39 5.796 18.748 12.432 2.479 4.438 3.318 8.875 7.915 10.194 4.598 1.36 5.837.48 9.994 3.998 5.837 5.357 11.273 10.673 10.434 19.548 3.318-12.872-4.158-28.423-10.833-38.617-5.437-7.555-11.673-12.872-20.868-15.11-3.718-.88-5.397-2.2-8.755-4.438-5.396-3.518-7.915-7.995-12.912-11.953C83.63 6.516 71.957.28 67.76 4.277z" fill="#e7c092" fill-rule="evenodd" fill-opacity="1" stroke="none" /><path d="M17.79 95.342c-3.359-3.078-6.677-5.756-8.356-8.395-3.358-4.917-2.918-7.555-2.078-13.791.839-7.076 2.478-11.513 4.997-18.19 2.078-6.635 4.157-15.95 7.515-22.186 5.836-11.073 15.43-11.073 26.704-13.312 2.478-.44 4.997-.44 7.515-1.319 2.918-1.32 6.636-5.757 8.755-8.435 4.997-5.317 5.836-7.116 12.912-5.756 2.079.44 6.676 2.198 7.915 3.557-7.915 0-14.151-.48-19.588 6.197-1.679 2.198-3.758 5.316-4.597 7.995-.84 3.078-.4 6.196-3.318 7.995-2.918 1.32-7.116-.48-10.034-.92-3.318-.879-7.076-1.319-10.833-.879-5.837.44-8.755 3.558-11.274 8.435-3.757 6.236-6.676 14.191-4.597 21.307.84 3.118 3.758 6.196.84 8.875-2.079 2.198-5.837 1.319-7.915 3.558-7.116 6.636 1.678 19.508 5.436 25.264z" fill="#f8ede0" fill-rule="evenodd" fill-opacity="1" stroke="none" /><path d="M85.708 48.61c-8.315-3.557-11.233-.44-16.27 0-5.397.92-10.394.92-15.39 3.119-7.076 2.678-12.113 8.475-10.434 16.03 1.239 4.877 3.358 7.995 2.918 13.312-.4 4.437-2.479 7.995-3.318 12.432-1.28 4.917-1.28 9.794.84 13.792 1.638 3.558 4.557 6.236 7.475 8.435-4.997-7.076-4.557-9.754-.4-15.111 2.479-2.638 6.676-.44 8.755-3.558 2.478-3.078-4.598-9.314-4.997-12.432-.44-5.317 4.557-7.116 2.918-12.433-.44-2.238-2.519-5.796.4-7.115 4.157-2.24 3.757 4.877 4.597 6.676 4.157 8.434 9.554-.92 13.312-3.119 7.915-4.917 8.355 6.197 12.113 10.234 6.236 5.757 8.714-4.477 12.912-6.676 4.557-2.678 7.475-1.799 9.154 3.558.4-9.794-4.997-11.553-11.233-16.03-3.358-2.199-7.116-8.435-13.352-11.113z" fill="#91bed1" fill-rule="evenodd" fill-opacity="1" stroke="none" /><path d="M54.887 119.288c6.676 3.997 9.994 8.435 17.909 7.115 4.597-.44 8.755-2.678 12.912-3.557 3.358-.88 7.516 0 10.434-1.32 5.836-3.118 7.915-11.553 10.393-16.87 3.758-7.995 8.315-15.99 4.997-24.904-2.078 2.678.44 8.914-2.478 12.472-4.198 5.757-9.994-.48-14.191 2.639-3.318 2.678-.4 8.874-1.64 12.432-2.518 5.796-4.996 3.558-9.154 5.357-3.358 1.759-1.679 3.558-3.758 6.636-2.078 2.678-6.676 3.118-9.994 3.118-4.597.44-9.594-.88-14.151-2.679z" fill="#00768f" fill-rule="evenodd" fill-opacity="1" stroke="none" /><path d="M44.053 61.083c-2.118 4.877.8 9.354 1.64 14.231.839 2.679 1.279 4.877.439 7.996-.84 3.557-2.079 7.995-3.358 11.553 1.68-3.079 2.519-7.116 5.037-9.755 3.318-3.997 1.24-7.555-.84-11.593-.839-1.319-1.279-2.198 0-3.997 1.24-1.32 2.08-.44 3.758-.88 3.718-.88.4-7.555 2.079-10.673 1.639-2.239 6.236-4.437 9.154-3.558 3.358 1.32 1.28 7.995 6.277 4.437 1.639-1.319 2.918-3.118 3.757-4.877 1.24-2.238 2.08-2.678 4.158-3.558 2.079-1.319 3.758-3.557 6.236-1.798-2.918-3.558-9.554-.44-13.312.48-2.918.439-8.355.439-11.273 1.318-2.519.44-8.755 3.119-10.833 4.877z" fill="#e4edf2" fill-rule="evenodd" fill-opacity="1" stroke="none" /><path d="M38.257 144.672c9.594 5.317 18.349 6.197 29.142 5.757 11.673-.44 26.224 5.756 34.979-3.998 4.157-4.877 7.915-10.633 12.472-15.55 4.158-4.438 9.595-6.636 13.752-11.074 5.397-5.796 7.915-14.231 9.994-22.226 1.24-4.877 2.878-23.506-4.997-23.986.8 7.556 6.636 13.792-.44 19.988-4.557 3.998-13.711 1.36-15.79 7.556-2.519 6.676 7.875 11.113-2.079 16.43-2.518 1.319-6.276.44-8.355 2.238-2.918 2.639-1.639 5.757-2.918 8.875-4.557 12.872-22.866 14.631-33.26 11.553-7.915-2.239-11.273 0-18.349 3.518-4.157 1.799-8.315 3.558-12.472.92z" fill="#d88b31" fill-rule="evenodd" fill-opacity="1" stroke="none" /><path d="M74.075 150.469c6.676.88 15.031 2.198 21.707.44 6.636-2.24 9.554-8.915 14.591-13.792 4.997-4.877 10.834-8.875 15.83-13.752 6.676-6.676 9.994-13.791 12.473-23.146-4.997 9.355-7.915 18.669-17.47 23.586-3.357 1.759-7.515 2.199-10.433 4.877-2.519 2.239-3.318 4.877-4.997 7.555-5.437 7.556-14.192 17.31-24.185 14.232z" fill="#aa620c" fill-rule="evenodd" fill-opacity="1" stroke="none" /><path clip-path="url(#bioicons_cancer_cell__a)" d="M90.345 155.266c14.591.88 25.425-16.43 35.419-26.664 9.994-9.754 16.67-17.75 18.349-37.257 2.878-25.745-5.037-45.293-16.67-59.484-6.676-7.995-16.67-7.995-25.025-12.873C96.182 15.431 86.588.76 69.118 1.24 62.442 3 56.606 12.752 50.37 14.991c-11.273 4.437-21.666 2.638-28.742 10.633-9.594 10.674-14.591 35.979-16.67 46.612-4.197 15.55 11.233 23.986 17.47 38.177 5.436 11.993-.8 28.423 8.354 34.62 18.31 13.311 50.41 9.353 59.564 10.233" fill="none" stroke="#000" stroke-width=".79951543px" stroke-linecap="round" stroke-linejoin="round" stroke-miterlimit="4" stroke-dasharray="none" stroke-opacity="1" /><path d="M93.184 125.524c8.354-.88 12.912-9.754 18.348-24.865 3.318-6.676 7.476-19.108 4.158-27.543-2.918-7.116-5.397-9.794-13.352-14.232-2.079-1.319-12.073-11.553-17.47-13.312-8.354-1.799-9.594-.44-18.348.88-13.352-.88-26.264 8.874-27.504 19.548-.44 5.317 3.758 11.113 4.158 15.99 0 5.317-4.158 10.234-4.158 13.792-.44 6.196.84 12.872 6.237 18.189 4.997 4.437 13.751 15.11 22.946 15.11 9.154 1.76 19.588-2.678 24.985-3.557" fill="none" stroke="#fff" stroke-width=".79951543px" stroke-linecap="round" stroke-linejoin="round" stroke-miterlimit="4" stroke-dasharray="none" stroke-opacity="1" /><path d="M38.257 56.246c0-3.198 2.438-5.837 5.397-5.837 2.998 0 5.396 2.639 5.396 5.837 0 3.238-2.398 5.836-5.396 5.836-2.959 0-5.397-2.598-5.397-5.836zM48.73 48.01c0-2.038 1.52-3.757 3.318-3.757 1.84 0 3.318 1.72 3.318 3.758 0 2.079-1.479 3.758-3.318 3.758-1.798 0-3.318-1.68-3.318-3.758zM36.098 66.68a2.935 2.935 0 0 1 2.918-2.919 2.909 2.909 0 0 1 2.919 2.919 2.884 2.884 0 0 1-2.919 2.918 2.909 2.909 0 0 1-2.918-2.918z" fill="#fff" fill-rule="evenodd" fill-opacity="1" stroke="none" />
</symbol>
<symbol id="mmp" viewBox="0 0 50 50" overflow="visible">
        
        <path d="M 25 25 L 45 12 A 21 21 0 1 1 45 38 Z" fill="#E8978F" stroke="#9C4A47" stroke-width="2" stroke-linejoin="round" />
        
        <circle cx="22" cy="25" r="3.5" fill="#FFD27A" stroke="#9C7530" stroke-width="1.2" />
        <text x="22" y="28" text-anchor="middle" font-family="Helvetica, Arial, sans-serif" font-size="6" fill="#7F4A30" font-weight="bold">Zn</text>
    </symbol>
<symbol id="fibronectin" viewBox="0 0 180 70" overflow="visible">
        
        
        <line x1="8" y1="8" x2="90" y2="50" stroke="#C86B47" stroke-width="3" stroke-linecap="round" />
        
        <line x1="172" y1="8" x2="90" y2="50" stroke="#C86B47" stroke-width="3" stroke-linecap="round" />
        
        <circle cx="20" cy="14" r="4" fill="#FFD4B0" stroke="#C86B47" stroke-width="1.2" />
        <circle cx="38" cy="23" r="4" fill="#FFD4B0" stroke="#C86B47" stroke-width="1.2" />
        <circle cx="56" cy="32" r="4" fill="#FFD4B0" stroke="#C86B47" stroke-width="1.2" />
        <circle cx="74" cy="41" r="4" fill="#FFD4B0" stroke="#C86B47" stroke-width="1.2" />
        <circle cx="160" cy="14" r="4" fill="#FFD4B0" stroke="#C86B47" stroke-width="1.2" />
        <circle cx="142" cy="23" r="4" fill="#FFD4B0" stroke="#C86B47" stroke-width="1.2" />
        <circle cx="124" cy="32" r="4" fill="#FFD4B0" stroke="#C86B47" stroke-width="1.2" />
        <circle cx="106" cy="41" r="4" fill="#FFD4B0" stroke="#C86B47" stroke-width="1.2" />
        
        <circle cx="90" cy="50" r="6" fill="#FFC890" stroke="#C86B47" stroke-width="1.8" />
        
        <path d="M 86 56 Q 90 64 94 56" fill="none" stroke="#C86B47" stroke-width="1.8" stroke-linecap="round" />
    </symbol>
</defs>
  <defs>
    <marker id="arrowhead" viewBox="0 0 10 10" refX="8" refY="5" markerWidth="6" markerHeight="6" orient="auto-start-reverse">
      <path d="M 0 0 L 10 5 L 0 10 z" fill="#333" />
    </marker>
    <marker id="arrowhead_thin" viewBox="0 0 10 10" refX="8" refY="5" markerWidth="6" markerHeight="6" orient="auto-start-reverse">
      <path d="M 0 0 L 10 5 L 0 10 z" fill="#555" stroke="#555" stroke-width="0.5" />
    </marker>
  </defs>

  <g id="figure_title" data-role="title">
    <text x="900" y="45" font-family="Helvetica, Arial, sans-serif" font-size="28" font-weight="bold" fill="#1a1a1a" text-anchor="middle">Cancer Cell Invasion through the Extracellular Matrix</text>
  </g>

  <g id="extracellular_matrix_label" data-role="compartment_label">
    <text x="900" y="100" font-family="Helvetica, Arial, sans-serif" font-size="20" fill="#666666" text-anchor="middle">Extracellular Matrix (ECM)</text>
  </g>

  <g id="tumor_cell_group" data-role="cell">
    <use href="#bioicons_cancer_cell" x="150" y="380" width="160" height="175" />
    <text x="230" y="580" font-family="Helvetica, Arial, sans-serif" font-size="16" font-weight="bold" fill="#1a1a1a" text-anchor="middle">Cancer Cell</text>
  </g>

  
  <g id="collagen_fibers_group" data-role="ecm_components">
    <g id="collagen_fiber_1" data-role="collagen_cleavage">
      <use href="#bioicons_collagen" x="400" y="250" width="300" height="67" />
      <use href="#bioicons_collagen" x="780" y="250" width="600" height="67" />
      <use href="#mmp" x="700" y="265" width="50" height="50" />
      <text x="725" y="330" font-family="Helvetica, Arial, sans-serif" font-size="14" fill="#1a1a1a" text-anchor="middle">Protease (MMP)</text>
      <path d="M 700 280 L 710 270 M 760 280 L 750 270" fill="none" stroke="#FF6B47" stroke-width="2" stroke-dasharray="4 2" />
    </g>

    <g id="collagen_fiber_2" data-role="collagen_cleavage">
      <use href="#bioicons_collagen" x="350" y="450" width="400" height="67" />
      <use href="#bioicons_collagen" x="830" y="450" width="550" height="67" />
      <use href="#mmp" x="750" y="465" width="50" height="50" />
      <text x="775" y="530" font-family="Helvetica, Arial, sans-serif" font-size="14" fill="#1a1a1a" text-anchor="middle">Protease (MMP)</text>
      <path d="M 750 480 L 760 470 M 810 480 L 800 470" fill="none" stroke="#FF6B47" stroke-width="2" stroke-dasharray="4 2" />
    </g>

    <g id="collagen_fiber_3" data-role="collagen_cleavage">
      <use href="#bioicons_collagen" x="450" y="650" width="250" height="67" />
      <use href="#bioicons_collagen" x="780" y="650" width="700" height="67" />
      <use href="#mmp" x="700" y="665" width="50" height="50" />
      <text x="725" y="730" font-family="Helvetica, Arial, sans-serif" font-size="14" fill="#1a1a1a" text-anchor="middle">Protease (MMP)</text>
      <path d="M 700 680 L 710 670 M 760 680 L 750 670" fill="none" stroke="#FF6B47" stroke-width="2" stroke-dasharray="4 2" />
    </g>

    <text x="1400" y="285" font-family="Helvetica, Arial, sans-serif" font-size="16" fill="#1a1a1a" text-anchor="end">Collagen Fiber</text>
    <text x="1400" y="485" font-family="Helvetica, Arial, sans-serif" font-size="16" fill="#1a1a1a" text-anchor="end">Collagen Fiber</text>
    <text x="1400" y="685" font-family="Helvetica, Arial, sans-serif" font-size="16" fill="#1a1a1a" text-anchor="end">Collagen Fiber</text>
  </g>

  
  <g id="other_ecm_components" data-role="ecm_components">
    <use href="#fibronectin" x="1200" y="350" width="180" height="70" />
    <text x="1290" y="435" font-family="Helvetica, Arial, sans-serif" font-size="14" fill="#1a1a1a" text-anchor="middle">Fibronectin</text>

    <use href="#proteoglycan" x="900" y="780" width="200" height="90" />
    <text x="1000" y="880" font-family="Helvetica, Arial, sans-serif" font-size="14" fill="#1a1a1a" text-anchor="middle">Proteoglycan</text>

    <use href="#fibronectin" x="500" y="150" width="120" height="47" transform="rotate(15 560 173.5)" />
    <use href="#proteoglycan" x="1400" y="150" width="150" height="67" transform="rotate(-10 1475 183.5)" />
  </g>

  
  <g id="migration_arrow_group" data-role="movement">
    <path d="M 300 480 C 400 440, 500 400, 600 400" fill="none" stroke="#555" stroke-width="2.5" marker-end="url(#arrowhead)" />
    <text x="450" y="370" font-family="Helvetica, Arial, sans-serif" font-size="16" font-weight="bold" fill="#1a1a1a" text-anchor="middle">Migration</text>
  </g>

</svg>